<svg width="1920" height="1080" viewBox="0 0 1920 1080" fill="none" xmlns="http://www.w3.org/2000/svg">
<g clip-path="url(#clip0_46_2)">
<rect width="1920" height="1080" fill="white"/>
<rect width="1920" height="1080" rx="20" fill="#444648"/>
<circle cx="1707.5" cy="39.5" r="18.5" fill="#1D1F21" fill-opacity="0.5"/>
<circle cx="1707.5" cy="39.5" r="13.5" fill="#FF6600"/>
<path d="M1742.78 47.043C1742.64 47.8685 1742.37 48.5859 1741.98 49.1953C1741.59 49.8047 1741.11 50.276 1740.54 50.6094C1739.97 50.9427 1739.35 51.1094 1738.69 51.1094C1738 51.1094 1737.42 50.9388 1736.95 50.5977C1736.48 50.2539 1736.15 49.7721 1735.96 49.1523C1735.76 48.5299 1735.73 47.7982 1735.87 46.957C1736.01 46.1315 1736.27 45.4141 1736.67 44.8047C1737.06 44.1953 1737.54 43.724 1738.11 43.3906C1738.68 43.0573 1739.3 42.8906 1739.97 42.8906C1740.65 42.8906 1741.22 43.0612 1741.69 43.4023C1742.16 43.7435 1742.49 44.2253 1742.69 44.8477C1742.89 45.4674 1742.92 46.1992 1742.78 47.043ZM1742.08 46.957C1742.2 46.2435 1742.18 45.6354 1742.03 45.1328C1741.88 44.6302 1741.63 44.2461 1741.27 43.9805C1740.9 43.7122 1740.46 43.5781 1739.95 43.5781C1739.42 43.5781 1738.91 43.7161 1738.45 43.9922C1737.98 44.2656 1737.58 44.6615 1737.25 45.1797C1736.92 45.6953 1736.69 46.3164 1736.57 47.043C1736.45 47.7539 1736.46 48.362 1736.61 48.8672C1736.76 49.3698 1737.02 49.7552 1737.38 50.0234C1737.74 50.2891 1738.18 50.4219 1738.7 50.4219C1739.24 50.4219 1739.74 50.2839 1740.21 50.0078C1740.68 49.7318 1741.08 49.3359 1741.41 48.8203C1741.74 48.3021 1741.96 47.681 1742.08 46.957ZM1745.06 47.25L1744.44 51H1743.74L1744.74 45H1745.42L1745.26 45.9414H1745.33C1745.51 45.6341 1745.77 45.388 1746.1 45.2031C1746.44 45.0156 1746.82 44.9219 1747.26 44.9219C1747.66 44.9219 1748 45.0065 1748.28 45.1758C1748.56 45.3424 1748.75 45.5885 1748.87 45.9141C1748.99 46.2396 1749.01 46.6393 1748.93 47.1133L1748.28 51H1747.59L1748.23 47.1562C1748.31 46.6667 1748.24 46.2786 1748.01 45.9922C1747.79 45.7031 1747.45 45.5586 1746.99 45.5586C1746.67 45.5586 1746.38 45.6263 1746.11 45.7617C1745.84 45.8971 1745.61 46.0924 1745.43 46.3477C1745.24 46.6003 1745.12 46.901 1745.06 47.25ZM1752.14 43L1750.81 51H1750.11L1751.44 43H1752.14ZM1752.66 51L1753.66 45H1754.36L1753.36 51H1752.66ZM1754.26 43.957C1754.11 43.957 1753.99 43.9076 1753.89 43.8086C1753.79 43.7096 1753.74 43.5898 1753.74 43.4492C1753.75 43.3164 1753.8 43.2018 1753.9 43.1055C1754.01 43.0065 1754.13 42.957 1754.27 42.957C1754.42 42.957 1754.54 43.0078 1754.64 43.1094C1754.74 43.2083 1754.79 43.3281 1754.79 43.4687C1754.78 43.6016 1754.73 43.7161 1754.63 43.8125C1754.52 43.9089 1754.4 43.957 1754.26 43.957ZM1756.51 47.25L1755.89 51H1755.19L1756.19 45H1756.87L1756.71 45.9414H1756.78C1756.96 45.6341 1757.22 45.388 1757.55 45.2031C1757.89 45.0156 1758.27 44.9219 1758.71 44.9219C1759.11 44.9219 1759.45 45.0065 1759.73 45.1758C1760.01 45.3424 1760.21 45.5885 1760.32 45.9141C1760.44 46.2396 1760.46 46.6393 1760.39 47.1133L1759.73 51H1759.04L1759.68 47.1562C1759.76 46.6667 1759.69 46.2786 1759.46 45.9922C1759.24 45.7031 1758.9 45.5586 1758.44 45.5586C1758.12 45.5586 1757.83 45.6263 1757.56 45.7617C1757.29 45.8971 1757.06 46.0924 1756.88 46.3477C1756.69 46.6003 1756.57 46.901 1756.51 47.25ZM1763.97 51.125C1763.41 51.125 1762.95 50.9948 1762.59 50.7344C1762.22 50.4714 1761.97 50.1081 1761.82 49.6445C1761.68 49.1784 1761.65 48.6419 1761.76 48.0352C1761.86 47.431 1762.06 46.8945 1762.36 46.4258C1762.66 45.9544 1763.03 45.5859 1763.47 45.3203C1763.91 45.0521 1764.38 44.918 1764.9 44.918C1765.23 44.918 1765.53 44.9779 1765.81 45.0977C1766.1 45.2148 1766.34 45.3958 1766.54 45.6406C1766.74 45.8828 1766.88 46.1888 1766.96 46.5586C1767.03 46.9258 1767.03 47.3607 1766.95 47.8633L1766.89 48.207H1762.21L1762.3 47.5937H1766.28C1766.35 47.2083 1766.33 46.862 1766.23 46.5547C1766.13 46.2474 1765.95 46.0039 1765.71 45.8242C1765.47 45.6419 1765.17 45.5508 1764.81 45.5508C1764.44 45.5508 1764.09 45.6536 1763.76 45.8594C1763.44 46.0651 1763.16 46.3333 1762.94 46.6641C1762.71 46.9922 1762.57 47.3424 1762.5 47.7148L1762.42 48.1758C1762.34 48.6836 1762.35 49.1094 1762.46 49.4531C1762.56 49.7943 1762.75 50.0521 1763.02 50.2266C1763.29 50.401 1763.65 50.4883 1764.07 50.4883C1764.36 50.4883 1764.62 50.444 1764.85 50.3555C1765.08 50.2669 1765.28 50.1484 1765.46 50C1765.63 49.849 1765.76 49.6836 1765.87 49.5039L1766.49 49.7187C1766.36 49.9714 1766.17 50.2044 1765.93 50.418C1765.69 50.6315 1765.4 50.8034 1765.07 50.9336C1764.74 51.0612 1764.38 51.125 1763.97 51.125Z" fill="white"/>
<path d="M1736 35V25.9091H1737.37V29.8597H1741.9V25.9091H1743.28V35H1741.9V31.036H1737.37V35H1736ZM1748.11 35.1376C1747.44 35.1376 1746.86 34.9941 1746.37 34.707C1745.89 34.417 1745.52 34.0101 1745.25 33.4863C1744.99 32.9596 1744.86 32.3426 1744.86 31.6353C1744.86 30.9369 1744.99 30.3214 1745.25 29.7887C1745.52 29.256 1745.88 28.8403 1746.35 28.5414C1746.83 28.2425 1747.38 28.093 1748.01 28.093C1748.4 28.093 1748.77 28.1567 1749.13 28.2839C1749.49 28.4112 1749.82 28.6109 1750.11 28.8832C1750.39 29.1554 1750.62 29.5091 1750.78 29.9441C1750.95 30.3761 1751.03 30.9014 1751.03 31.5199V31.9904H1745.61V30.9961H1749.73C1749.73 30.6469 1749.66 30.3377 1749.52 30.0684C1749.38 29.7961 1749.18 29.5816 1748.92 29.4247C1748.67 29.2679 1748.37 29.1895 1748.02 29.1895C1747.65 29.1895 1747.33 29.2812 1747.05 29.4647C1746.77 29.6452 1746.56 29.8819 1746.41 30.1749C1746.26 30.4649 1746.19 30.7801 1746.19 31.1204V31.8972C1746.19 32.3529 1746.27 32.7406 1746.43 33.0602C1746.59 33.3798 1746.81 33.6239 1747.1 33.7926C1747.39 33.9583 1747.73 34.0412 1748.12 34.0412C1748.37 34.0412 1748.6 34.0057 1748.81 33.9347C1749.02 33.8607 1749.2 33.7512 1749.35 33.6062C1749.5 33.4612 1749.61 33.2821 1749.69 33.0691L1750.95 33.2955C1750.85 33.6654 1750.67 33.9894 1750.41 34.2676C1750.15 34.5428 1749.83 34.7573 1749.44 34.9112C1749.05 35.0621 1748.61 35.1376 1748.11 35.1376ZM1753.83 25.9091V35H1752.51V25.9091H1753.83ZM1756.95 25.9091V35H1755.62V25.9091H1756.95ZM1761.6 35.1376C1760.96 35.1376 1760.41 34.9911 1759.93 34.6982C1759.45 34.4052 1759.08 33.9953 1758.82 33.4686C1758.56 32.9418 1758.43 32.3263 1758.43 31.622C1758.43 30.9147 1758.56 30.2962 1758.82 29.7665C1759.08 29.2368 1759.45 28.8255 1759.93 28.5325C1760.41 28.2395 1760.96 28.093 1761.6 28.093C1762.24 28.093 1762.8 28.2395 1763.28 28.5325C1763.75 28.8255 1764.12 29.2368 1764.39 29.7665C1764.65 30.2962 1764.78 30.9147 1764.78 31.622C1764.78 32.3263 1764.65 32.9418 1764.39 33.4686C1764.12 33.9953 1763.75 34.4052 1763.28 34.6982C1762.8 34.9911 1762.24 35.1376 1761.6 35.1376ZM1761.61 34.0234C1762.02 34.0234 1762.37 33.9139 1762.64 33.695C1762.91 33.476 1763.11 33.1845 1763.24 32.8205C1763.37 32.4565 1763.44 32.0555 1763.44 31.6175C1763.44 31.1825 1763.37 30.783 1763.24 30.419C1763.11 30.0521 1762.91 29.7576 1762.64 29.5357C1762.37 29.3137 1762.02 29.2028 1761.61 29.2028C1761.19 29.2028 1760.84 29.3137 1760.57 29.5357C1760.3 29.7576 1760.09 30.0521 1759.96 30.419C1759.83 30.783 1759.77 31.1825 1759.77 31.6175C1759.77 32.0555 1759.83 32.4565 1759.96 32.8205C1760.09 33.1845 1760.3 33.476 1760.57 33.695C1760.84 33.9139 1761.19 34.0234 1761.61 34.0234ZM1774.64 28.2972C1774.59 27.877 1774.39 27.5515 1774.05 27.3207C1773.71 27.0869 1773.27 26.97 1772.75 26.97C1772.38 26.97 1772.06 27.0292 1771.79 27.1475C1771.51 27.263 1771.3 27.4228 1771.15 27.627C1771 27.8282 1770.93 28.0575 1770.93 28.315C1770.93 28.531 1770.98 28.7174 1771.08 28.8743C1771.18 29.0311 1771.32 29.1628 1771.48 29.2694C1771.65 29.3729 1771.83 29.4602 1772.03 29.5312C1772.22 29.5993 1772.4 29.6555 1772.58 29.6999L1773.47 29.9308C1773.76 30.0018 1774.06 30.098 1774.36 30.2193C1774.67 30.3406 1774.95 30.5004 1775.21 30.6987C1775.47 30.897 1775.68 31.1426 1775.84 31.4355C1776 31.7285 1776.08 32.0792 1776.08 32.4876C1776.08 33.0025 1775.95 33.4597 1775.68 33.8592C1775.42 34.2587 1775.04 34.5739 1774.53 34.8047C1774.03 35.0355 1773.43 35.1509 1772.72 35.1509C1772.04 35.1509 1771.45 35.0429 1770.95 34.8269C1770.45 34.6109 1770.07 34.3046 1769.78 33.908C1769.5 33.5085 1769.35 33.035 1769.32 32.4876H1770.69C1770.72 32.8161 1770.83 33.0898 1771.01 33.3088C1771.2 33.5248 1771.44 33.6861 1771.74 33.7926C1772.03 33.8962 1772.36 33.948 1772.71 33.948C1773.1 33.948 1773.44 33.8873 1773.74 33.766C1774.05 33.6417 1774.29 33.4701 1774.46 33.2511C1774.64 33.0291 1774.73 32.7702 1774.73 32.4743C1774.73 32.205 1774.65 31.9845 1774.49 31.8129C1774.34 31.6412 1774.14 31.4992 1773.88 31.3867C1773.62 31.2743 1773.33 31.1751 1773 31.0893L1771.93 30.7963C1771.2 30.5981 1770.62 30.3066 1770.2 29.9219C1769.77 29.5372 1769.56 29.0282 1769.56 28.3949C1769.56 27.8711 1769.7 27.4139 1769.99 27.0233C1770.27 26.6326 1770.66 26.3293 1771.14 26.1133C1771.63 25.8943 1772.18 25.7848 1772.79 25.7848C1773.4 25.7848 1773.94 25.8928 1774.41 26.1088C1774.89 26.3249 1775.26 26.6223 1775.53 27.0011C1775.81 27.3769 1775.95 27.8089 1775.96 28.2972H1774.64ZM1779.6 35.1509C1779.17 35.1509 1778.78 35.071 1778.43 34.9112C1778.08 34.7485 1777.8 34.5132 1777.6 34.2054C1777.4 33.8977 1777.3 33.5204 1777.3 33.0735C1777.3 32.6888 1777.37 32.3722 1777.52 32.1236C1777.67 31.875 1777.87 31.6782 1778.12 31.5332C1778.37 31.3882 1778.65 31.2787 1778.96 31.2047C1779.27 31.1307 1779.59 31.0745 1779.91 31.036C1780.32 30.9887 1780.65 30.9502 1780.91 30.9206C1781.16 30.8881 1781.34 30.8363 1781.46 30.7653C1781.58 30.6942 1781.63 30.5788 1781.63 30.419V30.388C1781.63 30.0003 1781.52 29.6999 1781.3 29.4869C1781.09 29.2738 1780.77 29.1673 1780.34 29.1673C1779.89 29.1673 1779.54 29.2664 1779.28 29.4647C1779.03 29.66 1778.85 29.8775 1778.75 30.1172L1777.5 29.8331C1777.65 29.4188 1777.87 29.0844 1778.15 28.8299C1778.44 28.5724 1778.77 28.386 1779.14 28.2706C1779.52 28.1522 1779.91 28.093 1780.32 28.093C1780.59 28.093 1780.88 28.1256 1781.18 28.1907C1781.49 28.2528 1781.78 28.3683 1782.05 28.5369C1782.32 28.7056 1782.54 28.9468 1782.71 29.2605C1782.88 29.5712 1782.96 29.9751 1782.96 30.4723V35H1781.67V34.0678H1781.62C1781.53 34.2395 1781.4 34.4081 1781.23 34.5739C1781.06 34.7396 1780.84 34.8772 1780.57 34.9867C1780.3 35.0962 1779.98 35.1509 1779.6 35.1509ZM1779.89 34.0856C1780.26 34.0856 1780.57 34.0131 1780.83 33.8681C1781.09 33.7231 1781.29 33.5337 1781.43 33.2999C1781.57 33.0632 1781.64 32.8101 1781.64 32.5408V31.6619C1781.59 31.7093 1781.5 31.7537 1781.36 31.7951C1781.23 31.8336 1781.08 31.8676 1780.91 31.8972C1780.73 31.9238 1780.57 31.949 1780.4 31.9727C1780.24 31.9934 1780.1 32.0111 1780 32.0259C1779.74 32.0585 1779.5 32.1132 1779.29 32.1902C1779.08 32.2671 1778.91 32.3781 1778.78 32.5231C1778.66 32.6651 1778.6 32.8545 1778.6 33.0913C1778.6 33.4197 1778.72 33.6683 1778.96 33.837C1779.2 34.0027 1779.51 34.0856 1779.89 34.0856ZM1784.73 35V28.1818H1786.06V35H1784.73ZM1785.4 27.1298C1785.17 27.1298 1784.97 27.0529 1784.81 26.899C1784.65 26.7421 1784.56 26.5557 1784.56 26.3397C1784.56 26.1207 1784.65 25.9342 1784.81 25.7804C1784.97 25.6235 1785.17 25.5451 1785.4 25.5451C1785.63 25.5451 1785.83 25.6235 1785.99 25.7804C1786.16 25.9342 1786.24 26.1207 1786.24 26.3397C1786.24 26.5557 1786.16 26.7421 1785.99 26.899C1785.83 27.0529 1785.63 27.1298 1785.4 27.1298ZM1789.17 30.9517V35H1787.85V28.1818H1789.12V29.2915H1789.2C1789.36 28.9305 1789.61 28.6405 1789.94 28.4215C1790.28 28.2025 1790.7 28.093 1791.21 28.093C1791.68 28.093 1792.09 28.1907 1792.44 28.386C1792.78 28.5784 1793.06 28.8654 1793.25 29.2472C1793.44 29.6289 1793.54 30.1009 1793.54 30.6632V35H1792.21V30.823C1792.21 30.3288 1792.08 29.9426 1791.82 29.6644C1791.57 29.3833 1791.21 29.2427 1790.76 29.2427C1790.45 29.2427 1790.18 29.3093 1789.94 29.4425C1789.7 29.5756 1789.52 29.771 1789.38 30.0284C1789.24 30.2829 1789.17 30.5907 1789.17 30.9517ZM1797.3 35.1509C1796.87 35.1509 1796.48 35.071 1796.13 34.9112C1795.78 34.7485 1795.5 34.5132 1795.3 34.2054C1795.1 33.8977 1795 33.5204 1795 33.0735C1795 32.6888 1795.07 32.3722 1795.22 32.1236C1795.37 31.875 1795.57 31.6782 1795.82 31.5332C1796.07 31.3882 1796.35 31.2787 1796.66 31.2047C1796.97 31.1307 1797.29 31.0745 1797.61 31.036C1798.02 30.9887 1798.35 30.9502 1798.61 30.9206C1798.86 30.8881 1799.04 30.8363 1799.16 30.7653C1799.28 30.6942 1799.33 30.5788 1799.33 30.419V30.388C1799.33 30.0003 1799.22 29.6999 1799 29.4869C1798.79 29.2738 1798.47 29.1673 1798.04 29.1673C1797.59 29.1673 1797.24 29.2664 1796.98 29.4647C1796.73 29.66 1796.55 29.8775 1796.45 30.1172L1795.21 29.8331C1795.35 29.4188 1795.57 29.0844 1795.85 28.8299C1796.14 28.5724 1796.47 28.386 1796.84 28.2706C1797.22 28.1522 1797.61 28.093 1798.02 28.093C1798.29 28.093 1798.58 28.1256 1798.88 28.1907C1799.19 28.2528 1799.48 28.3683 1799.75 28.5369C1800.02 28.7056 1800.24 28.9468 1800.41 29.2605C1800.58 29.5712 1800.66 29.9751 1800.66 30.4723V35H1799.37V34.0678H1799.32C1799.23 34.2395 1799.1 34.4081 1798.93 34.5739C1798.76 34.7396 1798.54 34.8772 1798.27 34.9867C1798 35.0962 1797.68 35.1509 1797.3 35.1509ZM1797.59 34.0856C1797.96 34.0856 1798.27 34.0131 1798.53 33.8681C1798.79 33.7231 1798.99 33.5337 1799.13 33.2999C1799.27 33.0632 1799.34 32.8101 1799.34 32.5408V31.6619C1799.29 31.7093 1799.2 31.7537 1799.06 31.7951C1798.93 31.8336 1798.78 31.8676 1798.61 31.8972C1798.43 31.9238 1798.27 31.949 1798.1 31.9727C1797.94 31.9934 1797.8 32.0111 1797.7 32.0259C1797.44 32.0585 1797.2 32.1132 1796.99 32.1902C1796.78 32.2671 1796.61 32.3781 1796.48 32.5231C1796.36 32.6651 1796.3 32.8545 1796.3 33.0913C1796.3 33.4197 1796.42 33.6683 1796.66 33.837C1796.9 34.0027 1797.21 34.0856 1797.59 34.0856ZM1804.99 35.1332C1804.43 35.1332 1803.94 34.9926 1803.51 34.7115C1803.08 34.4274 1802.74 34.0234 1802.5 33.4996C1802.26 32.9729 1802.14 32.3411 1802.14 31.6042C1802.14 30.8674 1802.26 30.237 1802.5 29.7132C1802.75 29.1895 1803.09 28.7885 1803.52 28.5103C1803.96 28.2321 1804.45 28.093 1804.99 28.093C1805.42 28.093 1805.76 28.1641 1806.01 28.3061C1806.28 28.4452 1806.48 28.608 1806.62 28.7944C1806.76 28.9808 1806.88 29.1451 1806.96 29.2871H1807.04V25.9091H1808.36V35H1807.07V33.9391H1806.96C1806.88 34.0841 1806.76 34.2498 1806.61 34.4363C1806.46 34.6227 1806.26 34.7855 1806 34.9245C1805.74 35.0636 1805.4 35.1332 1804.99 35.1332ZM1805.28 34.0012C1805.66 34.0012 1805.98 33.9006 1806.25 33.6994C1806.51 33.4952 1806.71 33.2126 1806.85 32.8516C1806.99 32.4905 1807.06 32.0703 1807.06 31.5909C1807.06 31.1174 1806.99 30.7031 1806.85 30.348C1806.72 29.9929 1806.52 29.7162 1806.25 29.5179C1805.99 29.3197 1805.67 29.2205 1805.28 29.2205C1804.88 29.2205 1804.55 29.3241 1804.28 29.5312C1804.01 29.7384 1803.81 30.021 1803.68 30.3791C1803.54 30.7372 1803.48 31.1411 1803.48 31.5909C1803.48 32.0466 1803.54 32.4565 1803.68 32.8205C1803.82 33.1845 1804.02 33.473 1804.28 33.6861C1804.55 33.8962 1804.88 34.0012 1805.28 34.0012ZM1811.58 30.9517V35H1810.26V25.9091H1811.57V29.2915H1811.65C1811.81 28.9246 1812.06 28.6331 1812.38 28.4171C1812.71 28.2011 1813.14 28.093 1813.67 28.093C1814.14 28.093 1814.55 28.1892 1814.9 28.3816C1815.25 28.5739 1815.52 28.861 1815.71 29.2427C1815.91 29.6215 1816.01 30.095 1816.01 30.6632V35H1814.68V30.823C1814.68 30.3229 1814.55 29.9352 1814.29 29.66C1814.03 29.3818 1813.68 29.2427 1813.22 29.2427C1812.9 29.2427 1812.62 29.3093 1812.37 29.4425C1812.13 29.5756 1811.94 29.771 1811.79 30.0284C1811.65 30.2829 1811.58 30.5907 1811.58 30.9517Z" fill="white"/>
<rect y="95" width="1920" height="985" fill="#1D1F21"/>
<rect x="1773" y="41" width="7" height="7" rx="3.5" fill="#FF6600"/>
<path d="M0 124H125C172.14 124 195.711 124 210.355 138.645C225 153.289 225 176.86 225 224V954C225 1001.14 225 1024.71 210.355 1039.36C195.711 1054 172.14 1054 125 1054H0V124Z" fill="url(#paint0_linear_46_2)"/>
<path d="M125 124.5C148.584 124.5 166.222 124.501 179.797 126.326C193.357 128.149 202.788 131.784 210.002 138.998C217.216 146.212 220.851 155.643 222.674 169.203C224.499 182.778 224.5 200.416 224.5 224V954C224.5 977.584 224.499 995.222 222.674 1008.8C220.851 1022.36 217.216 1031.79 210.002 1039C202.788 1046.22 193.357 1049.85 179.797 1051.67C166.222 1053.5 148.584 1053.5 125 1053.5H0.5V124.5H125Z" stroke="#DADADA" stroke-opacity="0.4"/>
<rect y="520" width="225" height="68" fill="#1D1F21"/>
<rect x="246" y="304" width="1653" height="750" rx="20" fill="#2C2E30"/>
<rect x="246.5" y="304.5" width="1652" height="749" rx="19.5" stroke="#DADADA" stroke-opacity="0.4"/>
<rect x="1450.5" y="16.5" width="167" height="66" rx="19.5" fill="#444648" stroke="#F6903A"/>
<rect x="246" y="124" width="248" height="152" rx="20" fill="url(#paint1_linear_46_2)"/>
<rect x="246.5" y="124.5" width="247" height="151" rx="19.5" stroke="#DADADA" stroke-opacity="0.4"/>
<rect x="527" y="124" width="248" height="152" rx="20" fill="url(#paint2_linear_46_2)"/>
<rect x="527.5" y="124.5" width="247" height="151" rx="19.5" stroke="#DADADA" stroke-opacity="0.4"/>
<rect x="1651" y="124" width="248" height="152" rx="20" fill="url(#paint3_linear_46_2)"/>
<rect x="1651.5" y="124.5" width="247" height="151" rx="19.5" stroke="#DADADA" stroke-opacity="0.4"/>
<rect x="1370" y="124" width="248" height="152" rx="20" fill="url(#paint4_linear_46_2)"/>
<rect x="1370.5" y="124.5" width="247" height="151" rx="19.5" stroke="#DADADA" stroke-opacity="0.4"/>
<rect x="1089" y="124" width="248" height="152" rx="20" fill="url(#paint5_linear_46_2)"/>
<rect x="1089.5" y="124.5" width="247" height="151" rx="19.5" stroke="#DADADA" stroke-opacity="0.4"/>
<rect x="808" y="124" width="248" height="152" rx="20" fill="url(#paint6_linear_46_2)"/>
<rect x="808.5" y="124.5" width="247" height="151" rx="19.5" stroke="#DADADA" stroke-opacity="0.4"/>
<path d="M1705.96 37.2972C1705.91 36.877 1705.71 36.5515 1705.37 36.3207C1705.03 36.0869 1704.6 35.97 1704.07 35.97C1703.7 35.97 1703.38 36.0292 1703.11 36.1475C1702.83 36.263 1702.62 36.4228 1702.47 36.627C1702.32 36.8282 1702.25 37.0575 1702.25 37.315C1702.25 37.531 1702.3 37.7174 1702.4 37.8743C1702.51 38.0311 1702.64 38.1628 1702.81 38.2694C1702.97 38.3729 1703.15 38.4602 1703.35 38.5312C1703.54 38.5993 1703.72 38.6555 1703.9 38.6999L1704.79 38.9308C1705.08 39.0018 1705.38 39.098 1705.68 39.2193C1705.99 39.3406 1706.27 39.5004 1706.53 39.6987C1706.79 39.897 1707 40.1426 1707.16 40.4355C1707.32 40.7285 1707.4 41.0792 1707.4 41.4876C1707.4 42.0025 1707.27 42.4597 1707 42.8592C1706.74 43.2587 1706.36 43.5739 1705.85 43.8047C1705.35 44.0355 1704.75 44.1509 1704.04 44.1509C1703.36 44.1509 1702.77 44.0429 1702.27 43.8269C1701.78 43.6109 1701.39 43.3046 1701.11 42.908C1700.82 42.5085 1700.67 42.035 1700.64 41.4876H1702.02C1702.04 41.8161 1702.15 42.0898 1702.33 42.3088C1702.52 42.5248 1702.77 42.6861 1703.06 42.7926C1703.35 42.8962 1703.68 42.948 1704.03 42.948C1704.42 42.948 1704.76 42.8873 1705.06 42.766C1705.37 42.6417 1705.61 42.4701 1705.78 42.2511C1705.96 42.0291 1706.05 41.7702 1706.05 41.4743C1706.05 41.205 1705.97 40.9845 1705.81 40.8129C1705.66 40.6412 1705.46 40.4992 1705.2 40.3867C1704.94 40.2743 1704.65 40.1751 1704.32 40.0893L1703.25 39.7963C1702.52 39.5981 1701.94 39.3066 1701.52 38.9219C1701.09 38.5372 1700.88 38.0282 1700.88 37.3949C1700.88 36.8711 1701.03 36.4139 1701.31 36.0233C1701.59 35.6326 1701.98 35.3293 1702.46 35.1133C1702.95 34.8943 1703.5 34.7848 1704.11 34.7848C1704.72 34.7848 1705.26 34.8928 1705.74 35.1088C1706.21 35.3249 1706.58 35.6223 1706.85 36.0011C1707.13 36.3769 1707.27 36.8089 1707.28 37.2972H1705.96ZM1709.04 44V34.9091H1712.28C1712.99 34.9091 1713.58 35.0378 1714.04 35.2953C1714.51 35.5527 1714.85 35.9049 1715.08 36.3517C1715.32 36.7956 1715.43 37.2958 1715.43 37.8521C1715.43 38.4114 1715.31 38.9145 1715.08 39.3613C1714.85 39.8052 1714.5 40.1574 1714.03 40.4178C1713.57 40.6752 1712.98 40.804 1712.28 40.804H1710.05V39.641H1712.15C1712.6 39.641 1712.96 39.564 1713.24 39.4102C1713.52 39.2533 1713.72 39.0402 1713.85 38.771C1713.99 38.5017 1714.05 38.1954 1714.05 37.8521C1714.05 37.5088 1713.99 37.204 1713.85 36.9377C1713.72 36.6713 1713.52 36.4627 1713.24 36.3118C1712.96 36.1609 1712.59 36.0854 1712.14 36.0854H1710.41V44H1709.04Z" fill="#191919"/>
<path d="M32.538 48V29.1H35.427L43.689 42.897H42.177L50.304 29.1H53.193L53.22 48H49.899L49.872 34.311H50.574L43.662 45.84H42.096L35.076 34.311H35.886V48H32.538ZM66.8841 48V45.084L66.6951 44.463V39.36C66.6951 38.37 66.3981 37.605 65.8041 37.065C65.2101 36.507 64.3101 36.228 63.1041 36.228C62.2941 36.228 61.4931 36.354 60.7011 36.606C59.9271 36.858 59.2701 37.209 58.7301 37.659L57.4071 35.202C58.1811 34.608 59.0991 34.167 60.1611 33.879C61.2411 33.573 62.3571 33.42 63.5091 33.42C65.5971 33.42 67.2081 33.924 68.3421 34.932C69.4941 35.922 70.0701 37.461 70.0701 39.549V48H66.8841ZM62.3481 48.189C61.2681 48.189 60.3231 48.009 59.5131 47.649C58.7031 47.271 58.0731 46.758 57.6231 46.11C57.1911 45.444 56.9751 44.697 56.9751 43.869C56.9751 43.059 57.1641 42.33 57.5421 41.682C57.9381 41.034 58.5771 40.521 59.4591 40.143C60.3411 39.765 61.5111 39.576 62.9691 39.576H67.1541V41.817H63.2121C62.0601 41.817 61.2861 42.006 60.8901 42.384C60.4941 42.744 60.2961 43.194 60.2961 43.734C60.2961 44.346 60.5391 44.832 61.0251 45.192C61.5111 45.552 62.1861 45.732 63.0501 45.732C63.8781 45.732 64.6161 45.543 65.2641 45.165C65.9301 44.787 66.4071 44.229 66.6951 43.491L67.2621 45.516C66.9381 46.362 66.3531 47.019 65.5071 47.487C64.6791 47.955 63.6261 48.189 62.3481 48.189ZM82.5825 33.42C83.7345 33.42 84.7605 33.645 85.6605 34.095C86.5785 34.545 87.2985 35.238 87.8205 36.174C88.3425 37.092 88.6035 38.28 88.6035 39.738V48H85.2285V40.17C85.2285 38.892 84.9225 37.938 84.3105 37.308C83.7165 36.678 82.8795 36.363 81.7995 36.363C81.0075 36.363 80.3055 36.525 79.6935 36.849C79.0815 37.173 78.6045 37.659 78.2625 38.307C77.9385 38.937 77.7765 39.738 77.7765 40.71V48H74.4015V33.582H77.6145V37.47L77.0475 36.282C77.5515 35.364 78.2805 34.662 79.2345 34.176C80.2065 33.672 81.3225 33.42 82.5825 33.42ZM98.9869 48.189C97.7629 48.189 96.6829 47.964 95.7469 47.514C94.8109 47.046 94.0819 46.344 93.5599 45.408C93.0379 44.454 92.7769 43.257 92.7769 41.817V33.582H96.1519V41.358C96.1519 42.654 96.4399 43.626 97.0159 44.274C97.6099 44.904 98.4469 45.219 99.5269 45.219C100.319 45.219 101.003 45.057 101.579 44.733C102.173 44.409 102.632 43.923 102.956 43.275C103.298 42.627 103.469 41.826 103.469 40.872V33.582H106.844V48H103.631V44.112L104.198 45.3C103.712 46.236 103.001 46.956 102.065 47.46C101.129 47.946 100.103 48.189 98.9869 48.189ZM111.722 48V32.772C111.722 31.26 112.163 30.054 113.045 29.154C113.945 28.236 115.223 27.777 116.879 27.777C117.473 27.777 118.031 27.84 118.553 27.966C119.093 28.092 119.543 28.29 119.903 28.56L118.985 31.098C118.733 30.9 118.445 30.756 118.121 30.666C117.797 30.558 117.464 30.504 117.122 30.504C116.42 30.504 115.889 30.702 115.529 31.098C115.169 31.476 114.989 32.052 114.989 32.826V34.446L115.097 35.958V48H111.722ZM109.346 36.39V33.69H118.958V36.39H109.346ZM129.849 48V45.084L129.66 44.463V39.36C129.66 38.37 129.363 37.605 128.769 37.065C128.175 36.507 127.275 36.228 126.069 36.228C125.259 36.228 124.458 36.354 123.666 36.606C122.892 36.858 122.235 37.209 121.695 37.659L120.372 35.202C121.146 34.608 122.064 34.167 123.126 33.879C124.206 33.573 125.322 33.42 126.474 33.42C128.562 33.42 130.173 33.924 131.307 34.932C132.459 35.922 133.035 37.461 133.035 39.549V48H129.849ZM125.313 48.189C124.233 48.189 123.288 48.009 122.478 47.649C121.668 47.271 121.038 46.758 120.588 46.11C120.156 45.444 119.94 44.697 119.94 43.869C119.94 43.059 120.129 42.33 120.507 41.682C120.903 41.034 121.542 40.521 122.424 40.143C123.306 39.765 124.476 39.576 125.934 39.576H130.119V41.817H126.177C125.025 41.817 124.251 42.006 123.855 42.384C123.459 42.744 123.261 43.194 123.261 43.734C123.261 44.346 123.504 44.832 123.99 45.192C124.476 45.552 125.151 45.732 126.015 45.732C126.843 45.732 127.581 45.543 128.229 45.165C128.895 44.787 129.372 44.229 129.66 43.491L130.227 45.516C129.903 46.362 129.318 47.019 128.472 47.487C127.644 47.955 126.591 48.189 125.313 48.189ZM144.008 48.189C142.496 48.189 141.146 47.874 139.958 47.244C138.788 46.596 137.87 45.714 137.204 44.598C136.538 43.482 136.205 42.213 136.205 40.791C136.205 39.351 136.538 38.082 137.204 36.984C137.87 35.868 138.788 34.995 139.958 34.365C141.146 33.735 142.496 33.42 144.008 33.42C145.412 33.42 146.645 33.708 147.707 34.284C148.787 34.842 149.606 35.67 150.164 36.768L147.572 38.28C147.14 37.596 146.609 37.092 145.979 36.768C145.367 36.444 144.701 36.282 143.981 36.282C143.153 36.282 142.406 36.462 141.74 36.822C141.074 37.182 140.552 37.704 140.174 38.388C139.796 39.054 139.607 39.855 139.607 40.791C139.607 41.727 139.796 42.537 140.174 43.221C140.552 43.887 141.074 44.4 141.74 44.76C142.406 45.12 143.153 45.3 143.981 45.3C144.701 45.3 145.367 45.138 145.979 44.814C146.609 44.49 147.14 43.986 147.572 43.302L150.164 44.814C149.606 45.894 148.787 46.731 147.707 47.325C146.645 47.901 145.412 48.189 144.008 48.189ZM158.693 48.189C157.109 48.189 155.885 47.784 155.021 46.974C154.157 46.146 153.725 44.931 153.725 43.329V30.396H157.1V43.248C157.1 43.932 157.271 44.463 157.613 44.841C157.973 45.219 158.468 45.408 159.098 45.408C159.854 45.408 160.484 45.21 160.988 44.814L161.933 47.217C161.537 47.541 161.051 47.784 160.475 47.946C159.899 48.108 159.305 48.189 158.693 48.189ZM151.349 36.39V33.69H160.961V36.39H151.349ZM170.811 48.189C169.587 48.189 168.507 47.964 167.571 47.514C166.635 47.046 165.906 46.344 165.384 45.408C164.862 44.454 164.601 43.257 164.601 41.817V33.582H167.976V41.358C167.976 42.654 168.264 43.626 168.84 44.274C169.434 44.904 170.271 45.219 171.351 45.219C172.143 45.219 172.827 45.057 173.403 44.733C173.997 44.409 174.456 43.923 174.78 43.275C175.122 42.627 175.293 41.826 175.293 40.872V33.582H178.668V48H175.455V44.112L176.022 45.3C175.536 46.236 174.825 46.956 173.889 47.46C172.953 47.946 171.927 48.189 170.811 48.189ZM183.087 48V33.582H186.3V37.551L185.922 36.39C186.354 35.418 187.029 34.68 187.947 34.176C188.883 33.672 190.044 33.42 191.43 33.42V36.633C191.286 36.597 191.151 36.579 191.025 36.579C190.899 36.561 190.773 36.552 190.647 36.552C189.369 36.552 188.352 36.93 187.596 37.686C186.84 38.424 186.462 39.531 186.462 41.007V48H183.087ZM194.293 48V33.582H197.668V48H194.293ZM195.994 31.206C195.364 31.206 194.842 31.008 194.428 30.612C194.032 30.216 193.834 29.739 193.834 29.181C193.834 28.605 194.032 28.128 194.428 27.75C194.842 27.354 195.364 27.156 195.994 27.156C196.624 27.156 197.137 27.345 197.533 27.723C197.947 28.083 198.154 28.542 198.154 29.1C198.154 29.694 197.956 30.198 197.56 30.612C197.164 31.008 196.642 31.206 195.994 31.206ZM210.279 33.42C211.431 33.42 212.457 33.645 213.357 34.095C214.275 34.545 214.995 35.238 215.517 36.174C216.039 37.092 216.3 38.28 216.3 39.738V48H212.925V40.17C212.925 38.892 212.619 37.938 212.007 37.308C211.413 36.678 210.576 36.363 209.496 36.363C208.704 36.363 208.002 36.525 207.39 36.849C206.778 37.173 206.301 37.659 205.959 38.307C205.635 38.937 205.473 39.738 205.473 40.71V48H202.098V33.582H205.311V37.47L204.744 36.282C205.248 35.364 205.977 34.662 206.931 34.176C207.903 33.672 209.019 33.42 210.279 33.42ZM227.142 53.427C225.81 53.427 224.505 53.247 223.227 52.887C221.967 52.545 220.932 52.041 220.122 51.375L221.634 48.837C222.264 49.359 223.056 49.773 224.01 50.079C224.982 50.403 225.963 50.565 226.953 50.565C228.537 50.565 229.698 50.196 230.436 49.458C231.174 48.738 231.543 47.649 231.543 46.191V43.626L231.813 40.359L231.705 37.092V33.582H234.918V45.813C234.918 48.423 234.252 50.34 232.92 51.564C231.588 52.806 229.662 53.427 227.142 53.427ZM226.71 47.352C225.342 47.352 224.1 47.064 222.984 46.488C221.886 45.894 221.013 45.075 220.365 44.031C219.735 42.987 219.42 41.763 219.42 40.359C219.42 38.973 219.735 37.758 220.365 36.714C221.013 35.67 221.886 34.86 222.984 34.284C224.1 33.708 225.342 33.42 226.71 33.42C227.934 33.42 229.032 33.663 230.004 34.149C230.976 34.635 231.75 35.391 232.326 36.417C232.92 37.443 233.217 38.757 233.217 40.359C233.217 41.961 232.92 43.284 232.326 44.328C231.75 45.354 230.976 46.119 230.004 46.623C229.032 47.109 227.934 47.352 226.71 47.352ZM227.223 44.49C228.069 44.49 228.825 44.319 229.491 43.977C230.157 43.617 230.67 43.131 231.03 42.519C231.408 41.889 231.597 41.169 231.597 40.359C231.597 39.549 231.408 38.838 231.03 38.226C230.67 37.596 230.157 37.119 229.491 36.795C228.825 36.453 228.069 36.282 227.223 36.282C226.377 36.282 225.612 36.453 224.928 36.795C224.262 37.119 223.74 37.596 223.362 38.226C223.002 38.838 222.822 39.549 222.822 40.359C222.822 41.169 223.002 41.889 223.362 42.519C223.74 43.131 224.262 43.617 224.928 43.977C225.612 44.319 226.377 44.49 227.223 44.49ZM255.268 48.27C252.676 48.27 250.642 47.541 249.166 46.083C247.708 44.625 246.979 42.519 246.979 39.765V29.1H250.489V39.63C250.489 41.574 250.903 42.987 251.731 43.869C252.577 44.751 253.765 45.192 255.295 45.192C256.825 45.192 258.004 44.751 258.832 43.869C259.66 42.987 260.074 41.574 260.074 39.63V29.1H263.53V39.765C263.53 42.519 262.792 44.625 261.316 46.083C259.858 47.541 257.842 48.27 255.268 48.27ZM276.302 33.42C277.454 33.42 278.48 33.645 279.38 34.095C280.298 34.545 281.018 35.238 281.54 36.174C282.062 37.092 282.323 38.28 282.323 39.738V48H278.948V40.17C278.948 38.892 278.642 37.938 278.03 37.308C277.436 36.678 276.599 36.363 275.519 36.363C274.727 36.363 274.025 36.525 273.413 36.849C272.801 37.173 272.324 37.659 271.982 38.307C271.658 38.937 271.496 39.738 271.496 40.71V48H268.121V33.582H271.334V37.47L270.767 36.282C271.271 35.364 272 34.662 272.954 34.176C273.926 33.672 275.042 33.42 276.302 33.42ZM286.605 48V33.582H289.98V48H286.605ZM288.306 31.206C287.676 31.206 287.154 31.008 286.74 30.612C286.344 30.216 286.146 29.739 286.146 29.181C286.146 28.605 286.344 28.128 286.74 27.75C287.154 27.354 287.676 27.156 288.306 27.156C288.936 27.156 289.449 27.345 289.845 27.723C290.259 28.083 290.466 28.542 290.466 29.1C290.466 29.694 290.268 30.198 289.872 30.612C289.476 31.008 288.954 31.206 288.306 31.206ZM299.836 48.189C298.252 48.189 297.028 47.784 296.164 46.974C295.3 46.146 294.868 44.931 294.868 43.329V30.396H298.243V43.248C298.243 43.932 298.414 44.463 298.756 44.841C299.116 45.219 299.611 45.408 300.241 45.408C300.997 45.408 301.627 45.21 302.131 44.814L303.076 47.217C302.68 47.541 302.194 47.784 301.618 47.946C301.042 48.108 300.448 48.189 299.836 48.189ZM292.492 36.39V33.69H302.104V36.39H292.492ZM313.639 48V29.1H321.415C323.089 29.1 324.52 29.37 325.708 29.91C326.914 30.45 327.841 31.224 328.489 32.232C329.137 33.24 329.461 34.437 329.461 35.823C329.461 37.209 329.137 38.406 328.489 39.414C327.841 40.422 326.914 41.196 325.708 41.736C324.52 42.276 323.089 42.546 321.415 42.546H315.583L317.149 40.899V48H313.639ZM317.149 41.277L315.583 39.576H321.253C322.801 39.576 323.962 39.252 324.736 38.604C325.528 37.938 325.924 37.011 325.924 35.823C325.924 34.617 325.528 33.69 324.736 33.042C323.962 32.394 322.801 32.07 321.253 32.07H315.583L317.149 30.342V41.277ZM339.366 48.189C337.764 48.189 336.36 47.874 335.154 47.244C333.966 46.596 333.039 45.714 332.373 44.598C331.725 43.482 331.401 42.213 331.401 40.791C331.401 39.351 331.716 38.082 332.346 36.984C332.994 35.868 333.876 34.995 334.992 34.365C336.126 33.735 337.413 33.42 338.853 33.42C340.257 33.42 341.508 33.726 342.606 34.338C343.704 34.95 344.568 35.814 345.198 36.93C345.828 38.046 346.143 39.36 346.143 40.872C346.143 41.016 346.134 41.178 346.116 41.358C346.116 41.538 346.107 41.709 346.089 41.871H334.074V39.63H344.307L342.984 40.332C343.002 39.504 342.831 38.775 342.471 38.145C342.111 37.515 341.616 37.02 340.986 36.66C340.374 36.3 339.663 36.12 338.853 36.12C338.025 36.12 337.296 36.3 336.666 36.66C336.054 37.02 335.568 37.524 335.208 38.172C334.866 38.802 334.695 39.549 334.695 40.413V40.953C334.695 41.817 334.893 42.582 335.289 43.248C335.685 43.914 336.243 44.427 336.963 44.787C337.683 45.147 338.511 45.327 339.447 45.327C340.257 45.327 340.986 45.201 341.634 44.949C342.282 44.697 342.858 44.301 343.362 43.761L345.171 45.84C344.523 46.596 343.704 47.181 342.714 47.595C341.742 47.991 340.626 48.189 339.366 48.189ZM349.385 48V33.582H352.598V37.551L352.22 36.39C352.652 35.418 353.327 34.68 354.245 34.176C355.181 33.672 356.342 33.42 357.728 33.42V36.633C357.584 36.597 357.449 36.579 357.323 36.579C357.197 36.561 357.071 36.552 356.945 36.552C355.667 36.552 354.65 36.93 353.894 37.686C353.138 38.424 352.76 39.531 352.76 41.007V48H349.385ZM361.182 48V32.772C361.182 31.26 361.623 30.054 362.505 29.154C363.405 28.236 364.683 27.777 366.339 27.777C366.933 27.777 367.491 27.84 368.013 27.966C368.553 28.092 369.003 28.29 369.363 28.56L368.445 31.098C368.193 30.9 367.905 30.756 367.581 30.666C367.257 30.558 366.924 30.504 366.582 30.504C365.88 30.504 365.349 30.702 364.989 31.098C364.629 31.476 364.449 32.052 364.449 32.826V34.446L364.557 35.958V48H361.182ZM358.806 36.39V33.69H368.418V36.39H358.806ZM376.959 48.189C375.483 48.189 374.169 47.874 373.017 47.244C371.865 46.596 370.956 45.714 370.29 44.598C369.624 43.482 369.291 42.213 369.291 40.791C369.291 39.351 369.624 38.082 370.29 36.984C370.956 35.868 371.865 34.995 373.017 34.365C374.169 33.735 375.483 33.42 376.959 33.42C378.453 33.42 379.776 33.735 380.928 34.365C382.098 34.995 383.007 35.859 383.655 36.957C384.321 38.055 384.654 39.333 384.654 40.791C384.654 42.213 384.321 43.482 383.655 44.598C383.007 45.714 382.098 46.596 380.928 47.244C379.776 47.874 378.453 48.189 376.959 48.189ZM376.959 45.3C377.787 45.3 378.525 45.12 379.173 44.76C379.821 44.4 380.325 43.878 380.685 43.194C381.063 42.51 381.252 41.709 381.252 40.791C381.252 39.855 381.063 39.054 380.685 38.388C380.325 37.704 379.821 37.182 379.173 36.822C378.525 36.462 377.796 36.282 376.986 36.282C376.158 36.282 375.42 36.462 374.772 36.822C374.142 37.182 373.638 37.704 373.26 38.388C372.882 39.054 372.693 39.855 372.693 40.791C372.693 41.709 372.882 42.51 373.26 43.194C373.638 43.878 374.142 44.4 374.772 44.76C375.42 45.12 376.149 45.3 376.959 45.3ZM387.881 48V33.582H391.094V37.551L390.716 36.39C391.148 35.418 391.823 34.68 392.741 34.176C393.677 33.672 394.838 33.42 396.224 33.42V36.633C396.08 36.597 395.945 36.579 395.819 36.579C395.693 36.561 395.567 36.552 395.441 36.552C394.163 36.552 393.146 36.93 392.39 37.686C391.634 38.424 391.256 39.531 391.256 41.007V48H387.881ZM417.285 33.42C418.437 33.42 419.454 33.645 420.336 34.095C421.236 34.545 421.938 35.238 422.442 36.174C422.946 37.092 423.198 38.28 423.198 39.738V48H419.823V40.17C419.823 38.892 419.544 37.938 418.986 37.308C418.428 36.678 417.627 36.363 416.583 36.363C415.845 36.363 415.188 36.525 414.612 36.849C414.054 37.173 413.613 37.65 413.289 38.28C412.983 38.91 412.83 39.711 412.83 40.683V48H409.455V40.17C409.455 38.892 409.176 37.938 408.618 37.308C408.06 36.678 407.259 36.363 406.215 36.363C405.477 36.363 404.82 36.525 404.244 36.849C403.686 37.173 403.245 37.65 402.921 38.28C402.615 38.91 402.462 39.711 402.462 40.683V48H399.087V33.582H402.3V37.416L401.733 36.282C402.219 35.346 402.921 34.635 403.839 34.149C404.775 33.663 405.837 33.42 407.025 33.42C408.375 33.42 409.545 33.753 410.535 34.419C411.543 35.085 412.209 36.093 412.533 37.443L411.21 36.984C411.678 35.904 412.452 35.04 413.532 34.392C414.612 33.744 415.863 33.42 417.285 33.42ZM436.394 48V45.084L436.205 44.463V39.36C436.205 38.37 435.908 37.605 435.314 37.065C434.72 36.507 433.82 36.228 432.614 36.228C431.804 36.228 431.003 36.354 430.211 36.606C429.437 36.858 428.78 37.209 428.24 37.659L426.917 35.202C427.691 34.608 428.609 34.167 429.671 33.879C430.751 33.573 431.867 33.42 433.019 33.42C435.107 33.42 436.718 33.924 437.852 34.932C439.004 35.922 439.58 37.461 439.58 39.549V48H436.394ZM431.858 48.189C430.778 48.189 429.833 48.009 429.023 47.649C428.213 47.271 427.583 46.758 427.133 46.11C426.701 45.444 426.485 44.697 426.485 43.869C426.485 43.059 426.674 42.33 427.052 41.682C427.448 41.034 428.087 40.521 428.969 40.143C429.851 39.765 431.021 39.576 432.479 39.576H436.664V41.817H432.722C431.57 41.817 430.796 42.006 430.4 42.384C430.004 42.744 429.806 43.194 429.806 43.734C429.806 44.346 430.049 44.832 430.535 45.192C431.021 45.552 431.696 45.732 432.56 45.732C433.388 45.732 434.126 45.543 434.774 45.165C435.44 44.787 435.917 44.229 436.205 43.491L436.772 45.516C436.448 46.362 435.863 47.019 435.017 47.487C434.189 47.955 433.136 48.189 431.858 48.189ZM452.092 33.42C453.244 33.42 454.27 33.645 455.17 34.095C456.088 34.545 456.808 35.238 457.33 36.174C457.852 37.092 458.113 38.28 458.113 39.738V48H454.738V40.17C454.738 38.892 454.432 37.938 453.82 37.308C453.226 36.678 452.389 36.363 451.309 36.363C450.517 36.363 449.815 36.525 449.203 36.849C448.591 37.173 448.114 37.659 447.772 38.307C447.448 38.937 447.286 39.738 447.286 40.71V48H443.911V33.582H447.124V37.47L446.557 36.282C447.061 35.364 447.79 34.662 448.744 34.176C449.716 33.672 450.832 33.42 452.092 33.42ZM469.036 48.189C467.524 48.189 466.174 47.874 464.986 47.244C463.816 46.596 462.898 45.714 462.232 44.598C461.566 43.482 461.233 42.213 461.233 40.791C461.233 39.351 461.566 38.082 462.232 36.984C462.898 35.868 463.816 34.995 464.986 34.365C466.174 33.735 467.524 33.42 469.036 33.42C470.44 33.42 471.673 33.708 472.735 34.284C473.815 34.842 474.634 35.67 475.192 36.768L472.6 38.28C472.168 37.596 471.637 37.092 471.007 36.768C470.395 36.444 469.729 36.282 469.009 36.282C468.181 36.282 467.434 36.462 466.768 36.822C466.102 37.182 465.58 37.704 465.202 38.388C464.824 39.054 464.635 39.855 464.635 40.791C464.635 41.727 464.824 42.537 465.202 43.221C465.58 43.887 466.102 44.4 466.768 44.76C467.434 45.12 468.181 45.3 469.009 45.3C469.729 45.3 470.395 45.138 471.007 44.814C471.637 44.49 472.168 43.986 472.6 43.302L475.192 44.814C474.634 45.894 473.815 46.731 472.735 47.325C471.673 47.901 470.44 48.189 469.036 48.189ZM484.676 48.189C483.074 48.189 481.67 47.874 480.464 47.244C479.276 46.596 478.349 45.714 477.683 44.598C477.035 43.482 476.711 42.213 476.711 40.791C476.711 39.351 477.026 38.082 477.656 36.984C478.304 35.868 479.186 34.995 480.302 34.365C481.436 33.735 482.723 33.42 484.163 33.42C485.567 33.42 486.818 33.726 487.916 34.338C489.014 34.95 489.878 35.814 490.508 36.93C491.138 38.046 491.453 39.36 491.453 40.872C491.453 41.016 491.444 41.178 491.426 41.358C491.426 41.538 491.417 41.709 491.399 41.871H479.384V39.63H489.617L488.294 40.332C488.312 39.504 488.141 38.775 487.781 38.145C487.421 37.515 486.926 37.02 486.296 36.66C485.684 36.3 484.973 36.12 484.163 36.12C483.335 36.12 482.606 36.3 481.976 36.66C481.364 37.02 480.878 37.524 480.518 38.172C480.176 38.802 480.005 39.549 480.005 40.413V40.953C480.005 41.817 480.203 42.582 480.599 43.248C480.995 43.914 481.553 44.427 482.273 44.787C482.993 45.147 483.821 45.327 484.757 45.327C485.567 45.327 486.296 45.201 486.944 44.949C487.592 44.697 488.168 44.301 488.672 43.761L490.481 45.84C489.833 46.596 489.014 47.181 488.024 47.595C487.052 47.991 485.936 48.189 484.676 48.189ZM499.807 48L508.312 29.1H511.768L520.3 48H516.628L509.311 30.963H510.715L503.425 48H499.807ZM503.722 43.626L504.667 40.872H514.873L515.818 43.626H503.722ZM530.561 33.42C531.713 33.42 532.739 33.645 533.639 34.095C534.557 34.545 535.277 35.238 535.799 36.174C536.321 37.092 536.582 38.28 536.582 39.738V48H533.207V40.17C533.207 38.892 532.901 37.938 532.289 37.308C531.695 36.678 530.858 36.363 529.778 36.363C528.986 36.363 528.284 36.525 527.672 36.849C527.06 37.173 526.583 37.659 526.241 38.307C525.917 38.937 525.755 39.738 525.755 40.71V48H522.38V33.582H525.593V37.47L525.026 36.282C525.53 35.364 526.259 34.662 527.213 34.176C528.185 33.672 529.301 33.42 530.561 33.42ZM549.746 48V45.084L549.557 44.463V39.36C549.557 38.37 549.26 37.605 548.666 37.065C548.072 36.507 547.172 36.228 545.966 36.228C545.156 36.228 544.355 36.354 543.563 36.606C542.789 36.858 542.132 37.209 541.592 37.659L540.269 35.202C541.043 34.608 541.961 34.167 543.023 33.879C544.103 33.573 545.219 33.42 546.371 33.42C548.459 33.42 550.07 33.924 551.204 34.932C552.356 35.922 552.932 37.461 552.932 39.549V48H549.746ZM545.21 48.189C544.13 48.189 543.185 48.009 542.375 47.649C541.565 47.271 540.935 46.758 540.485 46.11C540.053 45.444 539.837 44.697 539.837 43.869C539.837 43.059 540.026 42.33 540.404 41.682C540.8 41.034 541.439 40.521 542.321 40.143C543.203 39.765 544.373 39.576 545.831 39.576H550.016V41.817H546.074C544.922 41.817 544.148 42.006 543.752 42.384C543.356 42.744 543.158 43.194 543.158 43.734C543.158 44.346 543.401 44.832 543.887 45.192C544.373 45.552 545.048 45.732 545.912 45.732C546.74 45.732 547.478 45.543 548.126 45.165C548.792 44.787 549.269 44.229 549.557 43.491L550.124 45.516C549.8 46.362 549.215 47.019 548.369 47.487C547.541 47.955 546.488 48.189 545.21 48.189ZM557.264 48V27.966H560.639V48H557.264ZM566.256 53.427C565.554 53.427 564.852 53.31 564.15 53.076C563.448 52.842 562.863 52.518 562.395 52.104L563.745 49.62C564.087 49.926 564.474 50.169 564.906 50.349C565.338 50.529 565.779 50.619 566.229 50.619C566.841 50.619 567.336 50.466 567.714 50.16C568.092 49.854 568.443 49.341 568.767 48.621L569.604 46.731L569.874 46.326L575.328 33.582H578.568L571.818 49.161C571.368 50.241 570.864 51.096 570.306 51.726C569.766 52.356 569.154 52.797 568.47 53.049C567.804 53.301 567.066 53.427 566.256 53.427ZM569.226 48.513L562.719 33.582H566.229L571.521 46.029L569.226 48.513ZM584.948 48.189C583.742 48.189 582.581 48.036 581.465 47.73C580.367 47.406 579.494 47.019 578.846 46.569L580.142 44.004C580.79 44.418 581.564 44.76 582.464 45.03C583.364 45.3 584.264 45.435 585.164 45.435C586.226 45.435 586.991 45.291 587.459 45.003C587.945 44.715 588.188 44.328 588.188 43.842C588.188 43.446 588.026 43.149 587.702 42.951C587.378 42.735 586.955 42.573 586.433 42.465C585.911 42.357 585.326 42.258 584.678 42.168C584.048 42.078 583.409 41.961 582.761 41.817C582.131 41.655 581.555 41.43 581.033 41.142C580.511 40.836 580.088 40.431 579.764 39.927C579.44 39.423 579.278 38.757 579.278 37.929C579.278 37.011 579.539 36.219 580.061 35.553C580.583 34.869 581.312 34.347 582.248 33.987C583.202 33.609 584.327 33.42 585.623 33.42C586.595 33.42 587.576 33.528 588.566 33.744C589.556 33.96 590.375 34.266 591.023 34.662L589.727 37.227C589.043 36.813 588.35 36.534 587.648 36.39C586.964 36.228 586.28 36.147 585.596 36.147C584.57 36.147 583.805 36.3 583.301 36.606C582.815 36.912 582.572 37.299 582.572 37.767C582.572 38.199 582.734 38.523 583.058 38.739C583.382 38.955 583.805 39.126 584.327 39.252C584.849 39.378 585.425 39.486 586.055 39.576C586.703 39.648 587.342 39.765 587.972 39.927C588.602 40.089 589.178 40.314 589.7 40.602C590.24 40.872 590.672 41.259 590.996 41.763C591.32 42.267 591.482 42.924 591.482 43.734C591.482 44.634 591.212 45.417 590.672 46.083C590.15 46.749 589.403 47.271 588.431 47.649C587.459 48.009 586.298 48.189 584.948 48.189ZM594.389 48V33.582H597.764V48H594.389ZM596.09 31.206C595.46 31.206 594.938 31.008 594.524 30.612C594.128 30.216 593.93 29.739 593.93 29.181C593.93 28.605 594.128 28.128 594.524 27.75C594.938 27.354 595.46 27.156 596.09 27.156C596.72 27.156 597.233 27.345 597.629 27.723C598.043 28.083 598.25 28.542 598.25 29.1C598.25 29.694 598.052 30.198 597.656 30.612C597.26 31.008 596.738 31.206 596.09 31.206ZM606.648 48.189C605.442 48.189 604.281 48.036 603.165 47.73C602.067 47.406 601.194 47.019 600.546 46.569L601.842 44.004C602.49 44.418 603.264 44.76 604.164 45.03C605.064 45.3 605.964 45.435 606.864 45.435C607.926 45.435 608.691 45.291 609.159 45.003C609.645 44.715 609.888 44.328 609.888 43.842C609.888 43.446 609.726 43.149 609.402 42.951C609.078 42.735 608.655 42.573 608.133 42.465C607.611 42.357 607.026 42.258 606.378 42.168C605.748 42.078 605.109 41.961 604.461 41.817C603.831 41.655 603.255 41.43 602.733 41.142C602.211 40.836 601.788 40.431 601.464 39.927C601.14 39.423 600.978 38.757 600.978 37.929C600.978 37.011 601.239 36.219 601.761 35.553C602.283 34.869 603.012 34.347 603.948 33.987C604.902 33.609 606.027 33.42 607.323 33.42C608.295 33.42 609.276 33.528 610.266 33.744C611.256 33.96 612.075 34.266 612.723 34.662L611.427 37.227C610.743 36.813 610.05 36.534 609.348 36.39C608.664 36.228 607.98 36.147 607.296 36.147C606.27 36.147 605.505 36.3 605.001 36.606C604.515 36.912 604.272 37.299 604.272 37.767C604.272 38.199 604.434 38.523 604.758 38.739C605.082 38.955 605.505 39.126 606.027 39.252C606.549 39.378 607.125 39.486 607.755 39.576C608.403 39.648 609.042 39.765 609.672 39.927C610.302 40.089 610.878 40.314 611.4 40.602C611.94 40.872 612.372 41.259 612.696 41.763C613.02 42.267 613.182 42.924 613.182 43.734C613.182 44.634 612.912 45.417 612.372 46.083C611.85 46.749 611.103 47.271 610.131 47.649C609.159 48.009 607.998 48.189 606.648 48.189ZM36.02 72L29.9 58H32.72L38.18 70.66H36.56L42.08 58H44.68L38.58 72H36.02ZM51.6966 72V69.84L51.5566 69.38V65.6C51.5566 64.8667 51.3366 64.3 50.8966 63.9C50.4566 63.4867 49.7899 63.28 48.8966 63.28C48.2966 63.28 47.7032 63.3733 47.1166 63.56C46.5432 63.7467 46.0566 64.0067 45.6566 64.34L44.6766 62.52C45.2499 62.08 45.9299 61.7533 46.7166 61.54C47.5166 61.3133 48.3432 61.2 49.1966 61.2C50.7432 61.2 51.9366 61.5733 52.7766 62.32C53.6299 63.0533 54.0566 64.1933 54.0566 65.74V72H51.6966ZM48.3366 72.14C47.5366 72.14 46.8366 72.0067 46.2366 71.74C45.6366 71.46 45.1699 71.08 44.8366 70.6C44.5166 70.1067 44.3566 69.5533 44.3566 68.94C44.3566 68.34 44.4966 67.8 44.7766 67.32C45.0699 66.84 45.5432 66.46 46.1966 66.18C46.8499 65.9 47.7166 65.76 48.7966 65.76H51.8966V67.42H48.9766C48.1232 67.42 47.5499 67.56 47.2566 67.84C46.9632 68.1067 46.8166 68.44 46.8166 68.84C46.8166 69.2933 46.9966 69.6533 47.3566 69.92C47.7166 70.1867 48.2166 70.32 48.8566 70.32C49.4699 70.32 50.0166 70.18 50.4966 69.9C50.9899 69.62 51.3432 69.2067 51.5566 68.66L51.9766 70.16C51.7366 70.7867 51.3032 71.2733 50.6766 71.62C50.0632 71.9667 49.2832 72.14 48.3366 72.14ZM57.265 72V61.32H59.645V64.26L59.365 63.4C59.685 62.68 60.185 62.1333 60.865 61.76C61.5583 61.3867 62.4183 61.2 63.445 61.2V63.58C63.3383 63.5533 63.2383 63.54 63.145 63.54C63.0517 63.5267 62.9583 63.52 62.865 63.52C61.9183 63.52 61.165 63.8 60.605 64.36C60.045 64.9067 59.765 65.7267 59.765 66.82V72H57.265ZM65.5658 72V61.32H68.0658V72H65.5658ZM66.8258 59.56C66.3591 59.56 65.9724 59.4133 65.6658 59.12C65.3724 58.8267 65.2258 58.4733 65.2258 58.06C65.2258 57.6333 65.3724 57.28 65.6658 57C65.9724 56.7067 66.3591 56.56 66.8258 56.56C67.2924 56.56 67.6724 56.7 67.9658 56.98C68.2724 57.2467 68.4258 57.5867 68.4258 58C68.4258 58.44 68.2791 58.8133 67.9858 59.12C67.6924 59.4133 67.3058 59.56 66.8258 59.56ZM77.927 72V69.84L77.787 69.38V65.6C77.787 64.8667 77.567 64.3 77.127 63.9C76.687 63.4867 76.0204 63.28 75.127 63.28C74.527 63.28 73.9337 63.3733 73.347 63.56C72.7737 63.7467 72.287 64.0067 71.887 64.34L70.907 62.52C71.4804 62.08 72.1604 61.7533 72.947 61.54C73.747 61.3133 74.5737 61.2 75.427 61.2C76.9737 61.2 78.167 61.5733 79.007 62.32C79.8604 63.0533 80.287 64.1933 80.287 65.74V72H77.927ZM74.567 72.14C73.767 72.14 73.067 72.0067 72.467 71.74C71.867 71.46 71.4004 71.08 71.067 70.6C70.747 70.1067 70.587 69.5533 70.587 68.94C70.587 68.34 70.727 67.8 71.007 67.32C71.3004 66.84 71.7737 66.46 72.427 66.18C73.0804 65.9 73.947 65.76 75.027 65.76H78.127V67.42H75.207C74.3537 67.42 73.7804 67.56 73.487 67.84C73.1937 68.1067 73.047 68.44 73.047 68.84C73.047 69.2933 73.227 69.6533 73.587 69.92C73.947 70.1867 74.447 70.32 75.087 70.32C75.7004 70.32 76.247 70.18 76.727 69.9C77.2204 69.62 77.5737 69.2067 77.787 68.66L78.207 70.16C77.967 70.7867 77.5337 71.2733 76.907 71.62C76.2937 71.9667 75.5137 72.14 74.567 72.14ZM89.5555 61.2C90.4088 61.2 91.1688 61.3667 91.8355 61.7C92.5155 62.0333 93.0488 62.5467 93.4355 63.24C93.8221 63.92 94.0155 64.8 94.0155 65.88V72H91.5155V66.2C91.5155 65.2533 91.2888 64.5467 90.8355 64.08C90.3955 63.6133 89.7755 63.38 88.9755 63.38C88.3888 63.38 87.8688 63.5 87.4155 63.74C86.9621 63.98 86.6088 64.34 86.3555 64.82C86.1155 65.2867 85.9955 65.88 85.9955 66.6V72H83.4955V61.32H85.8755V64.2L85.4555 63.32C85.8288 62.64 86.3688 62.12 87.0755 61.76C87.7955 61.3867 88.6221 61.2 89.5555 61.2ZM102.106 72.14C100.986 72.14 99.9864 71.9067 99.1064 71.44C98.2397 70.96 97.5597 70.3067 97.0664 69.48C96.5731 68.6533 96.3264 67.7133 96.3264 66.66C96.3264 65.5933 96.5731 64.6533 97.0664 63.84C97.5597 63.0133 98.2397 62.3667 99.1064 61.9C99.9864 61.4333 100.986 61.2 102.106 61.2C103.146 61.2 104.06 61.4133 104.846 61.84C105.646 62.2533 106.253 62.8667 106.666 63.68L104.746 64.8C104.426 64.2933 104.033 63.92 103.566 63.68C103.113 63.44 102.62 63.32 102.086 63.32C101.473 63.32 100.92 63.4533 100.426 63.72C99.9331 63.9867 99.5464 64.3733 99.2664 64.88C98.9864 65.3733 98.8464 65.9667 98.8464 66.66C98.8464 67.3533 98.9864 67.9533 99.2664 68.46C99.5464 68.9533 99.9331 69.3333 100.426 69.6C100.92 69.8667 101.473 70 102.086 70C102.62 70 103.113 69.88 103.566 69.64C104.033 69.4 104.426 69.0267 104.746 68.52L106.666 69.64C106.253 70.44 105.646 71.06 104.846 71.5C104.06 71.9267 103.146 72.14 102.106 72.14ZM113.691 72.14C112.505 72.14 111.465 71.9067 110.571 71.44C109.691 70.96 109.005 70.3067 108.511 69.48C108.031 68.6533 107.791 67.7133 107.791 66.66C107.791 65.5933 108.025 64.6533 108.491 63.84C108.971 63.0133 109.625 62.3667 110.451 61.9C111.291 61.4333 112.245 61.2 113.311 61.2C114.351 61.2 115.278 61.4267 116.091 61.88C116.905 62.3333 117.545 62.9733 118.011 63.8C118.478 64.6267 118.711 65.6 118.711 66.72C118.711 66.8267 118.705 66.9467 118.691 67.08C118.691 67.2133 118.685 67.34 118.671 67.46H109.771V65.8H117.351L116.371 66.32C116.385 65.7067 116.258 65.1667 115.991 64.7C115.725 64.2333 115.358 63.8667 114.891 63.6C114.438 63.3333 113.911 63.2 113.311 63.2C112.698 63.2 112.158 63.3333 111.691 63.6C111.238 63.8667 110.878 64.24 110.611 64.72C110.358 65.1867 110.231 65.74 110.231 66.38V66.78C110.231 67.42 110.378 67.9867 110.671 68.48C110.965 68.9733 111.378 69.3533 111.911 69.62C112.445 69.8867 113.058 70.02 113.751 70.02C114.351 70.02 114.891 69.9267 115.371 69.74C115.851 69.5533 116.278 69.26 116.651 68.86L117.991 70.4C117.511 70.96 116.905 71.3933 116.171 71.7C115.451 71.9933 114.625 72.14 113.691 72.14ZM124.9 72L131.2 58H133.76L140.08 72H137.36L131.94 59.38H132.98L127.58 72H124.9ZM127.8 68.76L128.5 66.72H136.06L136.76 68.76H127.8ZM147.68 61.2C148.534 61.2 149.294 61.3667 149.96 61.7C150.64 62.0333 151.174 62.5467 151.56 63.24C151.947 63.92 152.14 64.8 152.14 65.88V72H149.64V66.2C149.64 65.2533 149.414 64.5467 148.96 64.08C148.52 63.6133 147.9 63.38 147.1 63.38C146.514 63.38 145.994 63.5 145.54 63.74C145.087 63.98 144.734 64.34 144.48 64.82C144.24 65.2867 144.12 65.88 144.12 66.6V72H141.62V61.32H144V64.2L143.58 63.32C143.954 62.64 144.494 62.12 145.2 61.76C145.92 61.3867 146.747 61.2 147.68 61.2ZM161.892 72V69.84L161.752 69.38V65.6C161.752 64.8667 161.532 64.3 161.092 63.9C160.652 63.4867 159.985 63.28 159.092 63.28C158.492 63.28 157.899 63.3733 157.312 63.56C156.739 63.7467 156.252 64.0067 155.852 64.34L154.872 62.52C155.445 62.08 156.125 61.7533 156.912 61.54C157.712 61.3133 158.539 61.2 159.392 61.2C160.939 61.2 162.132 61.5733 162.972 62.32C163.825 63.0533 164.252 64.1933 164.252 65.74V72H161.892ZM158.532 72.14C157.732 72.14 157.032 72.0067 156.432 71.74C155.832 71.46 155.365 71.08 155.032 70.6C154.712 70.1067 154.552 69.5533 154.552 68.94C154.552 68.34 154.692 67.8 154.972 67.32C155.265 66.84 155.739 66.46 156.392 66.18C157.045 65.9 157.912 65.76 158.992 65.76H162.092V67.42H159.172C158.319 67.42 157.745 67.56 157.452 67.84C157.159 68.1067 157.012 68.44 157.012 68.84C157.012 69.2933 157.192 69.6533 157.552 69.92C157.912 70.1867 158.412 70.32 159.052 70.32C159.665 70.32 160.212 70.18 160.692 69.9C161.185 69.62 161.539 69.2067 161.752 68.66L162.172 70.16C161.932 70.7867 161.499 71.2733 160.872 71.62C160.259 71.9667 159.479 72.14 158.532 72.14ZM167.46 72V57.16H169.96V72H167.46ZM174.122 76.02C173.602 76.02 173.082 75.9333 172.562 75.76C172.042 75.5867 171.608 75.3467 171.262 75.04L172.262 73.2C172.515 73.4267 172.802 73.6067 173.122 73.74C173.442 73.8733 173.768 73.94 174.102 73.94C174.555 73.94 174.922 73.8267 175.202 73.6C175.482 73.3733 175.742 72.9933 175.982 72.46L176.602 71.06L176.802 70.76L180.842 61.32H183.242L178.242 72.86C177.908 73.66 177.535 74.2933 177.122 74.76C176.722 75.2267 176.268 75.5533 175.762 75.74C175.268 75.9267 174.722 76.02 174.122 76.02ZM176.322 72.38L171.502 61.32H174.102L178.022 70.54L176.322 72.38ZM187.967 72.14C187.074 72.14 186.214 72.0267 185.387 71.8C184.574 71.56 183.927 71.2733 183.447 70.94L184.407 69.04C184.887 69.3467 185.461 69.6 186.127 69.8C186.794 70 187.461 70.1 188.127 70.1C188.914 70.1 189.481 69.9933 189.827 69.78C190.187 69.5667 190.367 69.28 190.367 68.92C190.367 68.6267 190.247 68.4067 190.007 68.26C189.767 68.1 189.454 67.98 189.067 67.9C188.681 67.82 188.247 67.7467 187.767 67.68C187.301 67.6133 186.827 67.5267 186.347 67.42C185.881 67.3 185.454 67.1333 185.067 66.92C184.681 66.6933 184.367 66.3933 184.127 66.02C183.887 65.6467 183.767 65.1533 183.767 64.54C183.767 63.86 183.961 63.2733 184.347 62.78C184.734 62.2733 185.274 61.8867 185.967 61.62C186.674 61.34 187.507 61.2 188.467 61.2C189.187 61.2 189.914 61.28 190.647 61.44C191.381 61.6 191.987 61.8267 192.467 62.12L191.507 64.02C191.001 63.7133 190.487 63.5067 189.967 63.4C189.461 63.28 188.954 63.22 188.447 63.22C187.687 63.22 187.121 63.3333 186.747 63.56C186.387 63.7867 186.207 64.0733 186.207 64.42C186.207 64.74 186.327 64.98 186.567 65.14C186.807 65.3 187.121 65.4267 187.507 65.52C187.894 65.6133 188.321 65.6933 188.787 65.76C189.267 65.8133 189.741 65.9 190.207 66.02C190.674 66.14 191.101 66.3067 191.487 66.52C191.887 66.72 192.207 67.0067 192.447 67.38C192.687 67.7533 192.807 68.24 192.807 68.84C192.807 69.5067 192.607 70.0867 192.207 70.58C191.821 71.0733 191.267 71.46 190.547 71.74C189.827 72.0067 188.967 72.14 187.967 72.14ZM194.96 72V61.32H197.46V72H194.96ZM196.22 59.56C195.754 59.56 195.367 59.4133 195.06 59.12C194.767 58.8267 194.62 58.4733 194.62 58.06C194.62 57.6333 194.767 57.28 195.06 57C195.367 56.7067 195.754 56.56 196.22 56.56C196.687 56.56 197.067 56.7 197.36 56.98C197.667 57.2467 197.82 57.5867 197.82 58C197.82 58.44 197.674 58.8133 197.38 59.12C197.087 59.4133 196.7 59.56 196.22 59.56ZM204.042 72.14C203.148 72.14 202.288 72.0267 201.462 71.8C200.648 71.56 200.002 71.2733 199.522 70.94L200.482 69.04C200.962 69.3467 201.535 69.6 202.202 69.8C202.868 70 203.535 70.1 204.202 70.1C204.988 70.1 205.555 69.9933 205.902 69.78C206.262 69.5667 206.442 69.28 206.442 68.92C206.442 68.6267 206.322 68.4067 206.082 68.26C205.842 68.1 205.528 67.98 205.142 67.9C204.755 67.82 204.322 67.7467 203.842 67.68C203.375 67.6133 202.902 67.5267 202.422 67.42C201.955 67.3 201.528 67.1333 201.142 66.92C200.755 66.6933 200.442 66.3933 200.202 66.02C199.962 65.6467 199.842 65.1533 199.842 64.54C199.842 63.86 200.035 63.2733 200.422 62.78C200.808 62.2733 201.348 61.8867 202.042 61.62C202.748 61.34 203.582 61.2 204.542 61.2C205.262 61.2 205.988 61.28 206.722 61.44C207.455 61.6 208.062 61.8267 208.542 62.12L207.582 64.02C207.075 63.7133 206.562 63.5067 206.042 63.4C205.535 63.28 205.028 63.22 204.522 63.22C203.762 63.22 203.195 63.3333 202.822 63.56C202.462 63.7867 202.282 64.0733 202.282 64.42C202.282 64.74 202.402 64.98 202.642 65.14C202.882 65.3 203.195 65.4267 203.582 65.52C203.968 65.6133 204.395 65.6933 204.862 65.76C205.342 65.8133 205.815 65.9 206.282 66.02C206.748 66.14 207.175 66.3067 207.562 66.52C207.962 66.72 208.282 67.0067 208.522 67.38C208.762 67.7533 208.882 68.24 208.882 68.84C208.882 69.5067 208.682 70.0867 208.282 70.58C207.895 71.0733 207.342 71.46 206.622 71.74C205.902 72.0067 205.042 72.14 204.042 72.14Z" fill="white"/>
</g>
<defs>
<linearGradient id="paint0_linear_46_2" x1="112.5" y1="124" x2="112.5" y2="1054" gradientUnits="userSpaceOnUse">
<stop stop-color="#444648"/>
<stop offset="1" stop-color="#FF943A"/>
</linearGradient>
<linearGradient id="paint1_linear_46_2" x1="268" y1="142.345" x2="441.706" y2="325.575" gradientUnits="userSpaceOnUse">
<stop offset="0.201923" stop-color="#444648"/>
<stop offset="1" stop-color="#F6903A"/>
</linearGradient>
<linearGradient id="paint2_linear_46_2" x1="527" y1="146.463" x2="724.372" y2="330.343" gradientUnits="userSpaceOnUse">
<stop offset="0.2" stop-color="#444648"/>
<stop offset="1" stop-color="#F7903A"/>
</linearGradient>
<linearGradient id="paint3_linear_46_2" x1="1651" y1="124" x2="1839.68" y2="330.263" gradientUnits="userSpaceOnUse">
<stop offset="0.2" stop-color="#444648"/>
<stop offset="1" stop-color="#F6903A"/>
</linearGradient>
<linearGradient id="paint4_linear_46_2" x1="1393.5" y1="138.227" x2="1564.24" y2="325.116" gradientUnits="userSpaceOnUse">
<stop offset="0.2" stop-color="#444648"/>
<stop offset="1" stop-color="#F9913A"/>
</linearGradient>
<linearGradient id="paint5_linear_46_2" x1="1089" y1="124" x2="1277.68" y2="330.263" gradientUnits="userSpaceOnUse">
<stop offset="0.2" stop-color="#434547"/>
<stop offset="1" stop-color="#F7903B"/>
</linearGradient>
<linearGradient id="paint6_linear_46_2" x1="808" y1="124" x2="996.68" y2="330.263" gradientUnits="userSpaceOnUse">
<stop offset="0.2" stop-color="#444648"/>
<stop offset="1" stop-color="#FA923A"/>
</linearGradient>
<clipPath id="clip0_46_2">
<rect width="1920" height="1080" fill="white"/>
</clipPath>
</defs>
</svg>
