<svg width="1920" height="1080" viewBox="0 0 1920 1080" fill="none" xmlns="http://www.w3.org/2000/svg">
<g clip-path="url(#clip0_35_98)">
<rect width="1920" height="1080" fill="white"/>
<rect width="1920" height="1080" rx="20" fill="#444648"/>
<circle cx="1707.5" cy="39.5" r="18.5" fill="#1D1F21" fill-opacity="0.5"/>
<circle cx="1707.5" cy="39.5" r="13.5" fill="#FF6600"/>
<path d="M1742.78 47.043C1742.64 47.8685 1742.37 48.5859 1741.98 49.1953C1741.59 49.8047 1741.11 50.276 1740.54 50.6094C1739.97 50.9427 1739.35 51.1094 1738.69 51.1094C1738 51.1094 1737.42 50.9388 1736.95 50.5977C1736.48 50.2539 1736.15 49.7721 1735.96 49.1523C1735.76 48.5299 1735.73 47.7982 1735.87 46.957C1736.01 46.1315 1736.27 45.4141 1736.67 44.8047C1737.06 44.1953 1737.54 43.724 1738.11 43.3906C1738.68 43.0573 1739.3 42.8906 1739.97 42.8906C1740.65 42.8906 1741.22 43.0612 1741.69 43.4023C1742.16 43.7435 1742.49 44.2253 1742.69 44.8477C1742.89 45.4674 1742.92 46.1992 1742.78 47.043ZM1742.08 46.957C1742.2 46.2435 1742.18 45.6354 1742.03 45.1328C1741.88 44.6302 1741.63 44.2461 1741.27 43.9805C1740.9 43.7122 1740.46 43.5781 1739.95 43.5781C1739.42 43.5781 1738.91 43.7161 1738.45 43.9922C1737.98 44.2656 1737.58 44.6615 1737.25 45.1797C1736.92 45.6953 1736.69 46.3164 1736.57 47.043C1736.45 47.7539 1736.46 48.362 1736.61 48.8672C1736.76 49.3698 1737.02 49.7552 1737.38 50.0234C1737.74 50.2891 1738.18 50.4219 1738.7 50.4219C1739.24 50.4219 1739.74 50.2839 1740.21 50.0078C1740.68 49.7318 1741.08 49.3359 1741.41 48.8203C1741.74 48.3021 1741.96 47.681 1742.08 46.957ZM1745.06 47.25L1744.44 51H1743.74L1744.74 45H1745.42L1745.26 45.9414H1745.33C1745.51 45.6341 1745.77 45.388 1746.1 45.2031C1746.44 45.0156 1746.82 44.9219 1747.26 44.9219C1747.66 44.9219 1748 45.0065 1748.28 45.1758C1748.56 45.3424 1748.75 45.5885 1748.87 45.9141C1748.99 46.2396 1749.01 46.6393 1748.93 47.1133L1748.28 51H1747.59L1748.23 47.1562C1748.31 46.6667 1748.24 46.2786 1748.01 45.9922C1747.79 45.7031 1747.45 45.5586 1746.99 45.5586C1746.67 45.5586 1746.38 45.6263 1746.11 45.7617C1745.84 45.8971 1745.61 46.0924 1745.43 46.3477C1745.24 46.6003 1745.12 46.901 1745.06 47.25ZM1752.14 43L1750.81 51H1750.11L1751.44 43H1752.14ZM1752.66 51L1753.66 45H1754.36L1753.36 51H1752.66ZM1754.26 43.957C1754.11 43.957 1753.99 43.9076 1753.89 43.8086C1753.79 43.7096 1753.74 43.5898 1753.74 43.4492C1753.75 43.3164 1753.8 43.2018 1753.9 43.1055C1754.01 43.0065 1754.13 42.957 1754.27 42.957C1754.42 42.957 1754.54 43.0078 1754.64 43.1094C1754.74 43.2083 1754.79 43.3281 1754.79 43.4687C1754.78 43.6016 1754.73 43.7161 1754.63 43.8125C1754.52 43.9089 1754.4 43.957 1754.26 43.957ZM1756.51 47.25L1755.89 51H1755.19L1756.19 45H1756.87L1756.71 45.9414H1756.78C1756.96 45.6341 1757.22 45.388 1757.55 45.2031C1757.89 45.0156 1758.27 44.9219 1758.71 44.9219C1759.11 44.9219 1759.45 45.0065 1759.73 45.1758C1760.01 45.3424 1760.21 45.5885 1760.32 45.9141C1760.44 46.2396 1760.46 46.6393 1760.39 47.1133L1759.73 51H1759.04L1759.68 47.1562C1759.76 46.6667 1759.69 46.2786 1759.46 45.9922C1759.24 45.7031 1758.9 45.5586 1758.44 45.5586C1758.12 45.5586 1757.83 45.6263 1757.56 45.7617C1757.29 45.8971 1757.06 46.0924 1756.88 46.3477C1756.69 46.6003 1756.57 46.901 1756.51 47.25ZM1763.97 51.125C1763.41 51.125 1762.95 50.9948 1762.59 50.7344C1762.22 50.4714 1761.97 50.1081 1761.82 49.6445C1761.68 49.1784 1761.65 48.6419 1761.76 48.0352C1761.86 47.431 1762.06 46.8945 1762.36 46.4258C1762.66 45.9544 1763.03 45.5859 1763.47 45.3203C1763.91 45.0521 1764.38 44.918 1764.9 44.918C1765.23 44.918 1765.53 44.9779 1765.81 45.0977C1766.1 45.2148 1766.34 45.3958 1766.54 45.6406C1766.74 45.8828 1766.88 46.1888 1766.96 46.5586C1767.03 46.9258 1767.03 47.3607 1766.95 47.8633L1766.89 48.207H1762.21L1762.3 47.5937H1766.28C1766.35 47.2083 1766.33 46.862 1766.23 46.5547C1766.13 46.2474 1765.95 46.0039 1765.71 45.8242C1765.47 45.6419 1765.17 45.5508 1764.81 45.5508C1764.44 45.5508 1764.09 45.6536 1763.76 45.8594C1763.44 46.0651 1763.16 46.3333 1762.94 46.6641C1762.71 46.9922 1762.57 47.3424 1762.5 47.7148L1762.42 48.1758C1762.34 48.6836 1762.35 49.1094 1762.46 49.4531C1762.56 49.7943 1762.75 50.0521 1763.02 50.2266C1763.29 50.401 1763.65 50.4883 1764.07 50.4883C1764.36 50.4883 1764.62 50.444 1764.85 50.3555C1765.08 50.2669 1765.28 50.1484 1765.46 50C1765.63 49.849 1765.76 49.6836 1765.87 49.5039L1766.49 49.7187C1766.36 49.9714 1766.17 50.2044 1765.93 50.418C1765.69 50.6315 1765.4 50.8034 1765.07 50.9336C1764.74 51.0612 1764.38 51.125 1763.97 51.125Z" fill="white"/>
<path d="M1736 35V25.9091H1737.37V29.8597H1741.9V25.9091H1743.28V35H1741.9V31.036H1737.37V35H1736ZM1748.11 35.1376C1747.44 35.1376 1746.86 34.9941 1746.37 34.707C1745.89 34.417 1745.52 34.0101 1745.25 33.4863C1744.99 32.9596 1744.86 32.3426 1744.86 31.6353C1744.86 30.9369 1744.99 30.3214 1745.25 29.7887C1745.52 29.256 1745.88 28.8403 1746.35 28.5414C1746.83 28.2425 1747.38 28.093 1748.01 28.093C1748.4 28.093 1748.77 28.1567 1749.13 28.2839C1749.49 28.4112 1749.82 28.6109 1750.11 28.8832C1750.39 29.1554 1750.62 29.5091 1750.78 29.9441C1750.95 30.3761 1751.03 30.9014 1751.03 31.5199V31.9904H1745.61V30.9961H1749.73C1749.73 30.6469 1749.66 30.3377 1749.52 30.0684C1749.38 29.7961 1749.18 29.5816 1748.92 29.4247C1748.67 29.2679 1748.37 29.1895 1748.02 29.1895C1747.65 29.1895 1747.33 29.2812 1747.05 29.4647C1746.77 29.6452 1746.56 29.8819 1746.41 30.1749C1746.26 30.4649 1746.19 30.7801 1746.19 31.1204V31.8972C1746.19 32.3529 1746.27 32.7406 1746.43 33.0602C1746.59 33.3798 1746.81 33.6239 1747.1 33.7926C1747.39 33.9583 1747.73 34.0412 1748.12 34.0412C1748.37 34.0412 1748.6 34.0057 1748.81 33.9347C1749.02 33.8607 1749.2 33.7512 1749.35 33.6062C1749.5 33.4612 1749.61 33.2821 1749.69 33.0691L1750.95 33.2955C1750.85 33.6654 1750.67 33.9894 1750.41 34.2676C1750.15 34.5428 1749.83 34.7573 1749.44 34.9112C1749.05 35.0621 1748.61 35.1376 1748.11 35.1376ZM1753.83 25.9091V35H1752.51V25.9091H1753.83ZM1756.95 25.9091V35H1755.62V25.9091H1756.95ZM1761.6 35.1376C1760.96 35.1376 1760.41 34.9911 1759.93 34.6982C1759.45 34.4052 1759.08 33.9953 1758.82 33.4686C1758.56 32.9418 1758.43 32.3263 1758.43 31.622C1758.43 30.9147 1758.56 30.2962 1758.82 29.7665C1759.08 29.2368 1759.45 28.8255 1759.93 28.5325C1760.41 28.2395 1760.96 28.093 1761.6 28.093C1762.24 28.093 1762.8 28.2395 1763.28 28.5325C1763.75 28.8255 1764.12 29.2368 1764.39 29.7665C1764.65 30.2962 1764.78 30.9147 1764.78 31.622C1764.78 32.3263 1764.65 32.9418 1764.39 33.4686C1764.12 33.9953 1763.75 34.4052 1763.28 34.6982C1762.8 34.9911 1762.24 35.1376 1761.6 35.1376ZM1761.61 34.0234C1762.02 34.0234 1762.37 33.9139 1762.64 33.695C1762.91 33.476 1763.11 33.1845 1763.24 32.8205C1763.37 32.4565 1763.44 32.0555 1763.44 31.6175C1763.44 31.1825 1763.37 30.783 1763.24 30.419C1763.11 30.0521 1762.91 29.7576 1762.64 29.5357C1762.37 29.3137 1762.02 29.2028 1761.61 29.2028C1761.19 29.2028 1760.84 29.3137 1760.57 29.5357C1760.3 29.7576 1760.09 30.0521 1759.96 30.419C1759.83 30.783 1759.77 31.1825 1759.77 31.6175C1759.77 32.0555 1759.83 32.4565 1759.96 32.8205C1760.09 33.1845 1760.3 33.476 1760.57 33.695C1760.84 33.9139 1761.19 34.0234 1761.61 34.0234ZM1774.64 28.2972C1774.59 27.877 1774.39 27.5515 1774.05 27.3207C1773.71 27.0869 1773.27 26.97 1772.75 26.97C1772.38 26.97 1772.06 27.0292 1771.79 27.1475C1771.51 27.263 1771.3 27.4228 1771.15 27.627C1771 27.8282 1770.93 28.0575 1770.93 28.315C1770.93 28.531 1770.98 28.7174 1771.08 28.8743C1771.18 29.0311 1771.32 29.1628 1771.48 29.2694C1771.65 29.3729 1771.83 29.4602 1772.03 29.5312C1772.22 29.5993 1772.4 29.6555 1772.58 29.6999L1773.47 29.9308C1773.76 30.0018 1774.06 30.098 1774.36 30.2193C1774.67 30.3406 1774.95 30.5004 1775.21 30.6987C1775.47 30.897 1775.68 31.1426 1775.84 31.4355C1776 31.7285 1776.08 32.0792 1776.08 32.4876C1776.08 33.0025 1775.95 33.4597 1775.68 33.8592C1775.42 34.2587 1775.04 34.5739 1774.53 34.8047C1774.03 35.0355 1773.43 35.1509 1772.72 35.1509C1772.04 35.1509 1771.45 35.0429 1770.95 34.8269C1770.45 34.6109 1770.07 34.3046 1769.78 33.908C1769.5 33.5085 1769.35 33.035 1769.32 32.4876H1770.69C1770.72 32.8161 1770.83 33.0898 1771.01 33.3088C1771.2 33.5248 1771.44 33.6861 1771.74 33.7926C1772.03 33.8962 1772.36 33.948 1772.71 33.948C1773.1 33.948 1773.44 33.8873 1773.74 33.766C1774.05 33.6417 1774.29 33.4701 1774.46 33.2511C1774.64 33.0291 1774.73 32.7702 1774.73 32.4743C1774.73 32.205 1774.65 31.9845 1774.49 31.8129C1774.34 31.6412 1774.14 31.4992 1773.88 31.3867C1773.62 31.2743 1773.33 31.1751 1773 31.0893L1771.93 30.7963C1771.2 30.5981 1770.62 30.3066 1770.2 29.9219C1769.77 29.5372 1769.56 29.0282 1769.56 28.3949C1769.56 27.8711 1769.7 27.4139 1769.99 27.0233C1770.27 26.6326 1770.66 26.3293 1771.14 26.1133C1771.63 25.8943 1772.18 25.7848 1772.79 25.7848C1773.4 25.7848 1773.94 25.8928 1774.41 26.1088C1774.89 26.3249 1775.26 26.6223 1775.53 27.0011C1775.81 27.3769 1775.95 27.8089 1775.96 28.2972H1774.64ZM1779.6 35.1509C1779.17 35.1509 1778.78 35.071 1778.43 34.9112C1778.08 34.7485 1777.8 34.5132 1777.6 34.2054C1777.4 33.8977 1777.3 33.5204 1777.3 33.0735C1777.3 32.6888 1777.37 32.3722 1777.52 32.1236C1777.67 31.875 1777.87 31.6782 1778.12 31.5332C1778.37 31.3882 1778.65 31.2787 1778.96 31.2047C1779.27 31.1307 1779.59 31.0745 1779.91 31.036C1780.32 30.9887 1780.65 30.9502 1780.91 30.9206C1781.16 30.8881 1781.34 30.8363 1781.46 30.7653C1781.58 30.6942 1781.63 30.5788 1781.63 30.419V30.388C1781.63 30.0003 1781.52 29.6999 1781.3 29.4869C1781.09 29.2738 1780.77 29.1673 1780.34 29.1673C1779.89 29.1673 1779.54 29.2664 1779.28 29.4647C1779.03 29.66 1778.85 29.8775 1778.75 30.1172L1777.5 29.8331C1777.65 29.4188 1777.87 29.0844 1778.15 28.8299C1778.44 28.5724 1778.77 28.386 1779.14 28.2706C1779.52 28.1522 1779.91 28.093 1780.32 28.093C1780.59 28.093 1780.88 28.1256 1781.18 28.1907C1781.49 28.2528 1781.78 28.3683 1782.05 28.5369C1782.32 28.7056 1782.54 28.9468 1782.71 29.2605C1782.88 29.5712 1782.96 29.9751 1782.96 30.4723V35H1781.67V34.0678H1781.62C1781.53 34.2395 1781.4 34.4081 1781.23 34.5739C1781.06 34.7396 1780.84 34.8772 1780.57 34.9867C1780.3 35.0962 1779.98 35.1509 1779.6 35.1509ZM1779.89 34.0856C1780.26 34.0856 1780.57 34.0131 1780.83 33.8681C1781.09 33.7231 1781.29 33.5337 1781.43 33.2999C1781.57 33.0632 1781.64 32.8101 1781.64 32.5408V31.6619C1781.59 31.7093 1781.5 31.7537 1781.36 31.7951C1781.23 31.8336 1781.08 31.8676 1780.91 31.8972C1780.73 31.9238 1780.57 31.949 1780.4 31.9727C1780.24 31.9934 1780.1 32.0111 1780 32.0259C1779.74 32.0585 1779.5 32.1132 1779.29 32.1902C1779.08 32.2671 1778.91 32.3781 1778.78 32.5231C1778.66 32.6651 1778.6 32.8545 1778.6 33.0913C1778.6 33.4197 1778.72 33.6683 1778.96 33.837C1779.2 34.0027 1779.51 34.0856 1779.89 34.0856ZM1784.73 35V28.1818H1786.06V35H1784.73ZM1785.4 27.1298C1785.17 27.1298 1784.97 27.0529 1784.81 26.899C1784.65 26.7421 1784.56 26.5557 1784.56 26.3397C1784.56 26.1207 1784.65 25.9342 1784.81 25.7804C1784.97 25.6235 1785.17 25.5451 1785.4 25.5451C1785.63 25.5451 1785.83 25.6235 1785.99 25.7804C1786.16 25.9342 1786.24 26.1207 1786.24 26.3397C1786.24 26.5557 1786.16 26.7421 1785.99 26.899C1785.83 27.0529 1785.63 27.1298 1785.4 27.1298ZM1789.17 30.9517V35H1787.85V28.1818H1789.12V29.2915H1789.2C1789.36 28.9305 1789.61 28.6405 1789.94 28.4215C1790.28 28.2025 1790.7 28.093 1791.21 28.093C1791.68 28.093 1792.09 28.1907 1792.44 28.386C1792.78 28.5784 1793.06 28.8654 1793.25 29.2472C1793.44 29.6289 1793.54 30.1009 1793.54 30.6632V35H1792.21V30.823C1792.21 30.3288 1792.08 29.9426 1791.82 29.6644C1791.57 29.3833 1791.21 29.2427 1790.76 29.2427C1790.45 29.2427 1790.18 29.3093 1789.94 29.4425C1789.7 29.5756 1789.52 29.771 1789.38 30.0284C1789.24 30.2829 1789.17 30.5907 1789.17 30.9517ZM1797.3 35.1509C1796.87 35.1509 1796.48 35.071 1796.13 34.9112C1795.78 34.7485 1795.5 34.5132 1795.3 34.2054C1795.1 33.8977 1795 33.5204 1795 33.0735C1795 32.6888 1795.07 32.3722 1795.22 32.1236C1795.37 31.875 1795.57 31.6782 1795.82 31.5332C1796.07 31.3882 1796.35 31.2787 1796.66 31.2047C1796.97 31.1307 1797.29 31.0745 1797.61 31.036C1798.02 30.9887 1798.35 30.9502 1798.61 30.9206C1798.86 30.8881 1799.04 30.8363 1799.16 30.7653C1799.28 30.6942 1799.33 30.5788 1799.33 30.419V30.388C1799.33 30.0003 1799.22 29.6999 1799 29.4869C1798.79 29.2738 1798.47 29.1673 1798.04 29.1673C1797.59 29.1673 1797.24 29.2664 1796.98 29.4647C1796.73 29.66 1796.55 29.8775 1796.45 30.1172L1795.21 29.8331C1795.35 29.4188 1795.57 29.0844 1795.85 28.8299C1796.14 28.5724 1796.47 28.386 1796.84 28.2706C1797.22 28.1522 1797.61 28.093 1798.02 28.093C1798.29 28.093 1798.58 28.1256 1798.88 28.1907C1799.19 28.2528 1799.48 28.3683 1799.75 28.5369C1800.02 28.7056 1800.24 28.9468 1800.41 29.2605C1800.58 29.5712 1800.66 29.9751 1800.66 30.4723V35H1799.37V34.0678H1799.32C1799.23 34.2395 1799.1 34.4081 1798.93 34.5739C1798.76 34.7396 1798.54 34.8772 1798.27 34.9867C1798 35.0962 1797.68 35.1509 1797.3 35.1509ZM1797.59 34.0856C1797.96 34.0856 1798.27 34.0131 1798.53 33.8681C1798.79 33.7231 1798.99 33.5337 1799.13 33.2999C1799.27 33.0632 1799.34 32.8101 1799.34 32.5408V31.6619C1799.29 31.7093 1799.2 31.7537 1799.06 31.7951C1798.93 31.8336 1798.78 31.8676 1798.61 31.8972C1798.43 31.9238 1798.27 31.949 1798.1 31.9727C1797.94 31.9934 1797.8 32.0111 1797.7 32.0259C1797.44 32.0585 1797.2 32.1132 1796.99 32.1902C1796.78 32.2671 1796.61 32.3781 1796.48 32.5231C1796.36 32.6651 1796.3 32.8545 1796.3 33.0913C1796.3 33.4197 1796.42 33.6683 1796.66 33.837C1796.9 34.0027 1797.21 34.0856 1797.59 34.0856ZM1804.99 35.1332C1804.43 35.1332 1803.94 34.9926 1803.51 34.7115C1803.08 34.4274 1802.74 34.0234 1802.5 33.4996C1802.26 32.9729 1802.14 32.3411 1802.14 31.6042C1802.14 30.8674 1802.26 30.237 1802.5 29.7132C1802.75 29.1895 1803.09 28.7885 1803.52 28.5103C1803.96 28.2321 1804.45 28.093 1804.99 28.093C1805.42 28.093 1805.76 28.1641 1806.01 28.3061C1806.28 28.4452 1806.48 28.608 1806.62 28.7944C1806.76 28.9808 1806.88 29.1451 1806.96 29.2871H1807.04V25.9091H1808.36V35H1807.07V33.9391H1806.96C1806.88 34.0841 1806.76 34.2498 1806.61 34.4363C1806.46 34.6227 1806.26 34.7855 1806 34.9245C1805.74 35.0636 1805.4 35.1332 1804.99 35.1332ZM1805.28 34.0012C1805.66 34.0012 1805.98 33.9006 1806.25 33.6994C1806.51 33.4952 1806.71 33.2126 1806.85 32.8516C1806.99 32.4905 1807.06 32.0703 1807.06 31.5909C1807.06 31.1174 1806.99 30.7031 1806.85 30.348C1806.72 29.9929 1806.52 29.7162 1806.25 29.5179C1805.99 29.3197 1805.67 29.2205 1805.28 29.2205C1804.88 29.2205 1804.55 29.3241 1804.28 29.5312C1804.01 29.7384 1803.81 30.021 1803.68 30.3791C1803.54 30.7372 1803.48 31.1411 1803.48 31.5909C1803.48 32.0466 1803.54 32.4565 1803.68 32.8205C1803.82 33.1845 1804.02 33.473 1804.28 33.6861C1804.55 33.8962 1804.88 34.0012 1805.28 34.0012ZM1811.58 30.9517V35H1810.26V25.9091H1811.57V29.2915H1811.65C1811.81 28.9246 1812.06 28.6331 1812.38 28.4171C1812.71 28.2011 1813.14 28.093 1813.67 28.093C1814.14 28.093 1814.55 28.1892 1814.9 28.3816C1815.25 28.5739 1815.52 28.861 1815.71 29.2427C1815.91 29.6215 1816.01 30.095 1816.01 30.6632V35H1814.68V30.823C1814.68 30.3229 1814.55 29.9352 1814.29 29.66C1814.03 29.3818 1813.68 29.2427 1813.22 29.2427C1812.9 29.2427 1812.62 29.3093 1812.37 29.4425C1812.13 29.5756 1811.94 29.771 1811.79 30.0284C1811.65 30.2829 1811.58 30.5907 1811.58 30.9517Z" fill="white"/>
<rect y="95" width="1920" height="985" fill="#1D1F21"/>
<rect x="1773" y="41" width="7" height="7" rx="3.5" fill="#FF6600"/>
<path d="M0 124H125C172.14 124 195.711 124 210.355 138.645C225 153.289 225 176.86 225 224V954C225 1001.14 225 1024.71 210.355 1039.36C195.711 1054 172.14 1054 125 1054H0V124Z" fill="url(#paint0_linear_35_98)"/>
<path d="M125 124.5C148.584 124.5 166.222 124.501 179.797 126.326C193.357 128.149 202.788 131.784 210.002 138.998C217.216 146.212 220.851 155.643 222.674 169.203C224.499 182.778 224.5 200.416 224.5 224V954C224.5 977.584 224.499 995.222 222.674 1008.8C220.851 1022.36 217.216 1031.79 210.002 1039C202.788 1046.22 193.357 1049.85 179.797 1051.67C166.222 1053.5 148.584 1053.5 125 1053.5H0.5V124.5H125Z" stroke="#DADADA" stroke-opacity="0.4"/>
<rect x="246" y="304" width="1653" height="750" rx="20" fill="#2C2E30"/>
<rect x="1450.5" y="16.5" width="167" height="66" rx="19.5" fill="#444648" stroke="#F6903A"/>
<rect x="246" y="124" width="248" height="152" rx="20" fill="url(#paint1_linear_35_98)"/>
<rect x="246.5" y="124.5" width="247" height="151" rx="19.5" stroke="#DADADA" stroke-opacity="0.4"/>
<rect x="527" y="124" width="248" height="152" rx="20" fill="url(#paint2_linear_35_98)"/>
<rect x="527.5" y="124.5" width="247" height="151" rx="19.5" stroke="#DADADA" stroke-opacity="0.4"/>
<rect x="1651" y="124" width="248" height="152" rx="20" fill="url(#paint3_linear_35_98)"/>
<rect x="1651.5" y="124.5" width="247" height="151" rx="19.5" stroke="#DADADA" stroke-opacity="0.4"/>
<rect x="1370" y="124" width="248" height="152" rx="20" fill="url(#paint4_linear_35_98)"/>
<rect x="1370.5" y="124.5" width="247" height="151" rx="19.5" stroke="#DADADA" stroke-opacity="0.4"/>
<rect x="1089" y="124" width="248" height="152" rx="20" fill="url(#paint5_linear_35_98)"/>
<rect x="1089.5" y="124.5" width="247" height="151" rx="19.5" stroke="#DADADA" stroke-opacity="0.4"/>
<rect x="808" y="124" width="248" height="152" rx="20" fill="url(#paint6_linear_35_98)"/>
<rect x="808.5" y="124.5" width="247" height="151" rx="19.5" stroke="#DADADA" stroke-opacity="0.4"/>
<path d="M1705.96 37.2972C1705.91 36.877 1705.71 36.5515 1705.37 36.3207C1705.03 36.0869 1704.6 35.97 1704.07 35.97C1703.7 35.97 1703.38 36.0292 1703.11 36.1475C1702.83 36.263 1702.62 36.4228 1702.47 36.627C1702.32 36.8282 1702.25 37.0575 1702.25 37.315C1702.25 37.531 1702.3 37.7174 1702.4 37.8743C1702.51 38.0311 1702.64 38.1628 1702.81 38.2694C1702.97 38.3729 1703.15 38.4602 1703.35 38.5312C1703.54 38.5993 1703.72 38.6555 1703.9 38.6999L1704.79 38.9308C1705.08 39.0018 1705.38 39.098 1705.68 39.2193C1705.99 39.3406 1706.27 39.5004 1706.53 39.6987C1706.79 39.897 1707 40.1426 1707.16 40.4355C1707.32 40.7285 1707.4 41.0792 1707.4 41.4876C1707.4 42.0025 1707.27 42.4597 1707 42.8592C1706.74 43.2587 1706.36 43.5739 1705.85 43.8047C1705.35 44.0355 1704.75 44.1509 1704.04 44.1509C1703.36 44.1509 1702.77 44.0429 1702.27 43.8269C1701.78 43.6109 1701.39 43.3046 1701.11 42.908C1700.82 42.5085 1700.67 42.035 1700.64 41.4876H1702.02C1702.04 41.8161 1702.15 42.0898 1702.33 42.3088C1702.52 42.5248 1702.77 42.6861 1703.06 42.7926C1703.35 42.8962 1703.68 42.948 1704.03 42.948C1704.42 42.948 1704.76 42.8873 1705.06 42.766C1705.37 42.6417 1705.61 42.4701 1705.78 42.2511C1705.96 42.0291 1706.05 41.7702 1706.05 41.4743C1706.05 41.205 1705.97 40.9845 1705.81 40.8129C1705.66 40.6412 1705.46 40.4992 1705.2 40.3867C1704.94 40.2743 1704.65 40.1751 1704.32 40.0893L1703.25 39.7963C1702.52 39.5981 1701.94 39.3066 1701.52 38.9219C1701.09 38.5372 1700.88 38.0282 1700.88 37.3949C1700.88 36.8711 1701.03 36.4139 1701.31 36.0233C1701.59 35.6326 1701.98 35.3293 1702.46 35.1133C1702.95 34.8943 1703.5 34.7848 1704.11 34.7848C1704.72 34.7848 1705.26 34.8928 1705.74 35.1088C1706.21 35.3249 1706.58 35.6223 1706.85 36.0011C1707.13 36.3769 1707.27 36.8089 1707.28 37.2972H1705.96ZM1709.04 44V34.9091H1712.28C1712.99 34.9091 1713.58 35.0378 1714.04 35.2953C1714.51 35.5527 1714.85 35.9049 1715.08 36.3517C1715.32 36.7956 1715.43 37.2958 1715.43 37.8521C1715.43 38.4114 1715.31 38.9145 1715.08 39.3613C1714.85 39.8052 1714.5 40.1574 1714.03 40.4178C1713.57 40.6752 1712.98 40.804 1712.28 40.804H1710.05V39.641H1712.15C1712.6 39.641 1712.96 39.564 1713.24 39.4102C1713.52 39.2533 1713.72 39.0402 1713.85 38.771C1713.99 38.5017 1714.05 38.1954 1714.05 37.8521C1714.05 37.5088 1713.99 37.204 1713.85 36.9377C1713.72 36.6713 1713.52 36.4627 1713.24 36.3118C1712.96 36.1609 1712.59 36.0854 1712.14 36.0854H1710.41V44H1709.04Z" fill="#191919"/>
<path d="M32.538 48V29.1H35.427L43.689 42.897H42.177L50.304 29.1H53.193L53.22 48H49.899L49.872 34.311H50.574L43.662 45.84H42.096L35.076 34.311H35.886V48H32.538ZM66.8841 48V45.084L66.6951 44.463V39.36C66.6951 38.37 66.3981 37.605 65.8041 37.065C65.2101 36.507 64.3101 36.228 63.1041 36.228C62.2941 36.228 61.4931 36.354 60.7011 36.606C59.9271 36.858 59.2701 37.209 58.7301 37.659L57.4071 35.202C58.1811 34.608 59.0991 34.167 60.1611 33.879C61.2411 33.573 62.3571 33.42 63.5091 33.42C65.5971 33.42 67.2081 33.924 68.3421 34.932C69.4941 35.922 70.0701 37.461 70.0701 39.549V48H66.8841ZM62.3481 48.189C61.2681 48.189 60.3231 48.009 59.5131 47.649C58.7031 47.271 58.0731 46.758 57.6231 46.11C57.1911 45.444 56.9751 44.697 56.9751 43.869C56.9751 43.059 57.1641 42.33 57.5421 41.682C57.9381 41.034 58.5771 40.521 59.4591 40.143C60.3411 39.765 61.5111 39.576 62.9691 39.576H67.1541V41.817H63.2121C62.0601 41.817 61.2861 42.006 60.8901 42.384C60.4941 42.744 60.2961 43.194 60.2961 43.734C60.2961 44.346 60.5391 44.832 61.0251 45.192C61.5111 45.552 62.1861 45.732 63.0501 45.732C63.8781 45.732 64.6161 45.543 65.2641 45.165C65.9301 44.787 66.4071 44.229 66.6951 43.491L67.2621 45.516C66.9381 46.362 66.3531 47.019 65.5071 47.487C64.6791 47.955 63.6261 48.189 62.3481 48.189ZM82.5825 33.42C83.7345 33.42 84.7605 33.645 85.6605 34.095C86.5785 34.545 87.2985 35.238 87.8205 36.174C88.3425 37.092 88.6035 38.28 88.6035 39.738V48H85.2285V40.17C85.2285 38.892 84.9225 37.938 84.3105 37.308C83.7165 36.678 82.8795 36.363 81.7995 36.363C81.0075 36.363 80.3055 36.525 79.6935 36.849C79.0815 37.173 78.6045 37.659 78.2625 38.307C77.9385 38.937 77.7765 39.738 77.7765 40.71V48H74.4015V33.582H77.6145V37.47L77.0475 36.282C77.5515 35.364 78.2805 34.662 79.2345 34.176C80.2065 33.672 81.3225 33.42 82.5825 33.42ZM98.9869 48.189C97.7629 48.189 96.6829 47.964 95.7469 47.514C94.8109 47.046 94.0819 46.344 93.5599 45.408C93.0379 44.454 92.7769 43.257 92.7769 41.817V33.582H96.1519V41.358C96.1519 42.654 96.4399 43.626 97.0159 44.274C97.6099 44.904 98.4469 45.219 99.5269 45.219C100.319 45.219 101.003 45.057 101.579 44.733C102.173 44.409 102.632 43.923 102.956 43.275C103.298 42.627 103.469 41.826 103.469 40.872V33.582H106.844V48H103.631V44.112L104.198 45.3C103.712 46.236 103.001 46.956 102.065 47.46C101.129 47.946 100.103 48.189 98.9869 48.189ZM111.722 48V32.772C111.722 31.26 112.163 30.054 113.045 29.154C113.945 28.236 115.223 27.777 116.879 27.777C117.473 27.777 118.031 27.84 118.553 27.966C119.093 28.092 119.543 28.29 119.903 28.56L118.985 31.098C118.733 30.9 118.445 30.756 118.121 30.666C117.797 30.558 117.464 30.504 117.122 30.504C116.42 30.504 115.889 30.702 115.529 31.098C115.169 31.476 114.989 32.052 114.989 32.826V34.446L115.097 35.958V48H111.722ZM109.346 36.39V33.69H118.958V36.39H109.346ZM129.849 48V45.084L129.66 44.463V39.36C129.66 38.37 129.363 37.605 128.769 37.065C128.175 36.507 127.275 36.228 126.069 36.228C125.259 36.228 124.458 36.354 123.666 36.606C122.892 36.858 122.235 37.209 121.695 37.659L120.372 35.202C121.146 34.608 122.064 34.167 123.126 33.879C124.206 33.573 125.322 33.42 126.474 33.42C128.562 33.42 130.173 33.924 131.307 34.932C132.459 35.922 133.035 37.461 133.035 39.549V48H129.849ZM125.313 48.189C124.233 48.189 123.288 48.009 122.478 47.649C121.668 47.271 121.038 46.758 120.588 46.11C120.156 45.444 119.94 44.697 119.94 43.869C119.94 43.059 120.129 42.33 120.507 41.682C120.903 41.034 121.542 40.521 122.424 40.143C123.306 39.765 124.476 39.576 125.934 39.576H130.119V41.817H126.177C125.025 41.817 124.251 42.006 123.855 42.384C123.459 42.744 123.261 43.194 123.261 43.734C123.261 44.346 123.504 44.832 123.99 45.192C124.476 45.552 125.151 45.732 126.015 45.732C126.843 45.732 127.581 45.543 128.229 45.165C128.895 44.787 129.372 44.229 129.66 43.491L130.227 45.516C129.903 46.362 129.318 47.019 128.472 47.487C127.644 47.955 126.591 48.189 125.313 48.189ZM144.008 48.189C142.496 48.189 141.146 47.874 139.958 47.244C138.788 46.596 137.87 45.714 137.204 44.598C136.538 43.482 136.205 42.213 136.205 40.791C136.205 39.351 136.538 38.082 137.204 36.984C137.87 35.868 138.788 34.995 139.958 34.365C141.146 33.735 142.496 33.42 144.008 33.42C145.412 33.42 146.645 33.708 147.707 34.284C148.787 34.842 149.606 35.67 150.164 36.768L147.572 38.28C147.14 37.596 146.609 37.092 145.979 36.768C145.367 36.444 144.701 36.282 143.981 36.282C143.153 36.282 142.406 36.462 141.74 36.822C141.074 37.182 140.552 37.704 140.174 38.388C139.796 39.054 139.607 39.855 139.607 40.791C139.607 41.727 139.796 42.537 140.174 43.221C140.552 43.887 141.074 44.4 141.74 44.76C142.406 45.12 143.153 45.3 143.981 45.3C144.701 45.3 145.367 45.138 145.979 44.814C146.609 44.49 147.14 43.986 147.572 43.302L150.164 44.814C149.606 45.894 148.787 46.731 147.707 47.325C146.645 47.901 145.412 48.189 144.008 48.189ZM158.693 48.189C157.109 48.189 155.885 47.784 155.021 46.974C154.157 46.146 153.725 44.931 153.725 43.329V30.396H157.1V43.248C157.1 43.932 157.271 44.463 157.613 44.841C157.973 45.219 158.468 45.408 159.098 45.408C159.854 45.408 160.484 45.21 160.988 44.814L161.933 47.217C161.537 47.541 161.051 47.784 160.475 47.946C159.899 48.108 159.305 48.189 158.693 48.189ZM151.349 36.39V33.69H160.961V36.39H151.349ZM170.811 48.189C169.587 48.189 168.507 47.964 167.571 47.514C166.635 47.046 165.906 46.344 165.384 45.408C164.862 44.454 164.601 43.257 164.601 41.817V33.582H167.976V41.358C167.976 42.654 168.264 43.626 168.84 44.274C169.434 44.904 170.271 45.219 171.351 45.219C172.143 45.219 172.827 45.057 173.403 44.733C173.997 44.409 174.456 43.923 174.78 43.275C175.122 42.627 175.293 41.826 175.293 40.872V33.582H178.668V48H175.455V44.112L176.022 45.3C175.536 46.236 174.825 46.956 173.889 47.46C172.953 47.946 171.927 48.189 170.811 48.189ZM183.087 48V33.582H186.3V37.551L185.922 36.39C186.354 35.418 187.029 34.68 187.947 34.176C188.883 33.672 190.044 33.42 191.43 33.42V36.633C191.286 36.597 191.151 36.579 191.025 36.579C190.899 36.561 190.773 36.552 190.647 36.552C189.369 36.552 188.352 36.93 187.596 37.686C186.84 38.424 186.462 39.531 186.462 41.007V48H183.087ZM194.293 48V33.582H197.668V48H194.293ZM195.994 31.206C195.364 31.206 194.842 31.008 194.428 30.612C194.032 30.216 193.834 29.739 193.834 29.181C193.834 28.605 194.032 28.128 194.428 27.75C194.842 27.354 195.364 27.156 195.994 27.156C196.624 27.156 197.137 27.345 197.533 27.723C197.947 28.083 198.154 28.542 198.154 29.1C198.154 29.694 197.956 30.198 197.56 30.612C197.164 31.008 196.642 31.206 195.994 31.206ZM210.279 33.42C211.431 33.42 212.457 33.645 213.357 34.095C214.275 34.545 214.995 35.238 215.517 36.174C216.039 37.092 216.3 38.28 216.3 39.738V48H212.925V40.17C212.925 38.892 212.619 37.938 212.007 37.308C211.413 36.678 210.576 36.363 209.496 36.363C208.704 36.363 208.002 36.525 207.39 36.849C206.778 37.173 206.301 37.659 205.959 38.307C205.635 38.937 205.473 39.738 205.473 40.71V48H202.098V33.582H205.311V37.47L204.744 36.282C205.248 35.364 205.977 34.662 206.931 34.176C207.903 33.672 209.019 33.42 210.279 33.42ZM227.142 53.427C225.81 53.427 224.505 53.247 223.227 52.887C221.967 52.545 220.932 52.041 220.122 51.375L221.634 48.837C222.264 49.359 223.056 49.773 224.01 50.079C224.982 50.403 225.963 50.565 226.953 50.565C228.537 50.565 229.698 50.196 230.436 49.458C231.174 48.738 231.543 47.649 231.543 46.191V43.626L231.813 40.359L231.705 37.092V33.582H234.918V45.813C234.918 48.423 234.252 50.34 232.92 51.564C231.588 52.806 229.662 53.427 227.142 53.427ZM226.71 47.352C225.342 47.352 224.1 47.064 222.984 46.488C221.886 45.894 221.013 45.075 220.365 44.031C219.735 42.987 219.42 41.763 219.42 40.359C219.42 38.973 219.735 37.758 220.365 36.714C221.013 35.67 221.886 34.86 222.984 34.284C224.1 33.708 225.342 33.42 226.71 33.42C227.934 33.42 229.032 33.663 230.004 34.149C230.976 34.635 231.75 35.391 232.326 36.417C232.92 37.443 233.217 38.757 233.217 40.359C233.217 41.961 232.92 43.284 232.326 44.328C231.75 45.354 230.976 46.119 230.004 46.623C229.032 47.109 227.934 47.352 226.71 47.352ZM227.223 44.49C228.069 44.49 228.825 44.319 229.491 43.977C230.157 43.617 230.67 43.131 231.03 42.519C231.408 41.889 231.597 41.169 231.597 40.359C231.597 39.549 231.408 38.838 231.03 38.226C230.67 37.596 230.157 37.119 229.491 36.795C228.825 36.453 228.069 36.282 227.223 36.282C226.377 36.282 225.612 36.453 224.928 36.795C224.262 37.119 223.74 37.596 223.362 38.226C223.002 38.838 222.822 39.549 222.822 40.359C222.822 41.169 223.002 41.889 223.362 42.519C223.74 43.131 224.262 43.617 224.928 43.977C225.612 44.319 226.377 44.49 227.223 44.49ZM255.268 48.27C252.676 48.27 250.642 47.541 249.166 46.083C247.708 44.625 246.979 42.519 246.979 39.765V29.1H250.489V39.63C250.489 41.574 250.903 42.987 251.731 43.869C252.577 44.751 253.765 45.192 255.295 45.192C256.825 45.192 258.004 44.751 258.832 43.869C259.66 42.987 260.074 41.574 260.074 39.63V29.1H263.53V39.765C263.53 42.519 262.792 44.625 261.316 46.083C259.858 47.541 257.842 48.27 255.268 48.27ZM276.302 33.42C277.454 33.42 278.48 33.645 279.38 34.095C280.298 34.545 281.018 35.238 281.54 36.174C282.062 37.092 282.323 38.28 282.323 39.738V48H278.948V40.17C278.948 38.892 278.642 37.938 278.03 37.308C277.436 36.678 276.599 36.363 275.519 36.363C274.727 36.363 274.025 36.525 273.413 36.849C272.801 37.173 272.324 37.659 271.982 38.307C271.658 38.937 271.496 39.738 271.496 40.71V48H268.121V33.582H271.334V37.47L270.767 36.282C271.271 35.364 272 34.662 272.954 34.176C273.926 33.672 275.042 33.42 276.302 33.42ZM286.605 48V33.582H289.98V48H286.605ZM288.306 31.206C287.676 31.206 287.154 31.008 286.74 30.612C286.344 30.216 286.146 29.739 286.146 29.181C286.146 28.605 286.344 28.128 286.74 27.75C287.154 27.354 287.676 27.156 288.306 27.156C288.936 27.156 289.449 27.345 289.845 27.723C290.259 28.083 290.466 28.542 290.466 29.1C290.466 29.694 290.268 30.198 289.872 30.612C289.476 31.008 288.954 31.206 288.306 31.206ZM299.836 48.189C298.252 48.189 297.028 47.784 296.164 46.974C295.3 46.146 294.868 44.931 294.868 43.329V30.396H298.243V43.248C298.243 43.932 298.414 44.463 298.756 44.841C299.116 45.219 299.611 45.408 300.241 45.408C300.997 45.408 301.627 45.21 302.131 44.814L303.076 47.217C302.68 47.541 302.194 47.784 301.618 47.946C301.042 48.108 300.448 48.189 299.836 48.189ZM292.492 36.39V33.69H302.104V36.39H292.492ZM322.495 48.27C321.019 48.27 319.66 48.027 318.418 47.541C317.176 47.055 316.096 46.38 315.178 45.516C314.26 44.634 313.549 43.608 313.045 42.438C312.541 41.25 312.289 39.954 312.289 38.55C312.289 37.146 312.541 35.859 313.045 34.689C313.549 33.501 314.26 32.475 315.178 31.611C316.096 30.729 317.176 30.045 318.418 29.559C319.66 29.073 321.01 28.83 322.468 28.83C323.944 28.83 325.294 29.073 326.518 29.559C327.76 30.045 328.84 30.729 329.758 31.611C330.676 32.475 331.387 33.501 331.891 34.689C332.395 35.859 332.647 37.146 332.647 38.55C332.647 39.954 332.395 41.25 331.891 42.438C331.387 43.626 330.676 44.652 329.758 45.516C328.84 46.38 327.76 47.055 326.518 47.541C325.294 48.027 323.953 48.27 322.495 48.27ZM322.468 45.192C323.422 45.192 324.304 45.03 325.114 44.706C325.924 44.382 326.626 43.923 327.22 43.329C327.814 42.717 328.273 42.015 328.597 41.223C328.939 40.413 329.11 39.522 329.11 38.55C329.11 37.578 328.939 36.696 328.597 35.904C328.273 35.094 327.814 34.392 327.22 33.798C326.626 33.186 325.924 32.718 325.114 32.394C324.304 32.07 323.422 31.908 322.468 31.908C321.514 31.908 320.632 32.07 319.822 32.394C319.03 32.718 318.328 33.186 317.716 33.798C317.122 34.392 316.654 35.094 316.312 35.904C315.988 36.696 315.826 37.578 315.826 38.55C315.826 39.504 315.988 40.386 316.312 41.196C316.654 42.006 317.122 42.717 317.716 43.329C318.31 43.923 319.012 44.382 319.822 44.706C320.632 45.03 321.514 45.192 322.468 45.192ZM339.877 48L333.694 33.582H337.204L342.523 46.299H340.795L346.303 33.582H349.543L343.36 48H339.877ZM358.034 48.189C356.432 48.189 355.028 47.874 353.822 47.244C352.634 46.596 351.707 45.714 351.041 44.598C350.393 43.482 350.069 42.213 350.069 40.791C350.069 39.351 350.384 38.082 351.014 36.984C351.662 35.868 352.544 34.995 353.66 34.365C354.794 33.735 356.081 33.42 357.521 33.42C358.925 33.42 360.176 33.726 361.274 34.338C362.372 34.95 363.236 35.814 363.866 36.93C364.496 38.046 364.811 39.36 364.811 40.872C364.811 41.016 364.802 41.178 364.784 41.358C364.784 41.538 364.775 41.709 364.757 41.871H352.742V39.63H362.975L361.652 40.332C361.67 39.504 361.499 38.775 361.139 38.145C360.779 37.515 360.284 37.02 359.654 36.66C359.042 36.3 358.331 36.12 357.521 36.12C356.693 36.12 355.964 36.3 355.334 36.66C354.722 37.02 354.236 37.524 353.876 38.172C353.534 38.802 353.363 39.549 353.363 40.413V40.953C353.363 41.817 353.561 42.582 353.957 43.248C354.353 43.914 354.911 44.427 355.631 44.787C356.351 45.147 357.179 45.327 358.115 45.327C358.925 45.327 359.654 45.201 360.302 44.949C360.95 44.697 361.526 44.301 362.03 43.761L363.839 45.84C363.191 46.596 362.372 47.181 361.382 47.595C360.41 47.991 359.294 48.189 358.034 48.189ZM368.053 48V33.582H371.266V37.551L370.888 36.39C371.32 35.418 371.995 34.68 372.913 34.176C373.849 33.672 375.01 33.42 376.396 33.42V36.633C376.252 36.597 376.117 36.579 375.991 36.579C375.865 36.561 375.739 36.552 375.613 36.552C374.335 36.552 373.318 36.93 372.562 37.686C371.806 38.424 371.428 39.531 371.428 41.007V48H368.053ZM383.62 48L377.437 33.582H380.947L386.266 46.299H384.538L390.046 33.582H393.286L387.103 48H383.62ZM395.396 48V33.582H398.771V48H395.396ZM397.097 31.206C396.467 31.206 395.945 31.008 395.531 30.612C395.135 30.216 394.937 29.739 394.937 29.181C394.937 28.605 395.135 28.128 395.531 27.75C395.945 27.354 396.467 27.156 397.097 27.156C397.727 27.156 398.24 27.345 398.636 27.723C399.05 28.083 399.257 28.542 399.257 29.1C399.257 29.694 399.059 30.198 398.663 30.612C398.267 31.008 397.745 31.206 397.097 31.206ZM409.977 48.189C408.375 48.189 406.971 47.874 405.765 47.244C404.577 46.596 403.65 45.714 402.984 44.598C402.336 43.482 402.012 42.213 402.012 40.791C402.012 39.351 402.327 38.082 402.957 36.984C403.605 35.868 404.487 34.995 405.603 34.365C406.737 33.735 408.024 33.42 409.464 33.42C410.868 33.42 412.119 33.726 413.217 34.338C414.315 34.95 415.179 35.814 415.809 36.93C416.439 38.046 416.754 39.36 416.754 40.872C416.754 41.016 416.745 41.178 416.727 41.358C416.727 41.538 416.718 41.709 416.7 41.871H404.685V39.63H414.918L413.595 40.332C413.613 39.504 413.442 38.775 413.082 38.145C412.722 37.515 412.227 37.02 411.597 36.66C410.985 36.3 410.274 36.12 409.464 36.12C408.636 36.12 407.907 36.3 407.277 36.66C406.665 37.02 406.179 37.524 405.819 38.172C405.477 38.802 405.306 39.549 405.306 40.413V40.953C405.306 41.817 405.504 42.582 405.9 43.248C406.296 43.914 406.854 44.427 407.574 44.787C408.294 45.147 409.122 45.327 410.058 45.327C410.868 45.327 411.597 45.201 412.245 44.949C412.893 44.697 413.469 44.301 413.973 43.761L415.782 45.84C415.134 46.596 414.315 47.181 413.325 47.595C412.353 47.991 411.237 48.189 409.977 48.189ZM422.919 48L417.627 33.582H420.813L425.349 46.299H423.837L428.589 33.582H431.424L436.041 46.299H434.556L439.227 33.582H442.224L436.905 48H433.665L429.453 36.741H430.452L426.159 48H422.919Z" fill="white"/>
<path d="M31.692 70V57.4H37.596C39.108 57.4 40.26 57.7 41.052 58.3C41.844 58.888 42.24 59.68 42.24 60.676C42.24 61.348 42.084 61.924 41.772 62.404C41.46 62.872 41.04 63.238 40.512 63.502C39.996 63.754 39.432 63.88 38.82 63.88L39.144 63.232C39.852 63.232 40.488 63.364 41.052 63.628C41.616 63.88 42.06 64.252 42.384 64.744C42.72 65.236 42.888 65.848 42.888 66.58C42.888 67.66 42.474 68.5 41.646 69.1C40.818 69.7 39.588 70 37.956 70H31.692ZM34.032 68.164H37.812C38.688 68.164 39.36 68.02 39.828 67.732C40.296 67.444 40.53 66.982 40.53 66.346C40.53 65.722 40.296 65.266 39.828 64.978C39.36 64.678 38.688 64.528 37.812 64.528H33.852V62.71H37.344C38.16 62.71 38.784 62.566 39.216 62.278C39.66 61.99 39.882 61.558 39.882 60.982C39.882 60.394 39.66 59.956 39.216 59.668C38.784 59.38 38.16 59.236 37.344 59.236H34.032V68.164ZM45.9614 73.618C45.4934 73.618 45.0254 73.54 44.5574 73.384C44.0894 73.228 43.6994 73.012 43.3874 72.736L44.2874 71.08C44.5154 71.284 44.7734 71.446 45.0614 71.566C45.3494 71.686 45.6434 71.746 45.9434 71.746C46.3514 71.746 46.6814 71.644 46.9334 71.44C47.1854 71.236 47.4194 70.894 47.6354 70.414L48.1934 69.154L48.3734 68.884L52.0094 60.388H54.1694L49.6694 70.774C49.3694 71.494 49.0334 72.064 48.6614 72.484C48.3014 72.904 47.8934 73.198 47.4374 73.366C46.9934 73.534 46.5014 73.618 45.9614 73.618ZM47.9414 70.342L43.6034 60.388H45.9434L49.4714 68.686L47.9414 70.342ZM64.6722 70.18C63.6882 70.18 62.7462 70.042 61.8462 69.766C60.9462 69.478 60.2322 69.112 59.7042 68.668L60.5142 66.85C61.0182 67.246 61.6422 67.576 62.3862 67.84C63.1302 68.104 63.8922 68.236 64.6722 68.236C65.3322 68.236 65.8662 68.164 66.2742 68.02C66.6822 67.876 66.9822 67.684 67.1742 67.444C67.3662 67.192 67.4622 66.91 67.4622 66.598C67.4622 66.214 67.3242 65.908 67.0482 65.68C66.7722 65.44 66.4122 65.254 65.9682 65.122C65.5362 64.978 65.0502 64.846 64.5102 64.726C63.9822 64.606 63.4482 64.468 62.9082 64.312C62.3802 64.144 61.8942 63.934 61.4502 63.682C61.0182 63.418 60.6642 63.07 60.3882 62.638C60.1122 62.206 59.9742 61.654 59.9742 60.982C59.9742 60.298 60.1542 59.674 60.5142 59.11C60.8862 58.534 61.4442 58.078 62.1882 57.742C62.9442 57.394 63.8982 57.22 65.0502 57.22C65.8062 57.22 66.5562 57.316 67.3002 57.508C68.0442 57.7 68.6922 57.976 69.2442 58.336L68.5062 60.154C67.9422 59.818 67.3602 59.572 66.7602 59.416C66.1602 59.248 65.5842 59.164 65.0322 59.164C64.3842 59.164 63.8562 59.242 63.4482 59.398C63.0522 59.554 62.7582 59.758 62.5662 60.01C62.3862 60.262 62.2962 60.55 62.2962 60.874C62.2962 61.258 62.4282 61.57 62.6922 61.81C62.9682 62.038 63.3222 62.218 63.7542 62.35C64.1982 62.482 64.6902 62.614 65.2302 62.746C65.7702 62.866 66.3042 63.004 66.8322 63.16C67.3722 63.316 67.8582 63.52 68.2902 63.772C68.7342 64.024 69.0882 64.366 69.3522 64.798C69.6282 65.23 69.7662 65.776 69.7662 66.436C69.7662 67.108 69.5802 67.732 69.2082 68.308C68.8482 68.872 68.2902 69.328 67.5342 69.676C66.7782 70.012 65.8242 70.18 64.6722 70.18ZM77.7925 70V68.056L77.6665 67.642V64.24C77.6665 63.58 77.4685 63.07 77.0725 62.71C76.6765 62.338 76.0765 62.152 75.2725 62.152C74.7325 62.152 74.1985 62.236 73.6705 62.404C73.1545 62.572 72.7165 62.806 72.3565 63.106L71.4745 61.468C71.9905 61.072 72.6025 60.778 73.3105 60.586C74.0305 60.382 74.7745 60.28 75.5425 60.28C76.9345 60.28 78.0085 60.616 78.7645 61.288C79.5325 61.948 79.9165 62.974 79.9165 64.366V70H77.7925ZM74.7685 70.126C74.0485 70.126 73.4185 70.006 72.8785 69.766C72.3385 69.514 71.9185 69.172 71.6185 68.74C71.3305 68.296 71.1865 67.798 71.1865 67.246C71.1865 66.706 71.3125 66.22 71.5645 65.788C71.8285 65.356 72.2545 65.014 72.8425 64.762C73.4305 64.51 74.2105 64.384 75.1825 64.384H77.9725V65.878H75.3445C74.5765 65.878 74.0605 66.004 73.7965 66.256C73.5325 66.496 73.4005 66.796 73.4005 67.156C73.4005 67.564 73.5625 67.888 73.8865 68.128C74.2105 68.368 74.6605 68.488 75.2365 68.488C75.7885 68.488 76.2805 68.362 76.7125 68.11C77.1565 67.858 77.4745 67.486 77.6665 66.994L78.0445 68.344C77.8285 68.908 77.4385 69.346 76.8745 69.658C76.3225 69.97 75.6205 70.126 74.7685 70.126ZM82.8041 70V60.388H85.0541V70H82.8041ZM83.9381 58.804C83.5181 58.804 83.1701 58.672 82.8941 58.408C82.6301 58.144 82.4981 57.826 82.4981 57.454C82.4981 57.07 82.6301 56.752 82.8941 56.5C83.1701 56.236 83.5181 56.104 83.9381 56.104C84.3581 56.104 84.7001 56.23 84.9641 56.482C85.2401 56.722 85.3781 57.028 85.3781 57.4C85.3781 57.796 85.2461 58.132 84.9821 58.408C84.7181 58.672 84.3701 58.804 83.9381 58.804ZM93.4613 60.28C94.2293 60.28 94.9133 60.43 95.5133 60.73C96.1253 61.03 96.6053 61.492 96.9533 62.116C97.3013 62.728 97.4753 63.52 97.4753 64.492V70H95.2253V64.78C95.2253 63.928 95.0213 63.292 94.6133 62.872C94.2173 62.452 93.6593 62.242 92.9393 62.242C92.4113 62.242 91.9433 62.35 91.5353 62.566C91.1273 62.782 90.8093 63.106 90.5813 63.538C90.3653 63.958 90.2573 64.492 90.2573 65.14V70H88.0073V60.388H90.1493V62.98L89.7713 62.188C90.1073 61.576 90.5933 61.108 91.2293 60.784C91.8773 60.448 92.6213 60.28 93.4613 60.28ZM106.252 70V68.056L106.126 67.642V64.24C106.126 63.58 105.928 63.07 105.532 62.71C105.136 62.338 104.536 62.152 103.732 62.152C103.192 62.152 102.658 62.236 102.13 62.404C101.614 62.572 101.176 62.806 100.816 63.106L99.9335 61.468C100.45 61.072 101.062 60.778 101.77 60.586C102.49 60.382 103.234 60.28 104.002 60.28C105.394 60.28 106.468 60.616 107.224 61.288C107.992 61.948 108.376 62.974 108.376 64.366V70H106.252ZM103.228 70.126C102.508 70.126 101.878 70.006 101.338 69.766C100.798 69.514 100.378 69.172 100.078 68.74C99.7895 68.296 99.6455 67.798 99.6455 67.246C99.6455 66.706 99.7715 66.22 100.024 65.788C100.288 65.356 100.714 65.014 101.302 64.762C101.89 64.51 102.67 64.384 103.642 64.384H106.432V65.878H103.804C103.036 65.878 102.52 66.004 102.256 66.256C101.992 66.496 101.86 66.796 101.86 67.156C101.86 67.564 102.022 67.888 102.346 68.128C102.67 68.368 103.12 68.488 103.696 68.488C104.248 68.488 104.74 68.362 105.172 68.11C105.616 67.858 105.934 67.486 106.126 66.994L106.504 68.344C106.288 68.908 105.898 69.346 105.334 69.658C104.782 69.97 104.08 70.126 103.228 70.126ZM115.349 70.126C114.425 70.126 113.591 69.922 112.847 69.514C112.115 69.094 111.539 68.518 111.119 67.786C110.699 67.054 110.489 66.19 110.489 65.194C110.489 64.198 110.699 63.334 111.119 62.602C111.539 61.87 112.115 61.3 112.847 60.892C113.591 60.484 114.425 60.28 115.349 60.28C116.153 60.28 116.873 60.46 117.509 60.82C118.145 61.168 118.649 61.702 119.021 62.422C119.393 63.142 119.579 64.066 119.579 65.194C119.579 66.31 119.399 67.234 119.039 67.966C118.679 68.686 118.181 69.226 117.545 69.586C116.909 69.946 116.177 70.126 115.349 70.126ZM115.619 68.2C116.159 68.2 116.639 68.08 117.059 67.84C117.491 67.6 117.833 67.252 118.085 66.796C118.349 66.34 118.481 65.806 118.481 65.194C118.481 64.57 118.349 64.036 118.085 63.592C117.833 63.136 117.491 62.788 117.059 62.548C116.639 62.308 116.159 62.188 115.619 62.188C115.079 62.188 114.593 62.308 114.161 62.548C113.741 62.788 113.399 63.136 113.135 63.592C112.883 64.036 112.757 64.57 112.757 65.194C112.757 65.806 112.883 66.34 113.135 66.796C113.399 67.252 113.741 67.6 114.161 67.84C114.593 68.08 115.079 68.2 115.619 68.2ZM118.535 70V67.732L118.625 65.176L118.445 62.62V56.644H120.677V70H118.535ZM129.092 60.28C129.86 60.28 130.544 60.43 131.144 60.73C131.756 61.03 132.236 61.492 132.584 62.116C132.932 62.728 133.106 63.52 133.106 64.492V70H130.856V64.78C130.856 63.928 130.652 63.292 130.244 62.872C129.848 62.452 129.29 62.242 128.57 62.242C128.042 62.242 127.574 62.35 127.166 62.566C126.758 62.782 126.44 63.106 126.212 63.538C125.996 63.958 125.888 64.492 125.888 65.14V70H123.638V56.644H125.888V62.98L125.402 62.188C125.738 61.576 126.224 61.108 126.86 60.784C127.508 60.448 128.252 60.28 129.092 60.28Z" fill="#333333"/>
<path d="M31.692 70V57.4H37.596C39.108 57.4 40.26 57.7 41.052 58.3C41.844 58.888 42.24 59.68 42.24 60.676C42.24 61.348 42.084 61.924 41.772 62.404C41.46 62.872 41.04 63.238 40.512 63.502C39.996 63.754 39.432 63.88 38.82 63.88L39.144 63.232C39.852 63.232 40.488 63.364 41.052 63.628C41.616 63.88 42.06 64.252 42.384 64.744C42.72 65.236 42.888 65.848 42.888 66.58C42.888 67.66 42.474 68.5 41.646 69.1C40.818 69.7 39.588 70 37.956 70H31.692ZM34.032 68.164H37.812C38.688 68.164 39.36 68.02 39.828 67.732C40.296 67.444 40.53 66.982 40.53 66.346C40.53 65.722 40.296 65.266 39.828 64.978C39.36 64.678 38.688 64.528 37.812 64.528H33.852V62.71H37.344C38.16 62.71 38.784 62.566 39.216 62.278C39.66 61.99 39.882 61.558 39.882 60.982C39.882 60.394 39.66 59.956 39.216 59.668C38.784 59.38 38.16 59.236 37.344 59.236H34.032V68.164ZM45.9614 73.618C45.4934 73.618 45.0254 73.54 44.5574 73.384C44.0894 73.228 43.6994 73.012 43.3874 72.736L44.2874 71.08C44.5154 71.284 44.7734 71.446 45.0614 71.566C45.3494 71.686 45.6434 71.746 45.9434 71.746C46.3514 71.746 46.6814 71.644 46.9334 71.44C47.1854 71.236 47.4194 70.894 47.6354 70.414L48.1934 69.154L48.3734 68.884L52.0094 60.388H54.1694L49.6694 70.774C49.3694 71.494 49.0334 72.064 48.6614 72.484C48.3014 72.904 47.8934 73.198 47.4374 73.366C46.9934 73.534 46.5014 73.618 45.9614 73.618ZM47.9414 70.342L43.6034 60.388H45.9434L49.4714 68.686L47.9414 70.342ZM64.6722 70.18C63.6882 70.18 62.7462 70.042 61.8462 69.766C60.9462 69.478 60.2322 69.112 59.7042 68.668L60.5142 66.85C61.0182 67.246 61.6422 67.576 62.3862 67.84C63.1302 68.104 63.8922 68.236 64.6722 68.236C65.3322 68.236 65.8662 68.164 66.2742 68.02C66.6822 67.876 66.9822 67.684 67.1742 67.444C67.3662 67.192 67.4622 66.91 67.4622 66.598C67.4622 66.214 67.3242 65.908 67.0482 65.68C66.7722 65.44 66.4122 65.254 65.9682 65.122C65.5362 64.978 65.0502 64.846 64.5102 64.726C63.9822 64.606 63.4482 64.468 62.9082 64.312C62.3802 64.144 61.8942 63.934 61.4502 63.682C61.0182 63.418 60.6642 63.07 60.3882 62.638C60.1122 62.206 59.9742 61.654 59.9742 60.982C59.9742 60.298 60.1542 59.674 60.5142 59.11C60.8862 58.534 61.4442 58.078 62.1882 57.742C62.9442 57.394 63.8982 57.22 65.0502 57.22C65.8062 57.22 66.5562 57.316 67.3002 57.508C68.0442 57.7 68.6922 57.976 69.2442 58.336L68.5062 60.154C67.9422 59.818 67.3602 59.572 66.7602 59.416C66.1602 59.248 65.5842 59.164 65.0322 59.164C64.3842 59.164 63.8562 59.242 63.4482 59.398C63.0522 59.554 62.7582 59.758 62.5662 60.01C62.3862 60.262 62.2962 60.55 62.2962 60.874C62.2962 61.258 62.4282 61.57 62.6922 61.81C62.9682 62.038 63.3222 62.218 63.7542 62.35C64.1982 62.482 64.6902 62.614 65.2302 62.746C65.7702 62.866 66.3042 63.004 66.8322 63.16C67.3722 63.316 67.8582 63.52 68.2902 63.772C68.7342 64.024 69.0882 64.366 69.3522 64.798C69.6282 65.23 69.7662 65.776 69.7662 66.436C69.7662 67.108 69.5802 67.732 69.2082 68.308C68.8482 68.872 68.2902 69.328 67.5342 69.676C66.7782 70.012 65.8242 70.18 64.6722 70.18ZM77.7925 70V68.056L77.6665 67.642V64.24C77.6665 63.58 77.4685 63.07 77.0725 62.71C76.6765 62.338 76.0765 62.152 75.2725 62.152C74.7325 62.152 74.1985 62.236 73.6705 62.404C73.1545 62.572 72.7165 62.806 72.3565 63.106L71.4745 61.468C71.9905 61.072 72.6025 60.778 73.3105 60.586C74.0305 60.382 74.7745 60.28 75.5425 60.28C76.9345 60.28 78.0085 60.616 78.7645 61.288C79.5325 61.948 79.9165 62.974 79.9165 64.366V70H77.7925ZM74.7685 70.126C74.0485 70.126 73.4185 70.006 72.8785 69.766C72.3385 69.514 71.9185 69.172 71.6185 68.74C71.3305 68.296 71.1865 67.798 71.1865 67.246C71.1865 66.706 71.3125 66.22 71.5645 65.788C71.8285 65.356 72.2545 65.014 72.8425 64.762C73.4305 64.51 74.2105 64.384 75.1825 64.384H77.9725V65.878H75.3445C74.5765 65.878 74.0605 66.004 73.7965 66.256C73.5325 66.496 73.4005 66.796 73.4005 67.156C73.4005 67.564 73.5625 67.888 73.8865 68.128C74.2105 68.368 74.6605 68.488 75.2365 68.488C75.7885 68.488 76.2805 68.362 76.7125 68.11C77.1565 67.858 77.4745 67.486 77.6665 66.994L78.0445 68.344C77.8285 68.908 77.4385 69.346 76.8745 69.658C76.3225 69.97 75.6205 70.126 74.7685 70.126ZM82.8041 70V60.388H85.0541V70H82.8041ZM83.9381 58.804C83.5181 58.804 83.1701 58.672 82.8941 58.408C82.6301 58.144 82.4981 57.826 82.4981 57.454C82.4981 57.07 82.6301 56.752 82.8941 56.5C83.1701 56.236 83.5181 56.104 83.9381 56.104C84.3581 56.104 84.7001 56.23 84.9641 56.482C85.2401 56.722 85.3781 57.028 85.3781 57.4C85.3781 57.796 85.2461 58.132 84.9821 58.408C84.7181 58.672 84.3701 58.804 83.9381 58.804ZM93.4613 60.28C94.2293 60.28 94.9133 60.43 95.5133 60.73C96.1253 61.03 96.6053 61.492 96.9533 62.116C97.3013 62.728 97.4753 63.52 97.4753 64.492V70H95.2253V64.78C95.2253 63.928 95.0213 63.292 94.6133 62.872C94.2173 62.452 93.6593 62.242 92.9393 62.242C92.4113 62.242 91.9433 62.35 91.5353 62.566C91.1273 62.782 90.8093 63.106 90.5813 63.538C90.3653 63.958 90.2573 64.492 90.2573 65.14V70H88.0073V60.388H90.1493V62.98L89.7713 62.188C90.1073 61.576 90.5933 61.108 91.2293 60.784C91.8773 60.448 92.6213 60.28 93.4613 60.28ZM106.252 70V68.056L106.126 67.642V64.24C106.126 63.58 105.928 63.07 105.532 62.71C105.136 62.338 104.536 62.152 103.732 62.152C103.192 62.152 102.658 62.236 102.13 62.404C101.614 62.572 101.176 62.806 100.816 63.106L99.9335 61.468C100.45 61.072 101.062 60.778 101.77 60.586C102.49 60.382 103.234 60.28 104.002 60.28C105.394 60.28 106.468 60.616 107.224 61.288C107.992 61.948 108.376 62.974 108.376 64.366V70H106.252ZM103.228 70.126C102.508 70.126 101.878 70.006 101.338 69.766C100.798 69.514 100.378 69.172 100.078 68.74C99.7895 68.296 99.6455 67.798 99.6455 67.246C99.6455 66.706 99.7715 66.22 100.024 65.788C100.288 65.356 100.714 65.014 101.302 64.762C101.89 64.51 102.67 64.384 103.642 64.384H106.432V65.878H103.804C103.036 65.878 102.52 66.004 102.256 66.256C101.992 66.496 101.86 66.796 101.86 67.156C101.86 67.564 102.022 67.888 102.346 68.128C102.67 68.368 103.12 68.488 103.696 68.488C104.248 68.488 104.74 68.362 105.172 68.11C105.616 67.858 105.934 67.486 106.126 66.994L106.504 68.344C106.288 68.908 105.898 69.346 105.334 69.658C104.782 69.97 104.08 70.126 103.228 70.126ZM115.349 70.126C114.425 70.126 113.591 69.922 112.847 69.514C112.115 69.094 111.539 68.518 111.119 67.786C110.699 67.054 110.489 66.19 110.489 65.194C110.489 64.198 110.699 63.334 111.119 62.602C111.539 61.87 112.115 61.3 112.847 60.892C113.591 60.484 114.425 60.28 115.349 60.28C116.153 60.28 116.873 60.46 117.509 60.82C118.145 61.168 118.649 61.702 119.021 62.422C119.393 63.142 119.579 64.066 119.579 65.194C119.579 66.31 119.399 67.234 119.039 67.966C118.679 68.686 118.181 69.226 117.545 69.586C116.909 69.946 116.177 70.126 115.349 70.126ZM115.619 68.2C116.159 68.2 116.639 68.08 117.059 67.84C117.491 67.6 117.833 67.252 118.085 66.796C118.349 66.34 118.481 65.806 118.481 65.194C118.481 64.57 118.349 64.036 118.085 63.592C117.833 63.136 117.491 62.788 117.059 62.548C116.639 62.308 116.159 62.188 115.619 62.188C115.079 62.188 114.593 62.308 114.161 62.548C113.741 62.788 113.399 63.136 113.135 63.592C112.883 64.036 112.757 64.57 112.757 65.194C112.757 65.806 112.883 66.34 113.135 66.796C113.399 67.252 113.741 67.6 114.161 67.84C114.593 68.08 115.079 68.2 115.619 68.2ZM118.535 70V67.732L118.625 65.176L118.445 62.62V56.644H120.677V70H118.535ZM129.092 60.28C129.86 60.28 130.544 60.43 131.144 60.73C131.756 61.03 132.236 61.492 132.584 62.116C132.932 62.728 133.106 63.52 133.106 64.492V70H130.856V64.78C130.856 63.928 130.652 63.292 130.244 62.872C129.848 62.452 129.29 62.242 128.57 62.242C128.042 62.242 127.574 62.35 127.166 62.566C126.758 62.782 126.44 63.106 126.212 63.538C125.996 63.958 125.888 64.492 125.888 65.14V70H123.638V56.644H125.888V62.98L125.402 62.188C125.738 61.576 126.224 61.108 126.86 60.784C127.508 60.448 128.252 60.28 129.092 60.28Z" fill="#DADADA"/>
<rect y="340" width="225" height="68" fill="#1D1F21"/>
</g>
<defs>
<linearGradient id="paint0_linear_35_98" x1="112.5" y1="124" x2="112.5" y2="1054" gradientUnits="userSpaceOnUse">
<stop stop-color="#444648"/>
<stop offset="1" stop-color="#FF943A"/>
</linearGradient>
<linearGradient id="paint1_linear_35_98" x1="268" y1="142.345" x2="441.706" y2="325.575" gradientUnits="userSpaceOnUse">
<stop offset="0.201923" stop-color="#444648"/>
<stop offset="1" stop-color="#F6903A"/>
</linearGradient>
<linearGradient id="paint2_linear_35_98" x1="527" y1="146.463" x2="724.372" y2="330.343" gradientUnits="userSpaceOnUse">
<stop offset="0.2" stop-color="#444648"/>
<stop offset="1" stop-color="#F7903A"/>
</linearGradient>
<linearGradient id="paint3_linear_35_98" x1="1651" y1="124" x2="1839.68" y2="330.263" gradientUnits="userSpaceOnUse">
<stop offset="0.2" stop-color="#444648"/>
<stop offset="1" stop-color="#F6903A"/>
</linearGradient>
<linearGradient id="paint4_linear_35_98" x1="1393.5" y1="138.227" x2="1564.24" y2="325.116" gradientUnits="userSpaceOnUse">
<stop offset="0.2" stop-color="#444648"/>
<stop offset="1" stop-color="#F9913A"/>
</linearGradient>
<linearGradient id="paint5_linear_35_98" x1="1089" y1="124" x2="1277.68" y2="330.263" gradientUnits="userSpaceOnUse">
<stop offset="0.2" stop-color="#434547"/>
<stop offset="1" stop-color="#F7903B"/>
</linearGradient>
<linearGradient id="paint6_linear_35_98" x1="808" y1="124" x2="996.68" y2="330.263" gradientUnits="userSpaceOnUse">
<stop offset="0.2" stop-color="#444648"/>
<stop offset="1" stop-color="#FA923A"/>
</linearGradient>
<clipPath id="clip0_35_98">
<rect width="1920" height="1080" fill="white"/>
</clipPath>
</defs>
</svg>
