<svg width="1920" height="1080" viewBox="0 0 1920 1080" fill="none" xmlns="http://www.w3.org/2000/svg">
<g clip-path="url(#clip0_56_24)">
<rect width="1920" height="1080" fill="white"/>
<rect width="1920" height="1080" rx="20" fill="#444648"/>
<circle cx="1707.5" cy="39.5" r="18.5" fill="#1D1F21" fill-opacity="0.5"/>
<circle cx="1707.5" cy="39.5" r="13.5" fill="#FF6600"/>
<path d="M1742.78 47.043C1742.64 47.8685 1742.37 48.5859 1741.98 49.1953C1741.59 49.8047 1741.11 50.276 1740.54 50.6094C1739.97 50.9427 1739.35 51.1094 1738.69 51.1094C1738 51.1094 1737.42 50.9388 1736.95 50.5977C1736.48 50.2539 1736.15 49.7721 1735.96 49.1523C1735.76 48.5299 1735.73 47.7982 1735.87 46.957C1736.01 46.1315 1736.27 45.4141 1736.67 44.8047C1737.06 44.1953 1737.54 43.724 1738.11 43.3906C1738.68 43.0573 1739.3 42.8906 1739.97 42.8906C1740.65 42.8906 1741.22 43.0612 1741.69 43.4023C1742.16 43.7435 1742.49 44.2253 1742.69 44.8477C1742.89 45.4674 1742.92 46.1992 1742.78 47.043ZM1742.08 46.957C1742.2 46.2435 1742.18 45.6354 1742.03 45.1328C1741.88 44.6302 1741.63 44.2461 1741.27 43.9805C1740.9 43.7122 1740.46 43.5781 1739.95 43.5781C1739.42 43.5781 1738.91 43.7161 1738.45 43.9922C1737.98 44.2656 1737.58 44.6615 1737.25 45.1797C1736.92 45.6953 1736.69 46.3164 1736.57 47.043C1736.45 47.7539 1736.46 48.362 1736.61 48.8672C1736.76 49.3698 1737.02 49.7552 1737.38 50.0234C1737.74 50.2891 1738.18 50.4219 1738.7 50.4219C1739.24 50.4219 1739.74 50.2839 1740.21 50.0078C1740.68 49.7318 1741.08 49.3359 1741.41 48.8203C1741.74 48.3021 1741.96 47.681 1742.08 46.957ZM1745.06 47.25L1744.44 51H1743.74L1744.74 45H1745.42L1745.26 45.9414H1745.33C1745.51 45.6341 1745.77 45.388 1746.1 45.2031C1746.44 45.0156 1746.82 44.9219 1747.26 44.9219C1747.66 44.9219 1748 45.0065 1748.28 45.1758C1748.56 45.3424 1748.75 45.5885 1748.87 45.9141C1748.99 46.2396 1749.01 46.6393 1748.93 47.1133L1748.28 51H1747.59L1748.23 47.1562C1748.31 46.6667 1748.24 46.2786 1748.01 45.9922C1747.79 45.7031 1747.45 45.5586 1746.99 45.5586C1746.67 45.5586 1746.38 45.6263 1746.11 45.7617C1745.84 45.8971 1745.61 46.0924 1745.43 46.3477C1745.24 46.6003 1745.12 46.901 1745.06 47.25ZM1752.14 43L1750.81 51H1750.11L1751.44 43H1752.14ZM1752.66 51L1753.66 45H1754.36L1753.36 51H1752.66ZM1754.26 43.957C1754.11 43.957 1753.99 43.9076 1753.89 43.8086C1753.79 43.7096 1753.74 43.5898 1753.74 43.4492C1753.75 43.3164 1753.8 43.2018 1753.9 43.1055C1754.01 43.0065 1754.13 42.957 1754.27 42.957C1754.42 42.957 1754.54 43.0078 1754.64 43.1094C1754.74 43.2083 1754.79 43.3281 1754.79 43.4687C1754.78 43.6016 1754.73 43.7161 1754.63 43.8125C1754.52 43.9089 1754.4 43.957 1754.26 43.957ZM1756.51 47.25L1755.89 51H1755.19L1756.19 45H1756.87L1756.71 45.9414H1756.78C1756.96 45.6341 1757.22 45.388 1757.55 45.2031C1757.89 45.0156 1758.27 44.9219 1758.71 44.9219C1759.11 44.9219 1759.45 45.0065 1759.73 45.1758C1760.01 45.3424 1760.21 45.5885 1760.32 45.9141C1760.44 46.2396 1760.46 46.6393 1760.39 47.1133L1759.73 51H1759.04L1759.68 47.1562C1759.76 46.6667 1759.69 46.2786 1759.46 45.9922C1759.24 45.7031 1758.9 45.5586 1758.44 45.5586C1758.12 45.5586 1757.83 45.6263 1757.56 45.7617C1757.29 45.8971 1757.06 46.0924 1756.88 46.3477C1756.69 46.6003 1756.57 46.901 1756.51 47.25ZM1763.97 51.125C1763.41 51.125 1762.95 50.9948 1762.59 50.7344C1762.22 50.4714 1761.97 50.1081 1761.82 49.6445C1761.68 49.1784 1761.65 48.6419 1761.76 48.0352C1761.86 47.431 1762.06 46.8945 1762.36 46.4258C1762.66 45.9544 1763.03 45.5859 1763.47 45.3203C1763.91 45.0521 1764.38 44.918 1764.9 44.918C1765.23 44.918 1765.53 44.9779 1765.81 45.0977C1766.1 45.2148 1766.34 45.3958 1766.54 45.6406C1766.74 45.8828 1766.88 46.1888 1766.96 46.5586C1767.03 46.9258 1767.03 47.3607 1766.95 47.8633L1766.89 48.207H1762.21L1762.3 47.5937H1766.28C1766.35 47.2083 1766.33 46.862 1766.23 46.5547C1766.13 46.2474 1765.95 46.0039 1765.71 45.8242C1765.47 45.6419 1765.17 45.5508 1764.81 45.5508C1764.44 45.5508 1764.09 45.6536 1763.76 45.8594C1763.44 46.0651 1763.16 46.3333 1762.94 46.6641C1762.71 46.9922 1762.57 47.3424 1762.5 47.7148L1762.42 48.1758C1762.34 48.6836 1762.35 49.1094 1762.46 49.4531C1762.56 49.7943 1762.75 50.0521 1763.02 50.2266C1763.29 50.401 1763.65 50.4883 1764.07 50.4883C1764.36 50.4883 1764.62 50.444 1764.85 50.3555C1765.08 50.2669 1765.28 50.1484 1765.46 50C1765.63 49.849 1765.76 49.6836 1765.87 49.5039L1766.49 49.7187C1766.36 49.9714 1766.17 50.2044 1765.93 50.418C1765.69 50.6315 1765.4 50.8034 1765.07 50.9336C1764.74 51.0612 1764.38 51.125 1763.97 51.125Z" fill="white"/>
<path d="M1736 35V25.9091H1737.37V29.8597H1741.9V25.9091H1743.28V35H1741.9V31.036H1737.37V35H1736ZM1748.11 35.1376C1747.44 35.1376 1746.86 34.9941 1746.37 34.707C1745.89 34.417 1745.52 34.0101 1745.25 33.4863C1744.99 32.9596 1744.86 32.3426 1744.86 31.6353C1744.86 30.9369 1744.99 30.3214 1745.25 29.7887C1745.52 29.256 1745.88 28.8403 1746.35 28.5414C1746.83 28.2425 1747.38 28.093 1748.01 28.093C1748.4 28.093 1748.77 28.1567 1749.13 28.2839C1749.49 28.4112 1749.82 28.6109 1750.11 28.8832C1750.39 29.1554 1750.62 29.5091 1750.78 29.9441C1750.95 30.3761 1751.03 30.9014 1751.03 31.5199V31.9904H1745.61V30.9961H1749.73C1749.73 30.6469 1749.66 30.3377 1749.52 30.0684C1749.38 29.7961 1749.18 29.5816 1748.92 29.4247C1748.67 29.2679 1748.37 29.1895 1748.02 29.1895C1747.65 29.1895 1747.33 29.2812 1747.05 29.4647C1746.77 29.6452 1746.56 29.8819 1746.41 30.1749C1746.26 30.4649 1746.19 30.7801 1746.19 31.1204V31.8972C1746.19 32.3529 1746.27 32.7406 1746.43 33.0602C1746.59 33.3798 1746.81 33.6239 1747.1 33.7926C1747.39 33.9583 1747.73 34.0412 1748.12 34.0412C1748.37 34.0412 1748.6 34.0057 1748.81 33.9347C1749.02 33.8607 1749.2 33.7512 1749.35 33.6062C1749.5 33.4612 1749.61 33.2821 1749.69 33.0691L1750.95 33.2955C1750.85 33.6654 1750.67 33.9894 1750.41 34.2676C1750.15 34.5428 1749.83 34.7573 1749.44 34.9112C1749.05 35.0621 1748.61 35.1376 1748.11 35.1376ZM1753.83 25.9091V35H1752.51V25.9091H1753.83ZM1756.95 25.9091V35H1755.62V25.9091H1756.95ZM1761.6 35.1376C1760.96 35.1376 1760.41 34.9911 1759.93 34.6982C1759.45 34.4052 1759.08 33.9953 1758.82 33.4686C1758.56 32.9418 1758.43 32.3263 1758.43 31.622C1758.43 30.9147 1758.56 30.2962 1758.82 29.7665C1759.08 29.2368 1759.45 28.8255 1759.93 28.5325C1760.41 28.2395 1760.96 28.093 1761.6 28.093C1762.24 28.093 1762.8 28.2395 1763.28 28.5325C1763.75 28.8255 1764.12 29.2368 1764.39 29.7665C1764.65 30.2962 1764.78 30.9147 1764.78 31.622C1764.78 32.3263 1764.65 32.9418 1764.39 33.4686C1764.12 33.9953 1763.75 34.4052 1763.28 34.6982C1762.8 34.9911 1762.24 35.1376 1761.6 35.1376ZM1761.61 34.0234C1762.02 34.0234 1762.37 33.9139 1762.64 33.695C1762.91 33.476 1763.11 33.1845 1763.24 32.8205C1763.37 32.4565 1763.44 32.0555 1763.44 31.6175C1763.44 31.1825 1763.37 30.783 1763.24 30.419C1763.11 30.0521 1762.91 29.7576 1762.64 29.5357C1762.37 29.3137 1762.02 29.2028 1761.61 29.2028C1761.19 29.2028 1760.84 29.3137 1760.57 29.5357C1760.3 29.7576 1760.09 30.0521 1759.96 30.419C1759.83 30.783 1759.77 31.1825 1759.77 31.6175C1759.77 32.0555 1759.83 32.4565 1759.96 32.8205C1760.09 33.1845 1760.3 33.476 1760.57 33.695C1760.84 33.9139 1761.19 34.0234 1761.61 34.0234ZM1774.64 28.2972C1774.59 27.877 1774.39 27.5515 1774.05 27.3207C1773.71 27.0869 1773.27 26.97 1772.75 26.97C1772.38 26.97 1772.06 27.0292 1771.79 27.1475C1771.51 27.263 1771.3 27.4228 1771.15 27.627C1771 27.8282 1770.93 28.0575 1770.93 28.315C1770.93 28.531 1770.98 28.7174 1771.08 28.8743C1771.18 29.0311 1771.32 29.1628 1771.48 29.2694C1771.65 29.3729 1771.83 29.4602 1772.03 29.5312C1772.22 29.5993 1772.4 29.6555 1772.58 29.6999L1773.47 29.9308C1773.76 30.0018 1774.06 30.098 1774.36 30.2193C1774.67 30.3406 1774.95 30.5004 1775.21 30.6987C1775.47 30.897 1775.68 31.1426 1775.84 31.4355C1776 31.7285 1776.08 32.0792 1776.08 32.4876C1776.08 33.0025 1775.95 33.4597 1775.68 33.8592C1775.42 34.2587 1775.04 34.5739 1774.53 34.8047C1774.03 35.0355 1773.43 35.1509 1772.72 35.1509C1772.04 35.1509 1771.45 35.0429 1770.95 34.8269C1770.45 34.6109 1770.07 34.3046 1769.78 33.908C1769.5 33.5085 1769.35 33.035 1769.32 32.4876H1770.69C1770.72 32.8161 1770.83 33.0898 1771.01 33.3088C1771.2 33.5248 1771.44 33.6861 1771.74 33.7926C1772.03 33.8962 1772.36 33.948 1772.71 33.948C1773.1 33.948 1773.44 33.8873 1773.74 33.766C1774.05 33.6417 1774.29 33.4701 1774.46 33.2511C1774.64 33.0291 1774.73 32.7702 1774.73 32.4743C1774.73 32.205 1774.65 31.9845 1774.49 31.8129C1774.34 31.6412 1774.14 31.4992 1773.88 31.3867C1773.62 31.2743 1773.33 31.1751 1773 31.0893L1771.93 30.7963C1771.2 30.5981 1770.62 30.3066 1770.2 29.9219C1769.77 29.5372 1769.56 29.0282 1769.56 28.3949C1769.56 27.8711 1769.7 27.4139 1769.99 27.0233C1770.27 26.6326 1770.66 26.3293 1771.14 26.1133C1771.63 25.8943 1772.18 25.7848 1772.79 25.7848C1773.4 25.7848 1773.94 25.8928 1774.41 26.1088C1774.89 26.3249 1775.26 26.6223 1775.53 27.0011C1775.81 27.3769 1775.95 27.8089 1775.96 28.2972H1774.64ZM1779.6 35.1509C1779.17 35.1509 1778.78 35.071 1778.43 34.9112C1778.08 34.7485 1777.8 34.5132 1777.6 34.2054C1777.4 33.8977 1777.3 33.5204 1777.3 33.0735C1777.3 32.6888 1777.37 32.3722 1777.52 32.1236C1777.67 31.875 1777.87 31.6782 1778.12 31.5332C1778.37 31.3882 1778.65 31.2787 1778.96 31.2047C1779.27 31.1307 1779.59 31.0745 1779.91 31.036C1780.32 30.9887 1780.65 30.9502 1780.91 30.9206C1781.16 30.8881 1781.34 30.8363 1781.46 30.7653C1781.58 30.6942 1781.63 30.5788 1781.63 30.419V30.388C1781.63 30.0003 1781.52 29.6999 1781.3 29.4869C1781.09 29.2738 1780.77 29.1673 1780.34 29.1673C1779.89 29.1673 1779.54 29.2664 1779.28 29.4647C1779.03 29.66 1778.85 29.8775 1778.75 30.1172L1777.5 29.8331C1777.65 29.4188 1777.87 29.0844 1778.15 28.8299C1778.44 28.5724 1778.77 28.386 1779.14 28.2706C1779.52 28.1522 1779.91 28.093 1780.32 28.093C1780.59 28.093 1780.88 28.1256 1781.18 28.1907C1781.49 28.2528 1781.78 28.3683 1782.05 28.5369C1782.32 28.7056 1782.54 28.9468 1782.71 29.2605C1782.88 29.5712 1782.96 29.9751 1782.96 30.4723V35H1781.67V34.0678H1781.62C1781.53 34.2395 1781.4 34.4081 1781.23 34.5739C1781.06 34.7396 1780.84 34.8772 1780.57 34.9867C1780.3 35.0962 1779.98 35.1509 1779.6 35.1509ZM1779.89 34.0856C1780.26 34.0856 1780.57 34.0131 1780.83 33.8681C1781.09 33.7231 1781.29 33.5337 1781.43 33.2999C1781.57 33.0632 1781.64 32.8101 1781.64 32.5408V31.6619C1781.59 31.7093 1781.5 31.7537 1781.36 31.7951C1781.23 31.8336 1781.08 31.8676 1780.91 31.8972C1780.73 31.9238 1780.57 31.949 1780.4 31.9727C1780.24 31.9934 1780.1 32.0111 1780 32.0259C1779.74 32.0585 1779.5 32.1132 1779.29 32.1902C1779.08 32.2671 1778.91 32.3781 1778.78 32.5231C1778.66 32.6651 1778.6 32.8545 1778.6 33.0913C1778.6 33.4197 1778.72 33.6683 1778.96 33.837C1779.2 34.0027 1779.51 34.0856 1779.89 34.0856ZM1784.73 35V28.1818H1786.06V35H1784.73ZM1785.4 27.1298C1785.17 27.1298 1784.97 27.0529 1784.81 26.899C1784.65 26.7421 1784.56 26.5557 1784.56 26.3397C1784.56 26.1207 1784.65 25.9342 1784.81 25.7804C1784.97 25.6235 1785.17 25.5451 1785.4 25.5451C1785.63 25.5451 1785.83 25.6235 1785.99 25.7804C1786.16 25.9342 1786.24 26.1207 1786.24 26.3397C1786.24 26.5557 1786.16 26.7421 1785.99 26.899C1785.83 27.0529 1785.63 27.1298 1785.4 27.1298ZM1789.17 30.9517V35H1787.85V28.1818H1789.12V29.2915H1789.2C1789.36 28.9305 1789.61 28.6405 1789.94 28.4215C1790.28 28.2025 1790.7 28.093 1791.21 28.093C1791.68 28.093 1792.09 28.1907 1792.44 28.386C1792.78 28.5784 1793.06 28.8654 1793.25 29.2472C1793.44 29.6289 1793.54 30.1009 1793.54 30.6632V35H1792.21V30.823C1792.21 30.3288 1792.08 29.9426 1791.82 29.6644C1791.57 29.3833 1791.21 29.2427 1790.76 29.2427C1790.45 29.2427 1790.18 29.3093 1789.94 29.4425C1789.7 29.5756 1789.52 29.771 1789.38 30.0284C1789.24 30.2829 1789.17 30.5907 1789.17 30.9517ZM1797.3 35.1509C1796.87 35.1509 1796.48 35.071 1796.13 34.9112C1795.78 34.7485 1795.5 34.5132 1795.3 34.2054C1795.1 33.8977 1795 33.5204 1795 33.0735C1795 32.6888 1795.07 32.3722 1795.22 32.1236C1795.37 31.875 1795.57 31.6782 1795.82 31.5332C1796.07 31.3882 1796.35 31.2787 1796.66 31.2047C1796.97 31.1307 1797.29 31.0745 1797.61 31.036C1798.02 30.9887 1798.35 30.9502 1798.61 30.9206C1798.86 30.8881 1799.04 30.8363 1799.16 30.7653C1799.28 30.6942 1799.33 30.5788 1799.33 30.419V30.388C1799.33 30.0003 1799.22 29.6999 1799 29.4869C1798.79 29.2738 1798.47 29.1673 1798.04 29.1673C1797.59 29.1673 1797.24 29.2664 1796.98 29.4647C1796.73 29.66 1796.55 29.8775 1796.45 30.1172L1795.21 29.8331C1795.35 29.4188 1795.57 29.0844 1795.85 28.8299C1796.14 28.5724 1796.47 28.386 1796.84 28.2706C1797.22 28.1522 1797.61 28.093 1798.02 28.093C1798.29 28.093 1798.58 28.1256 1798.88 28.1907C1799.19 28.2528 1799.48 28.3683 1799.75 28.5369C1800.02 28.7056 1800.24 28.9468 1800.41 29.2605C1800.58 29.5712 1800.66 29.9751 1800.66 30.4723V35H1799.37V34.0678H1799.32C1799.23 34.2395 1799.1 34.4081 1798.93 34.5739C1798.76 34.7396 1798.54 34.8772 1798.27 34.9867C1798 35.0962 1797.68 35.1509 1797.3 35.1509ZM1797.59 34.0856C1797.96 34.0856 1798.27 34.0131 1798.53 33.8681C1798.79 33.7231 1798.99 33.5337 1799.13 33.2999C1799.27 33.0632 1799.34 32.8101 1799.34 32.5408V31.6619C1799.29 31.7093 1799.2 31.7537 1799.06 31.7951C1798.93 31.8336 1798.78 31.8676 1798.61 31.8972C1798.43 31.9238 1798.27 31.949 1798.1 31.9727C1797.94 31.9934 1797.8 32.0111 1797.7 32.0259C1797.44 32.0585 1797.2 32.1132 1796.99 32.1902C1796.78 32.2671 1796.61 32.3781 1796.48 32.5231C1796.36 32.6651 1796.3 32.8545 1796.3 33.0913C1796.3 33.4197 1796.42 33.6683 1796.66 33.837C1796.9 34.0027 1797.21 34.0856 1797.59 34.0856ZM1804.99 35.1332C1804.43 35.1332 1803.94 34.9926 1803.51 34.7115C1803.08 34.4274 1802.74 34.0234 1802.5 33.4996C1802.26 32.9729 1802.14 32.3411 1802.14 31.6042C1802.14 30.8674 1802.26 30.237 1802.5 29.7132C1802.75 29.1895 1803.09 28.7885 1803.52 28.5103C1803.96 28.2321 1804.45 28.093 1804.99 28.093C1805.42 28.093 1805.76 28.1641 1806.01 28.3061C1806.28 28.4452 1806.48 28.608 1806.62 28.7944C1806.76 28.9808 1806.88 29.1451 1806.96 29.2871H1807.04V25.9091H1808.36V35H1807.07V33.9391H1806.96C1806.88 34.0841 1806.76 34.2498 1806.61 34.4363C1806.46 34.6227 1806.26 34.7855 1806 34.9245C1805.74 35.0636 1805.4 35.1332 1804.99 35.1332ZM1805.28 34.0012C1805.66 34.0012 1805.98 33.9006 1806.25 33.6994C1806.51 33.4952 1806.71 33.2126 1806.85 32.8516C1806.99 32.4905 1807.06 32.0703 1807.06 31.5909C1807.06 31.1174 1806.99 30.7031 1806.85 30.348C1806.72 29.9929 1806.52 29.7162 1806.25 29.5179C1805.99 29.3197 1805.67 29.2205 1805.28 29.2205C1804.88 29.2205 1804.55 29.3241 1804.28 29.5312C1804.01 29.7384 1803.81 30.021 1803.68 30.3791C1803.54 30.7372 1803.48 31.1411 1803.48 31.5909C1803.48 32.0466 1803.54 32.4565 1803.68 32.8205C1803.82 33.1845 1804.02 33.473 1804.28 33.6861C1804.55 33.8962 1804.88 34.0012 1805.28 34.0012ZM1811.58 30.9517V35H1810.26V25.9091H1811.57V29.2915H1811.65C1811.81 28.9246 1812.06 28.6331 1812.38 28.4171C1812.71 28.2011 1813.14 28.093 1813.67 28.093C1814.14 28.093 1814.55 28.1892 1814.9 28.3816C1815.25 28.5739 1815.52 28.861 1815.71 29.2427C1815.91 29.6215 1816.01 30.095 1816.01 30.6632V35H1814.68V30.823C1814.68 30.3229 1814.55 29.9352 1814.29 29.66C1814.03 29.3818 1813.68 29.2427 1813.22 29.2427C1812.9 29.2427 1812.62 29.3093 1812.37 29.4425C1812.13 29.5756 1811.94 29.771 1811.79 30.0284C1811.65 30.2829 1811.58 30.5907 1811.58 30.9517Z" fill="white"/>
<rect y="95" width="1920" height="985" fill="#1D1F21"/>
<rect x="1773" y="41" width="7" height="7" rx="3.5" fill="#FF6600"/>
<path d="M0 124H125C172.14 124 195.711 124 210.355 138.645C225 153.289 225 176.86 225 224V954C225 1001.14 225 1024.71 210.355 1039.36C195.711 1054 172.14 1054 125 1054H0V124Z" fill="url(#paint0_linear_56_24)"/>
<path d="M125 124.5C148.584 124.5 166.222 124.501 179.797 126.326C193.357 128.149 202.788 131.784 210.002 138.998C217.216 146.212 220.851 155.643 222.674 169.203C224.499 182.778 224.5 200.416 224.5 224V954C224.5 977.584 224.499 995.222 222.674 1008.8C220.851 1022.36 217.216 1031.79 210.002 1039C202.788 1046.22 193.357 1049.85 179.797 1051.67C166.222 1053.5 148.584 1053.5 125 1053.5H0.5V124.5H125Z" stroke="#DADADA" stroke-opacity="0.4"/>
<rect y="425" width="225" height="68" fill="#1D1F21"/>
<rect x="246" y="293" width="1653" height="760" rx="20" fill="#2C2E30"/>
<rect x="246.5" y="293.5" width="1652" height="759" rx="19.5" stroke="#DADADA" stroke-opacity="0.4"/>
<rect x="1450.5" y="16.5" width="167" height="66" rx="19.5" fill="#444648" stroke="#F6903A"/>
<rect x="246" y="124" width="1653" height="140" rx="20" fill="#2C2E30"/>
<rect x="246.5" y="124.5" width="1652" height="139" rx="19.5" stroke="#DADADA" stroke-opacity="0.4"/>
<path d="M1705.96 37.2972C1705.91 36.877 1705.71 36.5515 1705.37 36.3207C1705.03 36.0869 1704.6 35.97 1704.07 35.97C1703.7 35.97 1703.38 36.0292 1703.11 36.1475C1702.83 36.263 1702.62 36.4228 1702.47 36.627C1702.32 36.8282 1702.25 37.0575 1702.25 37.315C1702.25 37.531 1702.3 37.7174 1702.4 37.8743C1702.51 38.0311 1702.64 38.1628 1702.81 38.2694C1702.97 38.3729 1703.15 38.4602 1703.35 38.5312C1703.54 38.5993 1703.72 38.6555 1703.9 38.6999L1704.79 38.9308C1705.08 39.0018 1705.38 39.098 1705.68 39.2193C1705.99 39.3406 1706.27 39.5004 1706.53 39.6987C1706.79 39.897 1707 40.1426 1707.16 40.4355C1707.32 40.7285 1707.4 41.0792 1707.4 41.4876C1707.4 42.0025 1707.27 42.4597 1707 42.8592C1706.74 43.2587 1706.36 43.5739 1705.85 43.8047C1705.35 44.0355 1704.75 44.1509 1704.04 44.1509C1703.36 44.1509 1702.77 44.0429 1702.27 43.8269C1701.78 43.6109 1701.39 43.3046 1701.11 42.908C1700.82 42.5085 1700.67 42.035 1700.64 41.4876H1702.02C1702.04 41.8161 1702.15 42.0898 1702.33 42.3088C1702.52 42.5248 1702.77 42.6861 1703.06 42.7926C1703.35 42.8962 1703.68 42.948 1704.03 42.948C1704.42 42.948 1704.76 42.8873 1705.06 42.766C1705.37 42.6417 1705.61 42.4701 1705.78 42.2511C1705.96 42.0291 1706.05 41.7702 1706.05 41.4743C1706.05 41.205 1705.97 40.9845 1705.81 40.8129C1705.66 40.6412 1705.46 40.4992 1705.2 40.3867C1704.94 40.2743 1704.65 40.1751 1704.32 40.0893L1703.25 39.7963C1702.52 39.5981 1701.94 39.3066 1701.52 38.9219C1701.09 38.5372 1700.88 38.0282 1700.88 37.3949C1700.88 36.8711 1701.03 36.4139 1701.31 36.0233C1701.59 35.6326 1701.98 35.3293 1702.46 35.1133C1702.95 34.8943 1703.5 34.7848 1704.11 34.7848C1704.72 34.7848 1705.26 34.8928 1705.74 35.1088C1706.21 35.3249 1706.58 35.6223 1706.85 36.0011C1707.13 36.3769 1707.27 36.8089 1707.28 37.2972H1705.96ZM1709.04 44V34.9091H1712.28C1712.99 34.9091 1713.58 35.0378 1714.04 35.2953C1714.51 35.5527 1714.85 35.9049 1715.08 36.3517C1715.32 36.7956 1715.43 37.2958 1715.43 37.8521C1715.43 38.4114 1715.31 38.9145 1715.08 39.3613C1714.85 39.8052 1714.5 40.1574 1714.03 40.4178C1713.57 40.6752 1712.98 40.804 1712.28 40.804H1710.05V39.641H1712.15C1712.6 39.641 1712.96 39.564 1713.24 39.4102C1713.52 39.2533 1713.72 39.0402 1713.85 38.771C1713.99 38.5017 1714.05 38.1954 1714.05 37.8521C1714.05 37.5088 1713.99 37.204 1713.85 36.9377C1713.72 36.6713 1713.52 36.4627 1713.24 36.3118C1712.96 36.1609 1712.59 36.0854 1712.14 36.0854H1710.41V44H1709.04Z" fill="#191919"/>
<path d="M32.538 48V29.1H35.427L43.689 42.897H42.177L50.304 29.1H53.193L53.22 48H49.899L49.872 34.311H50.574L43.662 45.84H42.096L35.076 34.311H35.886V48H32.538ZM66.8841 48V45.084L66.6951 44.463V39.36C66.6951 38.37 66.3981 37.605 65.8041 37.065C65.2101 36.507 64.3101 36.228 63.1041 36.228C62.2941 36.228 61.4931 36.354 60.7011 36.606C59.9271 36.858 59.2701 37.209 58.7301 37.659L57.4071 35.202C58.1811 34.608 59.0991 34.167 60.1611 33.879C61.2411 33.573 62.3571 33.42 63.5091 33.42C65.5971 33.42 67.2081 33.924 68.3421 34.932C69.4941 35.922 70.0701 37.461 70.0701 39.549V48H66.8841ZM62.3481 48.189C61.2681 48.189 60.3231 48.009 59.5131 47.649C58.7031 47.271 58.0731 46.758 57.6231 46.11C57.1911 45.444 56.9751 44.697 56.9751 43.869C56.9751 43.059 57.1641 42.33 57.5421 41.682C57.9381 41.034 58.5771 40.521 59.4591 40.143C60.3411 39.765 61.5111 39.576 62.9691 39.576H67.1541V41.817H63.2121C62.0601 41.817 61.2861 42.006 60.8901 42.384C60.4941 42.744 60.2961 43.194 60.2961 43.734C60.2961 44.346 60.5391 44.832 61.0251 45.192C61.5111 45.552 62.1861 45.732 63.0501 45.732C63.8781 45.732 64.6161 45.543 65.2641 45.165C65.9301 44.787 66.4071 44.229 66.6951 43.491L67.2621 45.516C66.9381 46.362 66.3531 47.019 65.5071 47.487C64.6791 47.955 63.6261 48.189 62.3481 48.189ZM82.5825 33.42C83.7345 33.42 84.7605 33.645 85.6605 34.095C86.5785 34.545 87.2985 35.238 87.8205 36.174C88.3425 37.092 88.6035 38.28 88.6035 39.738V48H85.2285V40.17C85.2285 38.892 84.9225 37.938 84.3105 37.308C83.7165 36.678 82.8795 36.363 81.7995 36.363C81.0075 36.363 80.3055 36.525 79.6935 36.849C79.0815 37.173 78.6045 37.659 78.2625 38.307C77.9385 38.937 77.7765 39.738 77.7765 40.71V48H74.4015V33.582H77.6145V37.47L77.0475 36.282C77.5515 35.364 78.2805 34.662 79.2345 34.176C80.2065 33.672 81.3225 33.42 82.5825 33.42ZM98.9869 48.189C97.7629 48.189 96.6829 47.964 95.7469 47.514C94.8109 47.046 94.0819 46.344 93.5599 45.408C93.0379 44.454 92.7769 43.257 92.7769 41.817V33.582H96.1519V41.358C96.1519 42.654 96.4399 43.626 97.0159 44.274C97.6099 44.904 98.4469 45.219 99.5269 45.219C100.319 45.219 101.003 45.057 101.579 44.733C102.173 44.409 102.632 43.923 102.956 43.275C103.298 42.627 103.469 41.826 103.469 40.872V33.582H106.844V48H103.631V44.112L104.198 45.3C103.712 46.236 103.001 46.956 102.065 47.46C101.129 47.946 100.103 48.189 98.9869 48.189ZM111.722 48V32.772C111.722 31.26 112.163 30.054 113.045 29.154C113.945 28.236 115.223 27.777 116.879 27.777C117.473 27.777 118.031 27.84 118.553 27.966C119.093 28.092 119.543 28.29 119.903 28.56L118.985 31.098C118.733 30.9 118.445 30.756 118.121 30.666C117.797 30.558 117.464 30.504 117.122 30.504C116.42 30.504 115.889 30.702 115.529 31.098C115.169 31.476 114.989 32.052 114.989 32.826V34.446L115.097 35.958V48H111.722ZM109.346 36.39V33.69H118.958V36.39H109.346ZM129.849 48V45.084L129.66 44.463V39.36C129.66 38.37 129.363 37.605 128.769 37.065C128.175 36.507 127.275 36.228 126.069 36.228C125.259 36.228 124.458 36.354 123.666 36.606C122.892 36.858 122.235 37.209 121.695 37.659L120.372 35.202C121.146 34.608 122.064 34.167 123.126 33.879C124.206 33.573 125.322 33.42 126.474 33.42C128.562 33.42 130.173 33.924 131.307 34.932C132.459 35.922 133.035 37.461 133.035 39.549V48H129.849ZM125.313 48.189C124.233 48.189 123.288 48.009 122.478 47.649C121.668 47.271 121.038 46.758 120.588 46.11C120.156 45.444 119.94 44.697 119.94 43.869C119.94 43.059 120.129 42.33 120.507 41.682C120.903 41.034 121.542 40.521 122.424 40.143C123.306 39.765 124.476 39.576 125.934 39.576H130.119V41.817H126.177C125.025 41.817 124.251 42.006 123.855 42.384C123.459 42.744 123.261 43.194 123.261 43.734C123.261 44.346 123.504 44.832 123.99 45.192C124.476 45.552 125.151 45.732 126.015 45.732C126.843 45.732 127.581 45.543 128.229 45.165C128.895 44.787 129.372 44.229 129.66 43.491L130.227 45.516C129.903 46.362 129.318 47.019 128.472 47.487C127.644 47.955 126.591 48.189 125.313 48.189ZM144.008 48.189C142.496 48.189 141.146 47.874 139.958 47.244C138.788 46.596 137.87 45.714 137.204 44.598C136.538 43.482 136.205 42.213 136.205 40.791C136.205 39.351 136.538 38.082 137.204 36.984C137.87 35.868 138.788 34.995 139.958 34.365C141.146 33.735 142.496 33.42 144.008 33.42C145.412 33.42 146.645 33.708 147.707 34.284C148.787 34.842 149.606 35.67 150.164 36.768L147.572 38.28C147.14 37.596 146.609 37.092 145.979 36.768C145.367 36.444 144.701 36.282 143.981 36.282C143.153 36.282 142.406 36.462 141.74 36.822C141.074 37.182 140.552 37.704 140.174 38.388C139.796 39.054 139.607 39.855 139.607 40.791C139.607 41.727 139.796 42.537 140.174 43.221C140.552 43.887 141.074 44.4 141.74 44.76C142.406 45.12 143.153 45.3 143.981 45.3C144.701 45.3 145.367 45.138 145.979 44.814C146.609 44.49 147.14 43.986 147.572 43.302L150.164 44.814C149.606 45.894 148.787 46.731 147.707 47.325C146.645 47.901 145.412 48.189 144.008 48.189ZM158.693 48.189C157.109 48.189 155.885 47.784 155.021 46.974C154.157 46.146 153.725 44.931 153.725 43.329V30.396H157.1V43.248C157.1 43.932 157.271 44.463 157.613 44.841C157.973 45.219 158.468 45.408 159.098 45.408C159.854 45.408 160.484 45.21 160.988 44.814L161.933 47.217C161.537 47.541 161.051 47.784 160.475 47.946C159.899 48.108 159.305 48.189 158.693 48.189ZM151.349 36.39V33.69H160.961V36.39H151.349ZM170.811 48.189C169.587 48.189 168.507 47.964 167.571 47.514C166.635 47.046 165.906 46.344 165.384 45.408C164.862 44.454 164.601 43.257 164.601 41.817V33.582H167.976V41.358C167.976 42.654 168.264 43.626 168.84 44.274C169.434 44.904 170.271 45.219 171.351 45.219C172.143 45.219 172.827 45.057 173.403 44.733C173.997 44.409 174.456 43.923 174.78 43.275C175.122 42.627 175.293 41.826 175.293 40.872V33.582H178.668V48H175.455V44.112L176.022 45.3C175.536 46.236 174.825 46.956 173.889 47.46C172.953 47.946 171.927 48.189 170.811 48.189ZM183.087 48V33.582H186.3V37.551L185.922 36.39C186.354 35.418 187.029 34.68 187.947 34.176C188.883 33.672 190.044 33.42 191.43 33.42V36.633C191.286 36.597 191.151 36.579 191.025 36.579C190.899 36.561 190.773 36.552 190.647 36.552C189.369 36.552 188.352 36.93 187.596 37.686C186.84 38.424 186.462 39.531 186.462 41.007V48H183.087ZM194.293 48V33.582H197.668V48H194.293ZM195.994 31.206C195.364 31.206 194.842 31.008 194.428 30.612C194.032 30.216 193.834 29.739 193.834 29.181C193.834 28.605 194.032 28.128 194.428 27.75C194.842 27.354 195.364 27.156 195.994 27.156C196.624 27.156 197.137 27.345 197.533 27.723C197.947 28.083 198.154 28.542 198.154 29.1C198.154 29.694 197.956 30.198 197.56 30.612C197.164 31.008 196.642 31.206 195.994 31.206ZM210.279 33.42C211.431 33.42 212.457 33.645 213.357 34.095C214.275 34.545 214.995 35.238 215.517 36.174C216.039 37.092 216.3 38.28 216.3 39.738V48H212.925V40.17C212.925 38.892 212.619 37.938 212.007 37.308C211.413 36.678 210.576 36.363 209.496 36.363C208.704 36.363 208.002 36.525 207.39 36.849C206.778 37.173 206.301 37.659 205.959 38.307C205.635 38.937 205.473 39.738 205.473 40.71V48H202.098V33.582H205.311V37.47L204.744 36.282C205.248 35.364 205.977 34.662 206.931 34.176C207.903 33.672 209.019 33.42 210.279 33.42ZM227.142 53.427C225.81 53.427 224.505 53.247 223.227 52.887C221.967 52.545 220.932 52.041 220.122 51.375L221.634 48.837C222.264 49.359 223.056 49.773 224.01 50.079C224.982 50.403 225.963 50.565 226.953 50.565C228.537 50.565 229.698 50.196 230.436 49.458C231.174 48.738 231.543 47.649 231.543 46.191V43.626L231.813 40.359L231.705 37.092V33.582H234.918V45.813C234.918 48.423 234.252 50.34 232.92 51.564C231.588 52.806 229.662 53.427 227.142 53.427ZM226.71 47.352C225.342 47.352 224.1 47.064 222.984 46.488C221.886 45.894 221.013 45.075 220.365 44.031C219.735 42.987 219.42 41.763 219.42 40.359C219.42 38.973 219.735 37.758 220.365 36.714C221.013 35.67 221.886 34.86 222.984 34.284C224.1 33.708 225.342 33.42 226.71 33.42C227.934 33.42 229.032 33.663 230.004 34.149C230.976 34.635 231.75 35.391 232.326 36.417C232.92 37.443 233.217 38.757 233.217 40.359C233.217 41.961 232.92 43.284 232.326 44.328C231.75 45.354 230.976 46.119 230.004 46.623C229.032 47.109 227.934 47.352 226.71 47.352ZM227.223 44.49C228.069 44.49 228.825 44.319 229.491 43.977C230.157 43.617 230.67 43.131 231.03 42.519C231.408 41.889 231.597 41.169 231.597 40.359C231.597 39.549 231.408 38.838 231.03 38.226C230.67 37.596 230.157 37.119 229.491 36.795C228.825 36.453 228.069 36.282 227.223 36.282C226.377 36.282 225.612 36.453 224.928 36.795C224.262 37.119 223.74 37.596 223.362 38.226C223.002 38.838 222.822 39.549 222.822 40.359C222.822 41.169 223.002 41.889 223.362 42.519C223.74 43.131 224.262 43.617 224.928 43.977C225.612 44.319 226.377 44.49 227.223 44.49ZM255.889 48.27C254.449 48.27 253.108 48.036 251.866 47.568C250.642 47.082 249.571 46.407 248.653 45.543C247.753 44.661 247.051 43.626 246.547 42.438C246.043 41.25 245.791 39.954 245.791 38.55C245.791 37.146 246.043 35.85 246.547 34.662C247.051 33.474 247.762 32.448 248.68 31.584C249.598 30.702 250.669 30.027 251.893 29.559C253.117 29.073 254.458 28.83 255.916 28.83C257.464 28.83 258.877 29.1 260.155 29.64C261.433 30.162 262.513 30.945 263.395 31.989L261.127 34.122C260.443 33.384 259.678 32.835 258.832 32.475C257.986 32.097 257.068 31.908 256.078 31.908C255.088 31.908 254.179 32.07 253.351 32.394C252.541 32.718 251.83 33.177 251.218 33.771C250.624 34.365 250.156 35.067 249.814 35.877C249.49 36.687 249.328 37.578 249.328 38.55C249.328 39.522 249.49 40.413 249.814 41.223C250.156 42.033 250.624 42.735 251.218 43.329C251.83 43.923 252.541 44.382 253.351 44.706C254.179 45.03 255.088 45.192 256.078 45.192C257.068 45.192 257.986 45.012 258.832 44.652C259.678 44.274 260.443 43.707 261.127 42.951L263.395 45.111C262.513 46.137 261.433 46.92 260.155 47.46C258.877 48 257.455 48.27 255.889 48.27ZM272.36 48.189C270.884 48.189 269.57 47.874 268.418 47.244C267.266 46.596 266.357 45.714 265.691 44.598C265.025 43.482 264.692 42.213 264.692 40.791C264.692 39.351 265.025 38.082 265.691 36.984C266.357 35.868 267.266 34.995 268.418 34.365C269.57 33.735 270.884 33.42 272.36 33.42C273.854 33.42 275.177 33.735 276.329 34.365C277.499 34.995 278.408 35.859 279.056 36.957C279.722 38.055 280.055 39.333 280.055 40.791C280.055 42.213 279.722 43.482 279.056 44.598C278.408 45.714 277.499 46.596 276.329 47.244C275.177 47.874 273.854 48.189 272.36 48.189ZM272.36 45.3C273.188 45.3 273.926 45.12 274.574 44.76C275.222 44.4 275.726 43.878 276.086 43.194C276.464 42.51 276.653 41.709 276.653 40.791C276.653 39.855 276.464 39.054 276.086 38.388C275.726 37.704 275.222 37.182 274.574 36.822C273.926 36.462 273.197 36.282 272.387 36.282C271.559 36.282 270.821 36.462 270.173 36.822C269.543 37.182 269.039 37.704 268.661 38.388C268.283 39.054 268.094 39.855 268.094 40.791C268.094 41.709 268.283 42.51 268.661 43.194C269.039 43.878 269.543 44.4 270.173 44.76C270.821 45.12 271.55 45.3 272.36 45.3ZM287.737 48.189C286.531 48.189 285.37 48.036 284.254 47.73C283.156 47.406 282.283 47.019 281.635 46.569L282.931 44.004C283.579 44.418 284.353 44.76 285.253 45.03C286.153 45.3 287.053 45.435 287.953 45.435C289.015 45.435 289.78 45.291 290.248 45.003C290.734 44.715 290.977 44.328 290.977 43.842C290.977 43.446 290.815 43.149 290.491 42.951C290.167 42.735 289.744 42.573 289.222 42.465C288.7 42.357 288.115 42.258 287.467 42.168C286.837 42.078 286.198 41.961 285.55 41.817C284.92 41.655 284.344 41.43 283.822 41.142C283.3 40.836 282.877 40.431 282.553 39.927C282.229 39.423 282.067 38.757 282.067 37.929C282.067 37.011 282.328 36.219 282.85 35.553C283.372 34.869 284.101 34.347 285.037 33.987C285.991 33.609 287.116 33.42 288.412 33.42C289.384 33.42 290.365 33.528 291.355 33.744C292.345 33.96 293.164 34.266 293.812 34.662L292.516 37.227C291.832 36.813 291.139 36.534 290.437 36.39C289.753 36.228 289.069 36.147 288.385 36.147C287.359 36.147 286.594 36.3 286.09 36.606C285.604 36.912 285.361 37.299 285.361 37.767C285.361 38.199 285.523 38.523 285.847 38.739C286.171 38.955 286.594 39.126 287.116 39.252C287.638 39.378 288.214 39.486 288.844 39.576C289.492 39.648 290.131 39.765 290.761 39.927C291.391 40.089 291.967 40.314 292.489 40.602C293.029 40.872 293.461 41.259 293.785 41.763C294.109 42.267 294.271 42.924 294.271 43.734C294.271 44.634 294.001 45.417 293.461 46.083C292.939 46.749 292.192 47.271 291.22 47.649C290.248 48.009 289.087 48.189 287.737 48.189ZM302.605 48.189C301.021 48.189 299.797 47.784 298.933 46.974C298.069 46.146 297.637 44.931 297.637 43.329V30.396H301.012V43.248C301.012 43.932 301.183 44.463 301.525 44.841C301.885 45.219 302.38 45.408 303.01 45.408C303.766 45.408 304.396 45.21 304.9 44.814L305.845 47.217C305.449 47.541 304.963 47.784 304.387 47.946C303.811 48.108 303.217 48.189 302.605 48.189ZM295.261 36.39V33.69H304.873V36.39H295.261ZM321.861 48.27C320.547 48.27 319.368 48.054 318.324 47.622C317.28 47.19 316.461 46.596 315.867 45.84C315.273 45.084 314.976 44.211 314.976 43.221C314.976 42.321 315.174 41.511 315.57 40.791C315.966 40.071 316.596 39.387 317.46 38.739C318.324 38.073 319.431 37.407 320.781 36.741C321.843 36.219 322.671 35.76 323.265 35.364C323.877 34.968 324.3 34.59 324.534 34.23C324.786 33.87 324.912 33.492 324.912 33.096C324.912 32.556 324.723 32.124 324.345 31.8C323.967 31.458 323.427 31.287 322.725 31.287C321.969 31.287 321.375 31.476 320.943 31.854C320.529 32.214 320.322 32.691 320.322 33.285C320.322 33.591 320.376 33.888 320.484 34.176C320.61 34.464 320.826 34.788 321.132 35.148C321.438 35.508 321.879 35.967 322.455 36.525L332.445 46.11L330.582 48.297L319.782 37.929C319.17 37.335 318.675 36.786 318.297 36.282C317.919 35.778 317.649 35.292 317.487 34.824C317.325 34.338 317.244 33.843 317.244 33.339C317.244 32.457 317.469 31.683 317.919 31.017C318.369 30.333 319.008 29.811 319.836 29.451C320.664 29.073 321.627 28.884 322.725 28.884C323.751 28.884 324.633 29.055 325.371 29.397C326.127 29.721 326.712 30.198 327.126 30.828C327.558 31.44 327.774 32.178 327.774 33.042C327.774 33.798 327.585 34.5 327.207 35.148C326.829 35.778 326.235 36.381 325.425 36.957C324.633 37.533 323.571 38.136 322.239 38.766C321.249 39.252 320.466 39.711 319.89 40.143C319.314 40.575 318.9 41.007 318.648 41.439C318.396 41.871 318.27 42.348 318.27 42.87C318.27 43.392 318.423 43.851 318.729 44.247C319.053 44.643 319.503 44.958 320.079 45.192C320.655 45.408 321.33 45.516 322.104 45.516C323.256 45.516 324.3 45.264 325.236 44.76C326.19 44.238 326.991 43.464 327.639 42.438C328.287 41.412 328.755 40.143 329.043 38.631L331.77 39.522C331.392 41.34 330.735 42.906 329.799 44.22C328.881 45.516 327.747 46.515 326.397 47.217C325.047 47.919 323.535 48.27 321.861 48.27ZM342.933 48V29.1H350.709C352.383 29.1 353.814 29.37 355.002 29.91C356.208 30.45 357.135 31.224 357.783 32.232C358.431 33.24 358.755 34.437 358.755 35.823C358.755 37.209 358.431 38.406 357.783 39.414C357.135 40.422 356.208 41.196 355.002 41.736C353.814 42.276 352.383 42.546 350.709 42.546H344.877L346.443 40.899V48H342.933ZM346.443 41.277L344.877 39.576H350.547C352.095 39.576 353.256 39.252 354.03 38.604C354.822 37.938 355.218 37.011 355.218 35.823C355.218 34.617 354.822 33.69 354.03 33.042C353.256 32.394 352.095 32.07 350.547 32.07H344.877L346.443 30.342V41.277ZM361.804 48V33.582H365.017V37.551L364.639 36.39C365.071 35.418 365.746 34.68 366.664 34.176C367.6 33.672 368.761 33.42 370.147 33.42V36.633C370.003 36.597 369.868 36.579 369.742 36.579C369.616 36.561 369.49 36.552 369.364 36.552C368.086 36.552 367.069 36.93 366.313 37.686C365.557 38.424 365.179 39.531 365.179 41.007V48H361.804ZM379.358 48.189C377.882 48.189 376.568 47.874 375.416 47.244C374.264 46.596 373.355 45.714 372.689 44.598C372.023 43.482 371.69 42.213 371.69 40.791C371.69 39.351 372.023 38.082 372.689 36.984C373.355 35.868 374.264 34.995 375.416 34.365C376.568 33.735 377.882 33.42 379.358 33.42C380.852 33.42 382.175 33.735 383.327 34.365C384.497 34.995 385.406 35.859 386.054 36.957C386.72 38.055 387.053 39.333 387.053 40.791C387.053 42.213 386.72 43.482 386.054 44.598C385.406 45.714 384.497 46.596 383.327 47.244C382.175 47.874 380.852 48.189 379.358 48.189ZM379.358 45.3C380.186 45.3 380.924 45.12 381.572 44.76C382.22 44.4 382.724 43.878 383.084 43.194C383.462 42.51 383.651 41.709 383.651 40.791C383.651 39.855 383.462 39.054 383.084 38.388C382.724 37.704 382.22 37.182 381.572 36.822C380.924 36.462 380.195 36.282 379.385 36.282C378.557 36.282 377.819 36.462 377.171 36.822C376.541 37.182 376.037 37.704 375.659 38.388C375.281 39.054 375.092 39.855 375.092 40.791C375.092 41.709 375.281 42.51 375.659 43.194C376.037 43.878 376.541 44.4 377.171 44.76C377.819 45.12 378.548 45.3 379.358 45.3ZM396.382 48.189C394.996 48.189 393.745 47.883 392.629 47.271C391.531 46.641 390.667 45.777 390.037 44.679C389.407 43.581 389.092 42.285 389.092 40.791C389.092 39.297 389.407 38.001 390.037 36.903C390.667 35.805 391.531 34.95 392.629 34.338C393.745 33.726 394.996 33.42 396.382 33.42C397.588 33.42 398.668 33.69 399.622 34.23C400.576 34.752 401.332 35.553 401.89 36.633C402.448 37.713 402.727 39.099 402.727 40.791C402.727 42.465 402.457 43.851 401.917 44.949C401.377 46.029 400.63 46.839 399.676 47.379C398.722 47.919 397.624 48.189 396.382 48.189ZM396.787 45.3C397.597 45.3 398.317 45.12 398.947 44.76C399.595 44.4 400.108 43.878 400.486 43.194C400.882 42.51 401.08 41.709 401.08 40.791C401.08 39.855 400.882 39.054 400.486 38.388C400.108 37.704 399.595 37.182 398.947 36.822C398.317 36.462 397.597 36.282 396.787 36.282C395.977 36.282 395.248 36.462 394.6 36.822C393.97 37.182 393.457 37.704 393.061 38.388C392.683 39.054 392.494 39.855 392.494 40.791C392.494 41.709 392.683 42.51 393.061 43.194C393.457 43.878 393.97 44.4 394.6 44.76C395.248 45.12 395.977 45.3 396.787 45.3ZM401.161 48V44.598L401.296 40.764L401.026 36.93V27.966H404.374V48H401.161ZM414.919 48.189C413.695 48.189 412.615 47.964 411.679 47.514C410.743 47.046 410.014 46.344 409.492 45.408C408.97 44.454 408.709 43.257 408.709 41.817V33.582H412.084V41.358C412.084 42.654 412.372 43.626 412.948 44.274C413.542 44.904 414.379 45.219 415.459 45.219C416.251 45.219 416.935 45.057 417.511 44.733C418.105 44.409 418.564 43.923 418.888 43.275C419.23 42.627 419.401 41.826 419.401 40.872V33.582H422.776V48H419.563V44.112L420.13 45.3C419.644 46.236 418.933 46.956 417.997 47.46C417.061 47.946 416.035 48.189 414.919 48.189ZM433.809 48.189C432.297 48.189 430.947 47.874 429.759 47.244C428.589 46.596 427.671 45.714 427.005 44.598C426.339 43.482 426.006 42.213 426.006 40.791C426.006 39.351 426.339 38.082 427.005 36.984C427.671 35.868 428.589 34.995 429.759 34.365C430.947 33.735 432.297 33.42 433.809 33.42C435.213 33.42 436.446 33.708 437.508 34.284C438.588 34.842 439.407 35.67 439.965 36.768L437.373 38.28C436.941 37.596 436.41 37.092 435.78 36.768C435.168 36.444 434.502 36.282 433.782 36.282C432.954 36.282 432.207 36.462 431.541 36.822C430.875 37.182 430.353 37.704 429.975 38.388C429.597 39.054 429.408 39.855 429.408 40.791C429.408 41.727 429.597 42.537 429.975 43.221C430.353 43.887 430.875 44.4 431.541 44.76C432.207 45.12 432.954 45.3 433.782 45.3C434.502 45.3 435.168 45.138 435.78 44.814C436.41 44.49 436.941 43.986 437.373 43.302L439.965 44.814C439.407 45.894 438.588 46.731 437.508 47.325C436.446 47.901 435.213 48.189 433.809 48.189ZM448.495 48.189C446.911 48.189 445.687 47.784 444.823 46.974C443.959 46.146 443.527 44.931 443.527 43.329V30.396H446.902V43.248C446.902 43.932 447.073 44.463 447.415 44.841C447.775 45.219 448.27 45.408 448.9 45.408C449.656 45.408 450.286 45.21 450.79 44.814L451.735 47.217C451.339 47.541 450.853 47.784 450.277 47.946C449.701 48.108 449.107 48.189 448.495 48.189ZM441.151 36.39V33.69H450.763V36.39H441.151ZM454.511 48V33.582H457.886V48H454.511ZM456.212 31.206C455.582 31.206 455.06 31.008 454.646 30.612C454.25 30.216 454.052 29.739 454.052 29.181C454.052 28.605 454.25 28.128 454.646 27.75C455.06 27.354 455.582 27.156 456.212 27.156C456.842 27.156 457.355 27.345 457.751 27.723C458.165 28.083 458.372 28.542 458.372 29.1C458.372 29.694 458.174 30.198 457.778 30.612C457.382 31.008 456.86 31.206 456.212 31.206ZM468.796 48.189C467.32 48.189 466.006 47.874 464.854 47.244C463.702 46.596 462.793 45.714 462.127 44.598C461.461 43.482 461.128 42.213 461.128 40.791C461.128 39.351 461.461 38.082 462.127 36.984C462.793 35.868 463.702 34.995 464.854 34.365C466.006 33.735 467.32 33.42 468.796 33.42C470.29 33.42 471.613 33.735 472.765 34.365C473.935 34.995 474.844 35.859 475.492 36.957C476.158 38.055 476.491 39.333 476.491 40.791C476.491 42.213 476.158 43.482 475.492 44.598C474.844 45.714 473.935 46.596 472.765 47.244C471.613 47.874 470.29 48.189 468.796 48.189ZM468.796 45.3C469.624 45.3 470.362 45.12 471.01 44.76C471.658 44.4 472.162 43.878 472.522 43.194C472.9 42.51 473.089 41.709 473.089 40.791C473.089 39.855 472.9 39.054 472.522 38.388C472.162 37.704 471.658 37.182 471.01 36.822C470.362 36.462 469.633 36.282 468.823 36.282C467.995 36.282 467.257 36.462 466.609 36.822C465.979 37.182 465.475 37.704 465.097 38.388C464.719 39.054 464.53 39.855 464.53 40.791C464.53 41.709 464.719 42.51 465.097 43.194C465.475 43.878 465.979 44.4 466.609 44.76C467.257 45.12 467.986 45.3 468.796 45.3ZM487.899 33.42C489.051 33.42 490.077 33.645 490.977 34.095C491.895 34.545 492.615 35.238 493.137 36.174C493.659 37.092 493.92 38.28 493.92 39.738V48H490.545V40.17C490.545 38.892 490.239 37.938 489.627 37.308C489.033 36.678 488.196 36.363 487.116 36.363C486.324 36.363 485.622 36.525 485.01 36.849C484.398 37.173 483.921 37.659 483.579 38.307C483.255 38.937 483.093 39.738 483.093 40.71V48H479.718V33.582H482.931V37.47L482.364 36.282C482.868 35.364 483.597 34.662 484.551 34.176C485.523 33.672 486.639 33.42 487.899 33.42ZM503.314 48L511.819 29.1H515.275L523.807 48H520.135L512.818 30.963H514.222L506.932 48H503.314ZM507.229 43.626L508.174 40.872H518.38L519.325 43.626H507.229ZM534.068 33.42C535.22 33.42 536.246 33.645 537.146 34.095C538.064 34.545 538.784 35.238 539.306 36.174C539.828 37.092 540.089 38.28 540.089 39.738V48H536.714V40.17C536.714 38.892 536.408 37.938 535.796 37.308C535.202 36.678 534.365 36.363 533.285 36.363C532.493 36.363 531.791 36.525 531.179 36.849C530.567 37.173 530.09 37.659 529.748 38.307C529.424 38.937 529.262 39.738 529.262 40.71V48H525.887V33.582H529.1V37.47L528.533 36.282C529.037 35.364 529.766 34.662 530.72 34.176C531.692 33.672 532.808 33.42 534.068 33.42ZM553.253 48V45.084L553.064 44.463V39.36C553.064 38.37 552.767 37.605 552.173 37.065C551.579 36.507 550.679 36.228 549.473 36.228C548.663 36.228 547.862 36.354 547.07 36.606C546.296 36.858 545.639 37.209 545.099 37.659L543.776 35.202C544.55 34.608 545.468 34.167 546.53 33.879C547.61 33.573 548.726 33.42 549.878 33.42C551.966 33.42 553.577 33.924 554.711 34.932C555.863 35.922 556.439 37.461 556.439 39.549V48H553.253ZM548.717 48.189C547.637 48.189 546.692 48.009 545.882 47.649C545.072 47.271 544.442 46.758 543.992 46.11C543.56 45.444 543.344 44.697 543.344 43.869C543.344 43.059 543.533 42.33 543.911 41.682C544.307 41.034 544.946 40.521 545.828 40.143C546.71 39.765 547.88 39.576 549.338 39.576H553.523V41.817H549.581C548.429 41.817 547.655 42.006 547.259 42.384C546.863 42.744 546.665 43.194 546.665 43.734C546.665 44.346 546.908 44.832 547.394 45.192C547.88 45.552 548.555 45.732 549.419 45.732C550.247 45.732 550.985 45.543 551.633 45.165C552.299 44.787 552.776 44.229 553.064 43.491L553.631 45.516C553.307 46.362 552.722 47.019 551.876 47.487C551.048 47.955 549.995 48.189 548.717 48.189ZM560.771 48V27.966H564.146V48H560.771ZM569.763 53.427C569.061 53.427 568.359 53.31 567.657 53.076C566.955 52.842 566.37 52.518 565.902 52.104L567.252 49.62C567.594 49.926 567.981 50.169 568.413 50.349C568.845 50.529 569.286 50.619 569.736 50.619C570.348 50.619 570.843 50.466 571.221 50.16C571.599 49.854 571.95 49.341 572.274 48.621L573.111 46.731L573.381 46.326L578.835 33.582H582.075L575.325 49.161C574.875 50.241 574.371 51.096 573.813 51.726C573.273 52.356 572.661 52.797 571.977 53.049C571.311 53.301 570.573 53.427 569.763 53.427ZM572.733 48.513L566.226 33.582H569.736L575.028 46.029L572.733 48.513ZM588.455 48.189C587.249 48.189 586.088 48.036 584.972 47.73C583.874 47.406 583.001 47.019 582.353 46.569L583.649 44.004C584.297 44.418 585.071 44.76 585.971 45.03C586.871 45.3 587.771 45.435 588.671 45.435C589.733 45.435 590.498 45.291 590.966 45.003C591.452 44.715 591.695 44.328 591.695 43.842C591.695 43.446 591.533 43.149 591.209 42.951C590.885 42.735 590.462 42.573 589.94 42.465C589.418 42.357 588.833 42.258 588.185 42.168C587.555 42.078 586.916 41.961 586.268 41.817C585.638 41.655 585.062 41.43 584.54 41.142C584.018 40.836 583.595 40.431 583.271 39.927C582.947 39.423 582.785 38.757 582.785 37.929C582.785 37.011 583.046 36.219 583.568 35.553C584.09 34.869 584.819 34.347 585.755 33.987C586.709 33.609 587.834 33.42 589.13 33.42C590.102 33.42 591.083 33.528 592.073 33.744C593.063 33.96 593.882 34.266 594.53 34.662L593.234 37.227C592.55 36.813 591.857 36.534 591.155 36.39C590.471 36.228 589.787 36.147 589.103 36.147C588.077 36.147 587.312 36.3 586.808 36.606C586.322 36.912 586.079 37.299 586.079 37.767C586.079 38.199 586.241 38.523 586.565 38.739C586.889 38.955 587.312 39.126 587.834 39.252C588.356 39.378 588.932 39.486 589.562 39.576C590.21 39.648 590.849 39.765 591.479 39.927C592.109 40.089 592.685 40.314 593.207 40.602C593.747 40.872 594.179 41.259 594.503 41.763C594.827 42.267 594.989 42.924 594.989 43.734C594.989 44.634 594.719 45.417 594.179 46.083C593.657 46.749 592.91 47.271 591.938 47.649C590.966 48.009 589.805 48.189 588.455 48.189ZM597.896 48V33.582H601.271V48H597.896ZM599.597 31.206C598.967 31.206 598.445 31.008 598.031 30.612C597.635 30.216 597.437 29.739 597.437 29.181C597.437 28.605 597.635 28.128 598.031 27.75C598.445 27.354 598.967 27.156 599.597 27.156C600.227 27.156 600.74 27.345 601.136 27.723C601.55 28.083 601.757 28.542 601.757 29.1C601.757 29.694 601.559 30.198 601.163 30.612C600.767 31.008 600.245 31.206 599.597 31.206ZM610.155 48.189C608.949 48.189 607.788 48.036 606.672 47.73C605.574 47.406 604.701 47.019 604.053 46.569L605.349 44.004C605.997 44.418 606.771 44.76 607.671 45.03C608.571 45.3 609.471 45.435 610.371 45.435C611.433 45.435 612.198 45.291 612.666 45.003C613.152 44.715 613.395 44.328 613.395 43.842C613.395 43.446 613.233 43.149 612.909 42.951C612.585 42.735 612.162 42.573 611.64 42.465C611.118 42.357 610.533 42.258 609.885 42.168C609.255 42.078 608.616 41.961 607.968 41.817C607.338 41.655 606.762 41.43 606.24 41.142C605.718 40.836 605.295 40.431 604.971 39.927C604.647 39.423 604.485 38.757 604.485 37.929C604.485 37.011 604.746 36.219 605.268 35.553C605.79 34.869 606.519 34.347 607.455 33.987C608.409 33.609 609.534 33.42 610.83 33.42C611.802 33.42 612.783 33.528 613.773 33.744C614.763 33.96 615.582 34.266 616.23 34.662L614.934 37.227C614.25 36.813 613.557 36.534 612.855 36.39C612.171 36.228 611.487 36.147 610.803 36.147C609.777 36.147 609.012 36.3 608.508 36.606C608.022 36.912 607.779 37.299 607.779 37.767C607.779 38.199 607.941 38.523 608.265 38.739C608.589 38.955 609.012 39.126 609.534 39.252C610.056 39.378 610.632 39.486 611.262 39.576C611.91 39.648 612.549 39.765 613.179 39.927C613.809 40.089 614.385 40.314 614.907 40.602C615.447 40.872 615.879 41.259 616.203 41.763C616.527 42.267 616.689 42.924 616.689 43.734C616.689 44.634 616.419 45.417 615.879 46.083C615.357 46.749 614.61 47.271 613.638 47.649C612.666 48.009 611.505 48.189 610.155 48.189ZM31.88 72V58H37.64C38.88 58 39.94 58.2 40.82 58.6C41.7133 59 42.4 59.5733 42.88 60.32C43.36 61.0667 43.6 61.9533 43.6 62.98C43.6 64.0067 43.36 64.8933 42.88 65.64C42.4 66.3733 41.7133 66.94 40.82 67.34C39.94 67.7267 38.88 67.92 37.64 67.92H33.32L34.48 66.74V72H31.88ZM41.04 72L37.5 66.92H40.28L43.84 72H41.04ZM34.48 67.02L33.32 65.78H37.52C38.6667 65.78 39.5267 65.5333 40.1 65.04C40.6867 64.5467 40.98 63.86 40.98 62.98C40.98 62.0867 40.6867 61.4 40.1 60.92C39.5267 60.44 38.6667 60.2 37.52 60.2H33.32L34.48 58.92V67.02ZM51.2889 72.14C50.1022 72.14 49.0622 71.9067 48.1689 71.44C47.2889 70.96 46.6022 70.3067 46.1089 69.48C45.6289 68.6533 45.3889 67.7133 45.3889 66.66C45.3889 65.5933 45.6222 64.6533 46.0889 63.84C46.5689 63.0133 47.2222 62.3667 48.0489 61.9C48.8889 61.4333 49.8422 61.2 50.9089 61.2C51.9489 61.2 52.8756 61.4267 53.6889 61.88C54.5022 62.3333 55.1422 62.9733 55.6089 63.8C56.0756 64.6267 56.3089 65.6 56.3089 66.72C56.3089 66.8267 56.3022 66.9467 56.2889 67.08C56.2889 67.2133 56.2822 67.34 56.2689 67.46H47.3689V65.8H54.9489L53.9689 66.32C53.9822 65.7067 53.8556 65.1667 53.5889 64.7C53.3222 64.2333 52.9556 63.8667 52.4889 63.6C52.0356 63.3333 51.5089 63.2 50.9089 63.2C50.2956 63.2 49.7556 63.3333 49.2889 63.6C48.8356 63.8667 48.4756 64.24 48.2089 64.72C47.9556 65.1867 47.8289 65.74 47.8289 66.38V66.78C47.8289 67.42 47.9756 67.9867 48.2689 68.48C48.5622 68.9733 48.9756 69.3533 49.5089 69.62C50.0422 69.8867 50.6556 70.02 51.3489 70.02C51.9489 70.02 52.4889 69.9267 52.9689 69.74C53.4489 69.5533 53.8756 69.26 54.2489 68.86L55.5889 70.4C55.1089 70.96 54.5022 71.3933 53.7689 71.7C53.0489 71.9933 52.2222 72.14 51.2889 72.14ZM62.7303 72.14C61.557 72.14 60.6503 71.84 60.0103 71.24C59.3703 70.6267 59.0503 69.7267 59.0503 68.54V58.96H61.5503V68.48C61.5503 68.9867 61.677 69.38 61.9303 69.66C62.197 69.94 62.5636 70.08 63.0303 70.08C63.5903 70.08 64.057 69.9333 64.4303 69.64L65.1303 71.42C64.837 71.66 64.477 71.84 64.0503 71.96C63.6236 72.08 63.1836 72.14 62.7303 72.14ZM57.2903 63.4V61.4H64.4103V63.4H57.2903ZM73.7669 72V69.84L73.6269 69.38V65.6C73.6269 64.8667 73.4069 64.3 72.9669 63.9C72.5269 63.4867 71.8602 63.28 70.9669 63.28C70.3669 63.28 69.7735 63.3733 69.1869 63.56C68.6135 63.7467 68.1269 64.0067 67.7269 64.34L66.7469 62.52C67.3202 62.08 68.0002 61.7533 68.7869 61.54C69.5869 61.3133 70.4135 61.2 71.2669 61.2C72.8135 61.2 74.0069 61.5733 74.8469 62.32C75.7002 63.0533 76.1269 64.1933 76.1269 65.74V72H73.7669ZM70.4069 72.14C69.6069 72.14 68.9069 72.0067 68.3069 71.74C67.7069 71.46 67.2402 71.08 66.9069 70.6C66.5869 70.1067 66.4269 69.5533 66.4269 68.94C66.4269 68.34 66.5669 67.8 66.8469 67.32C67.1402 66.84 67.6135 66.46 68.2669 66.18C68.9202 65.9 69.7869 65.76 70.8669 65.76H73.9669V67.42H71.0469C70.1935 67.42 69.6202 67.56 69.3269 67.84C69.0335 68.1067 68.8869 68.44 68.8869 68.84C68.8869 69.2933 69.0669 69.6533 69.4269 69.92C69.7869 70.1867 70.2869 70.32 70.9269 70.32C71.5402 70.32 72.0869 70.18 72.5669 69.9C73.0602 69.62 73.4135 69.2067 73.6269 68.66L74.0469 70.16C73.8069 70.7867 73.3735 71.2733 72.7469 71.62C72.1335 71.9667 71.3535 72.14 70.4069 72.14ZM79.3353 72V61.32H81.8353V72H79.3353ZM80.5953 59.56C80.1286 59.56 79.742 59.4133 79.4353 59.12C79.142 58.8267 78.9953 58.4733 78.9953 58.06C78.9953 57.6333 79.142 57.28 79.4353 57C79.742 56.7067 80.1286 56.56 80.5953 56.56C81.062 56.56 81.442 56.7 81.7353 56.98C82.042 57.2467 82.1953 57.5867 82.1953 58C82.1953 58.44 82.0486 58.8133 81.7553 59.12C81.462 59.4133 81.0753 59.56 80.5953 59.56ZM85.1166 72V57.16H87.6166V72H85.1166ZM96.6652 72V58H102.425C103.665 58 104.725 58.2 105.605 58.6C106.498 59 107.185 59.5733 107.665 60.32C108.145 61.0667 108.385 61.9533 108.385 62.98C108.385 64.0067 108.145 64.8933 107.665 65.64C107.185 66.3867 106.498 66.96 105.605 67.36C104.725 67.76 103.665 67.96 102.425 67.96H98.1052L99.2652 66.74V72H96.6652ZM99.2652 67.02L98.1052 65.76H102.305C103.452 65.76 104.312 65.52 104.885 65.04C105.472 64.5467 105.765 63.86 105.765 62.98C105.765 62.0867 105.472 61.4 104.885 60.92C104.312 60.44 103.452 60.2 102.305 60.2H98.1052L99.2652 58.92V67.02ZM117.224 72V69.84L117.084 69.38V65.6C117.084 64.8667 116.864 64.3 116.424 63.9C115.984 63.4867 115.317 63.28 114.424 63.28C113.824 63.28 113.231 63.3733 112.644 63.56C112.071 63.7467 111.584 64.0067 111.184 64.34L110.204 62.52C110.777 62.08 111.457 61.7533 112.244 61.54C113.044 61.3133 113.871 61.2 114.724 61.2C116.271 61.2 117.464 61.5733 118.304 62.32C119.157 63.0533 119.584 64.1933 119.584 65.74V72H117.224ZM113.864 72.14C113.064 72.14 112.364 72.0067 111.764 71.74C111.164 71.46 110.697 71.08 110.364 70.6C110.044 70.1067 109.884 69.5533 109.884 68.94C109.884 68.34 110.024 67.8 110.304 67.32C110.597 66.84 111.071 66.46 111.724 66.18C112.377 65.9 113.244 65.76 114.324 65.76H117.424V67.42H114.504C113.651 67.42 113.077 67.56 112.784 67.84C112.491 68.1067 112.344 68.44 112.344 68.84C112.344 69.2933 112.524 69.6533 112.884 69.92C113.244 70.1867 113.744 70.32 114.384 70.32C114.997 70.32 115.544 70.18 116.024 69.9C116.517 69.62 116.871 69.2067 117.084 68.66L117.504 70.16C117.264 70.7867 116.831 71.2733 116.204 71.62C115.591 71.9667 114.811 72.14 113.864 72.14ZM127.712 72.14C126.592 72.14 125.592 71.9067 124.712 71.44C123.845 70.96 123.165 70.3067 122.672 69.48C122.179 68.6533 121.932 67.7133 121.932 66.66C121.932 65.5933 122.179 64.6533 122.672 63.84C123.165 63.0133 123.845 62.3667 124.712 61.9C125.592 61.4333 126.592 61.2 127.712 61.2C128.752 61.2 129.665 61.4133 130.452 61.84C131.252 62.2533 131.859 62.8667 132.272 63.68L130.352 64.8C130.032 64.2933 129.639 63.92 129.172 63.68C128.719 63.44 128.225 63.32 127.692 63.32C127.079 63.32 126.525 63.4533 126.032 63.72C125.539 63.9867 125.152 64.3733 124.872 64.88C124.592 65.3733 124.452 65.9667 124.452 66.66C124.452 67.3533 124.592 67.9533 124.872 68.46C125.152 68.9533 125.539 69.3333 126.032 69.6C126.525 69.8667 127.079 70 127.692 70C128.225 70 128.719 69.88 129.172 69.64C129.639 69.4 130.032 69.0267 130.352 68.52L132.272 69.64C131.859 70.44 131.252 71.06 130.452 71.5C129.665 71.9267 128.752 72.14 127.712 72.14ZM136.375 69.62L136.435 66.48L142.015 61.32H145.015L140.275 66.08L138.955 67.18L136.375 69.62ZM134.335 72V57.16H136.835V72H134.335ZM142.395 72L138.495 67.18L140.075 65.18L145.435 72H142.395ZM155.418 72L150.837 61.32H153.438L157.378 70.74H156.098L160.178 61.32H162.578L157.998 72H155.418ZM167.303 72.14C166.41 72.14 165.55 72.0267 164.723 71.8C163.91 71.56 163.263 71.2733 162.783 70.94L163.743 69.04C164.223 69.3467 164.797 69.6 165.463 69.8C166.13 70 166.797 70.1 167.463 70.1C168.25 70.1 168.817 69.9933 169.163 69.78C169.523 69.5667 169.703 69.28 169.703 68.92C169.703 68.6267 169.583 68.4067 169.343 68.26C169.103 68.1 168.79 67.98 168.403 67.9C168.017 67.82 167.583 67.7467 167.103 67.68C166.637 67.6133 166.163 67.5267 165.683 67.42C165.217 67.3 164.79 67.1333 164.403 66.92C164.017 66.6933 163.703 66.3933 163.463 66.02C163.223 65.6467 163.103 65.1533 163.103 64.54C163.103 63.86 163.297 63.2733 163.683 62.78C164.07 62.2733 164.61 61.8867 165.303 61.62C166.01 61.34 166.843 61.2 167.803 61.2C168.523 61.2 169.25 61.28 169.983 61.44C170.717 61.6 171.323 61.8267 171.803 62.12L170.843 64.02C170.337 63.7133 169.823 63.5067 169.303 63.4C168.797 63.28 168.29 63.22 167.783 63.22C167.023 63.22 166.457 63.3333 166.083 63.56C165.723 63.7867 165.543 64.0733 165.543 64.42C165.543 64.74 165.663 64.98 165.903 65.14C166.143 65.3 166.457 65.4267 166.843 65.52C167.23 65.6133 167.657 65.6933 168.123 65.76C168.603 65.8133 169.077 65.9 169.543 66.02C170.01 66.14 170.437 66.3067 170.823 66.52C171.223 66.72 171.543 67.0067 171.783 67.38C172.023 67.7533 172.143 68.24 172.143 68.84C172.143 69.5067 171.943 70.0867 171.543 70.58C171.157 71.0733 170.603 71.46 169.883 71.74C169.163 72.0067 168.303 72.14 167.303 72.14ZM180.064 72V58H186.624C188.304 58 189.584 58.3333 190.464 59C191.344 59.6533 191.784 60.5333 191.784 61.64C191.784 62.3867 191.61 63.0267 191.264 63.56C190.917 64.08 190.45 64.4867 189.864 64.78C189.29 65.06 188.664 65.2 187.984 65.2L188.344 64.48C189.13 64.48 189.837 64.6267 190.464 64.92C191.09 65.2 191.584 65.6133 191.944 66.16C192.317 66.7067 192.504 67.3867 192.504 68.2C192.504 69.4 192.044 70.3333 191.124 71C190.204 71.6667 188.837 72 187.024 72H180.064ZM182.664 69.96H186.864C187.837 69.96 188.584 69.8 189.104 69.48C189.624 69.16 189.884 68.6467 189.884 67.94C189.884 67.2467 189.624 66.74 189.104 66.42C188.584 66.0867 187.837 65.92 186.864 65.92H182.464V63.9H186.344C187.25 63.9 187.944 63.74 188.424 63.42C188.917 63.1 189.164 62.62 189.164 61.98C189.164 61.3267 188.917 60.84 188.424 60.52C187.944 60.2 187.25 60.04 186.344 60.04H182.664V69.96ZM201.618 72V69.84L201.478 69.38V65.6C201.478 64.8667 201.258 64.3 200.818 63.9C200.378 63.4867 199.712 63.28 198.818 63.28C198.218 63.28 197.625 63.3733 197.038 63.56C196.465 63.7467 195.978 64.0067 195.578 64.34L194.598 62.52C195.172 62.08 195.852 61.7533 196.638 61.54C197.438 61.3133 198.265 61.2 199.118 61.2C200.665 61.2 201.858 61.5733 202.698 62.32C203.552 63.0533 203.978 64.1933 203.978 65.74V72H201.618ZM198.258 72.14C197.458 72.14 196.758 72.0067 196.158 71.74C195.558 71.46 195.092 71.08 194.758 70.6C194.438 70.1067 194.278 69.5533 194.278 68.94C194.278 68.34 194.418 67.8 194.698 67.32C194.992 66.84 195.465 66.46 196.118 66.18C196.772 65.9 197.638 65.76 198.718 65.76H201.818V67.42H198.898C198.045 67.42 197.472 67.56 197.178 67.84C196.885 68.1067 196.738 68.44 196.738 68.84C196.738 69.2933 196.918 69.6533 197.278 69.92C197.638 70.1867 198.138 70.32 198.778 70.32C199.392 70.32 199.938 70.18 200.418 69.9C200.912 69.62 201.265 69.2067 201.478 68.66L201.898 70.16C201.658 70.7867 201.225 71.2733 200.598 71.62C199.985 71.9667 199.205 72.14 198.258 72.14ZM210.487 72.14C209.594 72.14 208.734 72.0267 207.907 71.8C207.094 71.56 206.447 71.2733 205.967 70.94L206.927 69.04C207.407 69.3467 207.98 69.6 208.647 69.8C209.314 70 209.98 70.1 210.647 70.1C211.434 70.1 212 69.9933 212.347 69.78C212.707 69.5667 212.887 69.28 212.887 68.92C212.887 68.6267 212.767 68.4067 212.527 68.26C212.287 68.1 211.974 67.98 211.587 67.9C211.2 67.82 210.767 67.7467 210.287 67.68C209.82 67.6133 209.347 67.5267 208.867 67.42C208.4 67.3 207.974 67.1333 207.587 66.92C207.2 66.6933 206.887 66.3933 206.647 66.02C206.407 65.6467 206.287 65.1533 206.287 64.54C206.287 63.86 206.48 63.2733 206.867 62.78C207.254 62.2733 207.794 61.8867 208.487 61.62C209.194 61.34 210.027 61.2 210.987 61.2C211.707 61.2 212.434 61.28 213.167 61.44C213.9 61.6 214.507 61.8267 214.987 62.12L214.027 64.02C213.52 63.7133 213.007 63.5067 212.487 63.4C211.98 63.28 211.474 63.22 210.967 63.22C210.207 63.22 209.64 63.3333 209.267 63.56C208.907 63.7867 208.727 64.0733 208.727 64.42C208.727 64.74 208.847 64.98 209.087 65.14C209.327 65.3 209.64 65.4267 210.027 65.52C210.414 65.6133 210.84 65.6933 211.307 65.76C211.787 65.8133 212.26 65.9 212.727 66.02C213.194 66.14 213.62 66.3067 214.007 66.52C214.407 66.72 214.727 67.0067 214.967 67.38C215.207 67.7533 215.327 68.24 215.327 68.84C215.327 69.5067 215.127 70.0867 214.727 70.58C214.34 71.0733 213.787 71.46 213.067 71.74C212.347 72.0067 211.487 72.14 210.487 72.14ZM222.5 72.14C221.313 72.14 220.273 71.9067 219.38 71.44C218.5 70.96 217.813 70.3067 217.32 69.48C216.84 68.6533 216.6 67.7133 216.6 66.66C216.6 65.5933 216.833 64.6533 217.3 63.84C217.78 63.0133 218.433 62.3667 219.26 61.9C220.1 61.4333 221.053 61.2 222.12 61.2C223.16 61.2 224.087 61.4267 224.9 61.88C225.713 62.3333 226.353 62.9733 226.82 63.8C227.287 64.6267 227.52 65.6 227.52 66.72C227.52 66.8267 227.513 66.9467 227.5 67.08C227.5 67.2133 227.493 67.34 227.48 67.46H218.58V65.8H226.16L225.18 66.32C225.193 65.7067 225.067 65.1667 224.8 64.7C224.533 64.2333 224.167 63.8667 223.7 63.6C223.247 63.3333 222.72 63.2 222.12 63.2C221.507 63.2 220.967 63.3333 220.5 63.6C220.047 63.8667 219.687 64.24 219.42 64.72C219.167 65.1867 219.04 65.74 219.04 66.38V66.78C219.04 67.42 219.187 67.9867 219.48 68.48C219.773 68.9733 220.187 69.3533 220.72 69.62C221.253 69.8867 221.867 70.02 222.56 70.02C223.16 70.02 223.7 69.9267 224.18 69.74C224.66 69.5533 225.087 69.26 225.46 68.86L226.8 70.4C226.32 70.96 225.713 71.3933 224.98 71.7C224.26 71.9933 223.433 72.14 222.5 72.14ZM242.169 72.2C241.102 72.2 240.109 72.0267 239.189 71.68C238.282 71.32 237.489 70.82 236.809 70.18C236.142 69.5267 235.622 68.76 235.249 67.88C234.875 67 234.689 66.04 234.689 65C234.689 63.96 234.875 63 235.249 62.12C235.622 61.24 236.149 60.48 236.829 59.84C237.509 59.1867 238.302 58.6867 239.209 58.34C240.115 57.98 241.109 57.8 242.189 57.8C243.335 57.8 244.382 58 245.329 58.4C246.275 58.7867 247.075 59.3667 247.729 60.14L246.049 61.72C245.542 61.1733 244.975 60.7667 244.349 60.5C243.722 60.22 243.042 60.08 242.309 60.08C241.575 60.08 240.902 60.2 240.289 60.44C239.689 60.68 239.162 61.02 238.709 61.46C238.269 61.9 237.922 62.42 237.669 63.02C237.429 63.62 237.309 64.28 237.309 65C237.309 65.72 237.429 66.38 237.669 66.98C237.922 67.58 238.269 68.1 238.709 68.54C239.162 68.98 239.689 69.32 240.289 69.56C240.902 69.8 241.575 69.92 242.309 69.92C243.042 69.92 243.722 69.7867 244.349 69.52C244.975 69.24 245.542 68.82 246.049 68.26L247.729 69.86C247.075 70.62 246.275 71.2 245.329 71.6C244.382 72 243.329 72.2 242.169 72.2ZM254.37 72.14C253.276 72.14 252.303 71.9067 251.45 71.44C250.596 70.96 249.923 70.3067 249.43 69.48C248.936 68.6533 248.69 67.7133 248.69 66.66C248.69 65.5933 248.936 64.6533 249.43 63.84C249.923 63.0133 250.596 62.3667 251.45 61.9C252.303 61.4333 253.276 61.2 254.37 61.2C255.476 61.2 256.456 61.4333 257.31 61.9C258.176 62.3667 258.85 63.0067 259.33 63.82C259.823 64.6333 260.07 65.58 260.07 66.66C260.07 67.7133 259.823 68.6533 259.33 69.48C258.85 70.3067 258.176 70.96 257.31 71.44C256.456 71.9067 255.476 72.14 254.37 72.14ZM254.37 70C254.983 70 255.53 69.8667 256.01 69.6C256.49 69.3333 256.863 68.9467 257.13 68.44C257.41 67.9333 257.55 67.34 257.55 66.66C257.55 65.9667 257.41 65.3733 257.13 64.88C256.863 64.3733 256.49 63.9867 256.01 63.72C255.53 63.4533 254.99 63.32 254.39 63.32C253.776 63.32 253.23 63.4533 252.75 63.72C252.283 63.9867 251.91 64.3733 251.63 64.88C251.35 65.3733 251.21 65.9667 251.21 66.66C251.21 67.34 251.35 67.9333 251.63 68.44C251.91 68.9467 252.283 69.3333 252.75 69.6C253.23 69.8667 253.77 70 254.37 70ZM265.76 72.14C264.867 72.14 264.007 72.0267 263.18 71.8C262.367 71.56 261.72 71.2733 261.24 70.94L262.2 69.04C262.68 69.3467 263.254 69.6 263.92 69.8C264.587 70 265.254 70.1 265.92 70.1C266.707 70.1 267.274 69.9933 267.62 69.78C267.98 69.5667 268.16 69.28 268.16 68.92C268.16 68.6267 268.04 68.4067 267.8 68.26C267.56 68.1 267.247 67.98 266.86 67.9C266.474 67.82 266.04 67.7467 265.56 67.68C265.094 67.6133 264.62 67.5267 264.14 67.42C263.674 67.3 263.247 67.1333 262.86 66.92C262.474 66.6933 262.16 66.3933 261.92 66.02C261.68 65.6467 261.56 65.1533 261.56 64.54C261.56 63.86 261.754 63.2733 262.14 62.78C262.527 62.2733 263.067 61.8867 263.76 61.62C264.467 61.34 265.3 61.2 266.26 61.2C266.98 61.2 267.707 61.28 268.44 61.44C269.174 61.6 269.78 61.8267 270.26 62.12L269.3 64.02C268.794 63.7133 268.28 63.5067 267.76 63.4C267.254 63.28 266.747 63.22 266.24 63.22C265.48 63.22 264.914 63.3333 264.54 63.56C264.18 63.7867 264 64.0733 264 64.42C264 64.74 264.12 64.98 264.36 65.14C264.6 65.3 264.914 65.4267 265.3 65.52C265.687 65.6133 266.114 65.6933 266.58 65.76C267.06 65.8133 267.534 65.9 268 66.02C268.467 66.14 268.894 66.3067 269.28 66.52C269.68 66.72 270 67.0067 270.24 67.38C270.48 67.7533 270.6 68.24 270.6 68.84C270.6 69.5067 270.4 70.0867 270 70.58C269.614 71.0733 269.06 71.46 268.34 71.74C267.62 72.0067 266.76 72.14 265.76 72.14ZM276.773 72.14C275.6 72.14 274.693 71.84 274.053 71.24C273.413 70.6267 273.093 69.7267 273.093 68.54V58.96H275.593V68.48C275.593 68.9867 275.72 69.38 275.973 69.66C276.24 69.94 276.607 70.08 277.073 70.08C277.633 70.08 278.1 69.9333 278.473 69.64L279.173 71.42C278.88 71.66 278.52 71.84 278.093 71.96C277.667 72.08 277.227 72.14 276.773 72.14ZM271.333 63.4V61.4H278.453V63.4H271.333Z" fill="white"/>
<rect x="581" y="318" width="309" height="64" rx="20" fill="#444648"/>
<rect x="581.5" y="318.5" width="308" height="63" rx="19.5" stroke="#DADADA" stroke-opacity="0.4"/>
<rect x="918" y="318" width="309" height="64" rx="20" fill="#444648"/>
<rect x="918.5" y="318.5" width="308" height="63" rx="19.5" stroke="#DADADA" stroke-opacity="0.4"/>
<rect x="1255" y="318" width="309" height="64" rx="20" fill="#444648"/>
<rect x="1255.5" y="318.5" width="308" height="63" rx="19.5" stroke="#DADADA" stroke-opacity="0.4"/>
</g>
<defs>
<linearGradient id="paint0_linear_56_24" x1="112.5" y1="124" x2="112.5" y2="1054" gradientUnits="userSpaceOnUse">
<stop stop-color="#444648"/>
<stop offset="1" stop-color="#FF943A"/>
</linearGradient>
<clipPath id="clip0_56_24">
<rect width="1920" height="1080" fill="white"/>
</clipPath>
</defs>
</svg>
