<svg width="1920" height="1080" viewBox="0 0 1920 1080" fill="none" xmlns="http://www.w3.org/2000/svg">
<g clip-path="url(#clip0_56_41)">
<rect width="1920" height="1080" fill="white"/>
<rect width="1920" height="1080" rx="20" fill="#444648"/>
<circle cx="1707.5" cy="39.5" r="18.5" fill="#1D1F21" fill-opacity="0.5"/>
<circle cx="1707.5" cy="39.5" r="13.5" fill="#FF6600"/>
<path d="M1742.78 47.043C1742.64 47.8685 1742.37 48.5859 1741.98 49.1953C1741.59 49.8047 1741.11 50.276 1740.54 50.6094C1739.97 50.9427 1739.35 51.1094 1738.69 51.1094C1738 51.1094 1737.42 50.9388 1736.95 50.5977C1736.48 50.2539 1736.15 49.7721 1735.96 49.1523C1735.76 48.5299 1735.73 47.7982 1735.87 46.957C1736.01 46.1315 1736.27 45.4141 1736.67 44.8047C1737.06 44.1953 1737.54 43.724 1738.11 43.3906C1738.68 43.0573 1739.3 42.8906 1739.97 42.8906C1740.65 42.8906 1741.22 43.0612 1741.69 43.4023C1742.16 43.7435 1742.49 44.2253 1742.69 44.8477C1742.89 45.4674 1742.92 46.1992 1742.78 47.043ZM1742.08 46.957C1742.2 46.2435 1742.18 45.6354 1742.03 45.1328C1741.88 44.6302 1741.63 44.2461 1741.27 43.9805C1740.9 43.7122 1740.46 43.5781 1739.95 43.5781C1739.42 43.5781 1738.91 43.7161 1738.45 43.9922C1737.98 44.2656 1737.58 44.6615 1737.25 45.1797C1736.92 45.6953 1736.69 46.3164 1736.57 47.043C1736.45 47.7539 1736.46 48.362 1736.61 48.8672C1736.76 49.3698 1737.02 49.7552 1737.38 50.0234C1737.74 50.2891 1738.18 50.4219 1738.7 50.4219C1739.24 50.4219 1739.74 50.2839 1740.21 50.0078C1740.68 49.7318 1741.08 49.3359 1741.41 48.8203C1741.74 48.3021 1741.96 47.681 1742.08 46.957ZM1745.06 47.25L1744.44 51H1743.74L1744.74 45H1745.42L1745.26 45.9414H1745.33C1745.51 45.6341 1745.77 45.388 1746.1 45.2031C1746.44 45.0156 1746.82 44.9219 1747.26 44.9219C1747.66 44.9219 1748 45.0065 1748.28 45.1758C1748.56 45.3424 1748.75 45.5885 1748.87 45.9141C1748.99 46.2396 1749.01 46.6393 1748.93 47.1133L1748.28 51H1747.59L1748.23 47.1562C1748.31 46.6667 1748.24 46.2786 1748.01 45.9922C1747.79 45.7031 1747.45 45.5586 1746.99 45.5586C1746.67 45.5586 1746.38 45.6263 1746.11 45.7617C1745.84 45.8971 1745.61 46.0924 1745.43 46.3477C1745.24 46.6003 1745.12 46.901 1745.06 47.25ZM1752.14 43L1750.81 51H1750.11L1751.44 43H1752.14ZM1752.66 51L1753.66 45H1754.36L1753.36 51H1752.66ZM1754.26 43.957C1754.11 43.957 1753.99 43.9076 1753.89 43.8086C1753.79 43.7096 1753.74 43.5898 1753.74 43.4492C1753.75 43.3164 1753.8 43.2018 1753.9 43.1055C1754.01 43.0065 1754.13 42.957 1754.27 42.957C1754.42 42.957 1754.54 43.0078 1754.64 43.1094C1754.74 43.2083 1754.79 43.3281 1754.79 43.4687C1754.78 43.6016 1754.73 43.7161 1754.63 43.8125C1754.52 43.9089 1754.4 43.957 1754.26 43.957ZM1756.51 47.25L1755.89 51H1755.19L1756.19 45H1756.87L1756.71 45.9414H1756.78C1756.96 45.6341 1757.22 45.388 1757.55 45.2031C1757.89 45.0156 1758.27 44.9219 1758.71 44.9219C1759.11 44.9219 1759.45 45.0065 1759.73 45.1758C1760.01 45.3424 1760.21 45.5885 1760.32 45.9141C1760.44 46.2396 1760.46 46.6393 1760.39 47.1133L1759.73 51H1759.04L1759.68 47.1562C1759.76 46.6667 1759.69 46.2786 1759.46 45.9922C1759.24 45.7031 1758.9 45.5586 1758.44 45.5586C1758.12 45.5586 1757.83 45.6263 1757.56 45.7617C1757.29 45.8971 1757.06 46.0924 1756.88 46.3477C1756.69 46.6003 1756.57 46.901 1756.51 47.25ZM1763.97 51.125C1763.41 51.125 1762.95 50.9948 1762.59 50.7344C1762.22 50.4714 1761.97 50.1081 1761.82 49.6445C1761.68 49.1784 1761.65 48.6419 1761.76 48.0352C1761.86 47.431 1762.06 46.8945 1762.36 46.4258C1762.66 45.9544 1763.03 45.5859 1763.47 45.3203C1763.91 45.0521 1764.38 44.918 1764.9 44.918C1765.23 44.918 1765.53 44.9779 1765.81 45.0977C1766.1 45.2148 1766.34 45.3958 1766.54 45.6406C1766.74 45.8828 1766.88 46.1888 1766.96 46.5586C1767.03 46.9258 1767.03 47.3607 1766.95 47.8633L1766.89 48.207H1762.21L1762.3 47.5937H1766.28C1766.35 47.2083 1766.33 46.862 1766.23 46.5547C1766.13 46.2474 1765.95 46.0039 1765.71 45.8242C1765.47 45.6419 1765.17 45.5508 1764.81 45.5508C1764.44 45.5508 1764.09 45.6536 1763.76 45.8594C1763.44 46.0651 1763.16 46.3333 1762.94 46.6641C1762.71 46.9922 1762.57 47.3424 1762.5 47.7148L1762.42 48.1758C1762.34 48.6836 1762.35 49.1094 1762.46 49.4531C1762.56 49.7943 1762.75 50.0521 1763.02 50.2266C1763.29 50.401 1763.65 50.4883 1764.07 50.4883C1764.36 50.4883 1764.62 50.444 1764.85 50.3555C1765.08 50.2669 1765.28 50.1484 1765.46 50C1765.63 49.849 1765.76 49.6836 1765.87 49.5039L1766.49 49.7187C1766.36 49.9714 1766.17 50.2044 1765.93 50.418C1765.69 50.6315 1765.4 50.8034 1765.07 50.9336C1764.74 51.0612 1764.38 51.125 1763.97 51.125Z" fill="white"/>
<path d="M1736 35V25.9091H1737.37V29.8597H1741.9V25.9091H1743.28V35H1741.9V31.036H1737.37V35H1736ZM1748.11 35.1376C1747.44 35.1376 1746.86 34.9941 1746.37 34.707C1745.89 34.417 1745.52 34.0101 1745.25 33.4863C1744.99 32.9596 1744.86 32.3426 1744.86 31.6353C1744.86 30.9369 1744.99 30.3214 1745.25 29.7887C1745.52 29.256 1745.88 28.8403 1746.35 28.5414C1746.83 28.2425 1747.38 28.093 1748.01 28.093C1748.4 28.093 1748.77 28.1567 1749.13 28.2839C1749.49 28.4112 1749.82 28.6109 1750.11 28.8832C1750.39 29.1554 1750.62 29.5091 1750.78 29.9441C1750.95 30.3761 1751.03 30.9014 1751.03 31.5199V31.9904H1745.61V30.9961H1749.73C1749.73 30.6469 1749.66 30.3377 1749.52 30.0684C1749.38 29.7961 1749.18 29.5816 1748.92 29.4247C1748.67 29.2679 1748.37 29.1895 1748.02 29.1895C1747.65 29.1895 1747.33 29.2812 1747.05 29.4647C1746.77 29.6452 1746.56 29.8819 1746.41 30.1749C1746.26 30.4649 1746.19 30.7801 1746.19 31.1204V31.8972C1746.19 32.3529 1746.27 32.7406 1746.43 33.0602C1746.59 33.3798 1746.81 33.6239 1747.1 33.7926C1747.39 33.9583 1747.73 34.0412 1748.12 34.0412C1748.37 34.0412 1748.6 34.0057 1748.81 33.9347C1749.02 33.8607 1749.2 33.7512 1749.35 33.6062C1749.5 33.4612 1749.61 33.2821 1749.69 33.0691L1750.95 33.2955C1750.85 33.6654 1750.67 33.9894 1750.41 34.2676C1750.15 34.5428 1749.83 34.7573 1749.44 34.9112C1749.05 35.0621 1748.61 35.1376 1748.11 35.1376ZM1753.83 25.9091V35H1752.51V25.9091H1753.83ZM1756.95 25.9091V35H1755.62V25.9091H1756.95ZM1761.6 35.1376C1760.96 35.1376 1760.41 34.9911 1759.93 34.6982C1759.45 34.4052 1759.08 33.9953 1758.82 33.4686C1758.56 32.9418 1758.43 32.3263 1758.43 31.622C1758.43 30.9147 1758.56 30.2962 1758.82 29.7665C1759.08 29.2368 1759.45 28.8255 1759.93 28.5325C1760.41 28.2395 1760.96 28.093 1761.6 28.093C1762.24 28.093 1762.8 28.2395 1763.28 28.5325C1763.75 28.8255 1764.12 29.2368 1764.39 29.7665C1764.65 30.2962 1764.78 30.9147 1764.78 31.622C1764.78 32.3263 1764.65 32.9418 1764.39 33.4686C1764.12 33.9953 1763.75 34.4052 1763.28 34.6982C1762.8 34.9911 1762.24 35.1376 1761.6 35.1376ZM1761.61 34.0234C1762.02 34.0234 1762.37 33.9139 1762.64 33.695C1762.91 33.476 1763.11 33.1845 1763.24 32.8205C1763.37 32.4565 1763.44 32.0555 1763.44 31.6175C1763.44 31.1825 1763.37 30.783 1763.24 30.419C1763.11 30.0521 1762.91 29.7576 1762.64 29.5357C1762.37 29.3137 1762.02 29.2028 1761.61 29.2028C1761.19 29.2028 1760.84 29.3137 1760.57 29.5357C1760.3 29.7576 1760.09 30.0521 1759.96 30.419C1759.83 30.783 1759.77 31.1825 1759.77 31.6175C1759.77 32.0555 1759.83 32.4565 1759.96 32.8205C1760.09 33.1845 1760.3 33.476 1760.57 33.695C1760.84 33.9139 1761.19 34.0234 1761.61 34.0234ZM1774.64 28.2972C1774.59 27.877 1774.39 27.5515 1774.05 27.3207C1773.71 27.0869 1773.27 26.97 1772.75 26.97C1772.38 26.97 1772.06 27.0292 1771.79 27.1475C1771.51 27.263 1771.3 27.4228 1771.15 27.627C1771 27.8282 1770.93 28.0575 1770.93 28.315C1770.93 28.531 1770.98 28.7174 1771.08 28.8743C1771.18 29.0311 1771.32 29.1628 1771.48 29.2694C1771.65 29.3729 1771.83 29.4602 1772.03 29.5312C1772.22 29.5993 1772.4 29.6555 1772.58 29.6999L1773.47 29.9308C1773.76 30.0018 1774.06 30.098 1774.36 30.2193C1774.67 30.3406 1774.95 30.5004 1775.21 30.6987C1775.47 30.897 1775.68 31.1426 1775.84 31.4355C1776 31.7285 1776.08 32.0792 1776.08 32.4876C1776.08 33.0025 1775.95 33.4597 1775.68 33.8592C1775.42 34.2587 1775.04 34.5739 1774.53 34.8047C1774.03 35.0355 1773.43 35.1509 1772.72 35.1509C1772.04 35.1509 1771.45 35.0429 1770.95 34.8269C1770.45 34.6109 1770.07 34.3046 1769.78 33.908C1769.5 33.5085 1769.35 33.035 1769.32 32.4876H1770.69C1770.72 32.8161 1770.83 33.0898 1771.01 33.3088C1771.2 33.5248 1771.44 33.6861 1771.74 33.7926C1772.03 33.8962 1772.36 33.948 1772.71 33.948C1773.1 33.948 1773.44 33.8873 1773.74 33.766C1774.05 33.6417 1774.29 33.4701 1774.46 33.2511C1774.64 33.0291 1774.73 32.7702 1774.73 32.4743C1774.73 32.205 1774.65 31.9845 1774.49 31.8129C1774.34 31.6412 1774.14 31.4992 1773.88 31.3867C1773.62 31.2743 1773.33 31.1751 1773 31.0893L1771.93 30.7963C1771.2 30.5981 1770.62 30.3066 1770.2 29.9219C1769.77 29.5372 1769.56 29.0282 1769.56 28.3949C1769.56 27.8711 1769.7 27.4139 1769.99 27.0233C1770.27 26.6326 1770.66 26.3293 1771.14 26.1133C1771.63 25.8943 1772.18 25.7848 1772.79 25.7848C1773.4 25.7848 1773.94 25.8928 1774.41 26.1088C1774.89 26.3249 1775.26 26.6223 1775.53 27.0011C1775.81 27.3769 1775.95 27.8089 1775.96 28.2972H1774.64ZM1779.6 35.1509C1779.17 35.1509 1778.78 35.071 1778.43 34.9112C1778.08 34.7485 1777.8 34.5132 1777.6 34.2054C1777.4 33.8977 1777.3 33.5204 1777.3 33.0735C1777.3 32.6888 1777.37 32.3722 1777.52 32.1236C1777.67 31.875 1777.87 31.6782 1778.12 31.5332C1778.37 31.3882 1778.65 31.2787 1778.96 31.2047C1779.27 31.1307 1779.59 31.0745 1779.91 31.036C1780.32 30.9887 1780.65 30.9502 1780.91 30.9206C1781.16 30.8881 1781.34 30.8363 1781.46 30.7653C1781.58 30.6942 1781.63 30.5788 1781.63 30.419V30.388C1781.63 30.0003 1781.52 29.6999 1781.3 29.4869C1781.09 29.2738 1780.77 29.1673 1780.34 29.1673C1779.89 29.1673 1779.54 29.2664 1779.28 29.4647C1779.03 29.66 1778.85 29.8775 1778.75 30.1172L1777.5 29.8331C1777.65 29.4188 1777.87 29.0844 1778.15 28.8299C1778.44 28.5724 1778.77 28.386 1779.14 28.2706C1779.52 28.1522 1779.91 28.093 1780.32 28.093C1780.59 28.093 1780.88 28.1256 1781.18 28.1907C1781.49 28.2528 1781.78 28.3683 1782.05 28.5369C1782.32 28.7056 1782.54 28.9468 1782.71 29.2605C1782.88 29.5712 1782.96 29.9751 1782.96 30.4723V35H1781.67V34.0678H1781.62C1781.53 34.2395 1781.4 34.4081 1781.23 34.5739C1781.06 34.7396 1780.84 34.8772 1780.57 34.9867C1780.3 35.0962 1779.98 35.1509 1779.6 35.1509ZM1779.89 34.0856C1780.26 34.0856 1780.57 34.0131 1780.83 33.8681C1781.09 33.7231 1781.29 33.5337 1781.43 33.2999C1781.57 33.0632 1781.64 32.8101 1781.64 32.5408V31.6619C1781.59 31.7093 1781.5 31.7537 1781.36 31.7951C1781.23 31.8336 1781.08 31.8676 1780.91 31.8972C1780.73 31.9238 1780.57 31.949 1780.4 31.9727C1780.24 31.9934 1780.1 32.0111 1780 32.0259C1779.74 32.0585 1779.5 32.1132 1779.29 32.1902C1779.08 32.2671 1778.91 32.3781 1778.78 32.5231C1778.66 32.6651 1778.6 32.8545 1778.6 33.0913C1778.6 33.4197 1778.72 33.6683 1778.96 33.837C1779.2 34.0027 1779.51 34.0856 1779.89 34.0856ZM1784.73 35V28.1818H1786.06V35H1784.73ZM1785.4 27.1298C1785.17 27.1298 1784.97 27.0529 1784.81 26.899C1784.65 26.7421 1784.56 26.5557 1784.56 26.3397C1784.56 26.1207 1784.65 25.9342 1784.81 25.7804C1784.97 25.6235 1785.17 25.5451 1785.4 25.5451C1785.63 25.5451 1785.83 25.6235 1785.99 25.7804C1786.16 25.9342 1786.24 26.1207 1786.24 26.3397C1786.24 26.5557 1786.16 26.7421 1785.99 26.899C1785.83 27.0529 1785.63 27.1298 1785.4 27.1298ZM1789.17 30.9517V35H1787.85V28.1818H1789.12V29.2915H1789.2C1789.36 28.9305 1789.61 28.6405 1789.94 28.4215C1790.28 28.2025 1790.7 28.093 1791.21 28.093C1791.68 28.093 1792.09 28.1907 1792.44 28.386C1792.78 28.5784 1793.06 28.8654 1793.25 29.2472C1793.44 29.6289 1793.54 30.1009 1793.54 30.6632V35H1792.21V30.823C1792.21 30.3288 1792.08 29.9426 1791.82 29.6644C1791.57 29.3833 1791.21 29.2427 1790.76 29.2427C1790.45 29.2427 1790.18 29.3093 1789.94 29.4425C1789.7 29.5756 1789.52 29.771 1789.38 30.0284C1789.24 30.2829 1789.17 30.5907 1789.17 30.9517ZM1797.3 35.1509C1796.87 35.1509 1796.48 35.071 1796.13 34.9112C1795.78 34.7485 1795.5 34.5132 1795.3 34.2054C1795.1 33.8977 1795 33.5204 1795 33.0735C1795 32.6888 1795.07 32.3722 1795.22 32.1236C1795.37 31.875 1795.57 31.6782 1795.82 31.5332C1796.07 31.3882 1796.35 31.2787 1796.66 31.2047C1796.97 31.1307 1797.29 31.0745 1797.61 31.036C1798.02 30.9887 1798.35 30.9502 1798.61 30.9206C1798.86 30.8881 1799.04 30.8363 1799.16 30.7653C1799.28 30.6942 1799.33 30.5788 1799.33 30.419V30.388C1799.33 30.0003 1799.22 29.6999 1799 29.4869C1798.79 29.2738 1798.47 29.1673 1798.04 29.1673C1797.59 29.1673 1797.24 29.2664 1796.98 29.4647C1796.73 29.66 1796.55 29.8775 1796.45 30.1172L1795.21 29.8331C1795.35 29.4188 1795.57 29.0844 1795.85 28.8299C1796.14 28.5724 1796.47 28.386 1796.84 28.2706C1797.22 28.1522 1797.61 28.093 1798.02 28.093C1798.29 28.093 1798.58 28.1256 1798.88 28.1907C1799.19 28.2528 1799.48 28.3683 1799.75 28.5369C1800.02 28.7056 1800.24 28.9468 1800.41 29.2605C1800.58 29.5712 1800.66 29.9751 1800.66 30.4723V35H1799.37V34.0678H1799.32C1799.23 34.2395 1799.1 34.4081 1798.93 34.5739C1798.76 34.7396 1798.54 34.8772 1798.27 34.9867C1798 35.0962 1797.68 35.1509 1797.3 35.1509ZM1797.59 34.0856C1797.96 34.0856 1798.27 34.0131 1798.53 33.8681C1798.79 33.7231 1798.99 33.5337 1799.13 33.2999C1799.27 33.0632 1799.34 32.8101 1799.34 32.5408V31.6619C1799.29 31.7093 1799.2 31.7537 1799.06 31.7951C1798.93 31.8336 1798.78 31.8676 1798.61 31.8972C1798.43 31.9238 1798.27 31.949 1798.1 31.9727C1797.94 31.9934 1797.8 32.0111 1797.7 32.0259C1797.44 32.0585 1797.2 32.1132 1796.99 32.1902C1796.78 32.2671 1796.61 32.3781 1796.48 32.5231C1796.36 32.6651 1796.3 32.8545 1796.3 33.0913C1796.3 33.4197 1796.42 33.6683 1796.66 33.837C1796.9 34.0027 1797.21 34.0856 1797.59 34.0856ZM1804.99 35.1332C1804.43 35.1332 1803.94 34.9926 1803.51 34.7115C1803.08 34.4274 1802.74 34.0234 1802.5 33.4996C1802.26 32.9729 1802.14 32.3411 1802.14 31.6042C1802.14 30.8674 1802.26 30.237 1802.5 29.7132C1802.75 29.1895 1803.09 28.7885 1803.52 28.5103C1803.96 28.2321 1804.45 28.093 1804.99 28.093C1805.42 28.093 1805.76 28.1641 1806.01 28.3061C1806.28 28.4452 1806.48 28.608 1806.62 28.7944C1806.76 28.9808 1806.88 29.1451 1806.96 29.2871H1807.04V25.9091H1808.36V35H1807.07V33.9391H1806.96C1806.88 34.0841 1806.76 34.2498 1806.61 34.4363C1806.46 34.6227 1806.26 34.7855 1806 34.9245C1805.74 35.0636 1805.4 35.1332 1804.99 35.1332ZM1805.28 34.0012C1805.66 34.0012 1805.98 33.9006 1806.25 33.6994C1806.51 33.4952 1806.71 33.2126 1806.85 32.8516C1806.99 32.4905 1807.06 32.0703 1807.06 31.5909C1807.06 31.1174 1806.99 30.7031 1806.85 30.348C1806.72 29.9929 1806.52 29.7162 1806.25 29.5179C1805.99 29.3197 1805.67 29.2205 1805.28 29.2205C1804.88 29.2205 1804.55 29.3241 1804.28 29.5312C1804.01 29.7384 1803.81 30.021 1803.68 30.3791C1803.54 30.7372 1803.48 31.1411 1803.48 31.5909C1803.48 32.0466 1803.54 32.4565 1803.68 32.8205C1803.82 33.1845 1804.02 33.473 1804.28 33.6861C1804.55 33.8962 1804.88 34.0012 1805.28 34.0012ZM1811.58 30.9517V35H1810.26V25.9091H1811.57V29.2915H1811.65C1811.81 28.9246 1812.06 28.6331 1812.38 28.4171C1812.71 28.2011 1813.14 28.093 1813.67 28.093C1814.14 28.093 1814.55 28.1892 1814.9 28.3816C1815.25 28.5739 1815.52 28.861 1815.71 29.2427C1815.91 29.6215 1816.01 30.095 1816.01 30.6632V35H1814.68V30.823C1814.68 30.3229 1814.55 29.9352 1814.29 29.66C1814.03 29.3818 1813.68 29.2427 1813.22 29.2427C1812.9 29.2427 1812.62 29.3093 1812.37 29.4425C1812.13 29.5756 1811.94 29.771 1811.79 30.0284C1811.65 30.2829 1811.58 30.5907 1811.58 30.9517Z" fill="white"/>
<rect y="95" width="1920" height="985" fill="#1D1F21"/>
<rect x="1773" y="41" width="7" height="7" rx="3.5" fill="#FF6600"/>
<path d="M0 124H125C172.14 124 195.711 124 210.355 138.645C225 153.289 225 176.86 225 224V954C225 1001.14 225 1024.71 210.355 1039.36C195.711 1054 172.14 1054 125 1054H0V124Z" fill="url(#paint0_linear_56_41)"/>
<path d="M125 124.5C148.584 124.5 166.222 124.501 179.797 126.326C193.357 128.149 202.788 131.784 210.002 138.998C217.216 146.212 220.851 155.643 222.674 169.203C224.499 182.778 224.5 200.416 224.5 224V954C224.5 977.584 224.499 995.222 222.674 1008.8C220.851 1022.36 217.216 1031.79 210.002 1039C202.788 1046.22 193.357 1049.85 179.797 1051.67C166.222 1053.5 148.584 1053.5 125 1053.5H0.5V124.5H125Z" stroke="#DADADA" stroke-opacity="0.4"/>
<rect x="246" y="293" width="1653" height="760" rx="20" fill="#2C2E30"/>
<rect x="246.5" y="293.5" width="1652" height="759" rx="19.5" stroke="#DADADA" stroke-opacity="0.4"/>
<rect x="1450.5" y="16.5" width="167" height="66" rx="19.5" fill="#444648" stroke="#F6903A"/>
<rect x="246" y="124" width="1653" height="140" rx="20" fill="#2C2E30"/>
<rect x="246.5" y="124.5" width="1652" height="139" rx="19.5" stroke="#DADADA" stroke-opacity="0.4"/>
<rect x="262" y="308" width="309" height="64" rx="20" fill="#444648"/>
<rect x="262.5" y="308.5" width="308" height="63" rx="19.5" stroke="#DADADA" stroke-opacity="0.4"/>
<rect x="1575" y="308" width="309" height="64" rx="20" fill="#444648"/>
<rect x="1575.5" y="308.5" width="308" height="63" rx="19.5" stroke="#DADADA" stroke-opacity="0.4"/>
<path d="M1705.96 37.2972C1705.91 36.877 1705.71 36.5515 1705.37 36.3207C1705.03 36.0869 1704.6 35.97 1704.07 35.97C1703.7 35.97 1703.38 36.0292 1703.11 36.1475C1702.83 36.263 1702.62 36.4228 1702.47 36.627C1702.32 36.8282 1702.25 37.0575 1702.25 37.315C1702.25 37.531 1702.3 37.7174 1702.4 37.8743C1702.51 38.0311 1702.64 38.1628 1702.81 38.2694C1702.97 38.3729 1703.15 38.4602 1703.35 38.5312C1703.54 38.5993 1703.72 38.6555 1703.9 38.6999L1704.79 38.9308C1705.08 39.0018 1705.38 39.098 1705.68 39.2193C1705.99 39.3406 1706.27 39.5004 1706.53 39.6987C1706.79 39.897 1707 40.1426 1707.16 40.4355C1707.32 40.7285 1707.4 41.0792 1707.4 41.4876C1707.4 42.0025 1707.27 42.4597 1707 42.8592C1706.74 43.2587 1706.36 43.5739 1705.85 43.8047C1705.35 44.0355 1704.75 44.1509 1704.04 44.1509C1703.36 44.1509 1702.77 44.0429 1702.27 43.8269C1701.78 43.6109 1701.39 43.3046 1701.11 42.908C1700.82 42.5085 1700.67 42.035 1700.64 41.4876H1702.02C1702.04 41.8161 1702.15 42.0898 1702.33 42.3088C1702.52 42.5248 1702.77 42.6861 1703.06 42.7926C1703.35 42.8962 1703.68 42.948 1704.03 42.948C1704.42 42.948 1704.76 42.8873 1705.06 42.766C1705.37 42.6417 1705.61 42.4701 1705.78 42.2511C1705.96 42.0291 1706.05 41.7702 1706.05 41.4743C1706.05 41.205 1705.97 40.9845 1705.81 40.8129C1705.66 40.6412 1705.46 40.4992 1705.2 40.3867C1704.94 40.2743 1704.65 40.1751 1704.32 40.0893L1703.25 39.7963C1702.52 39.5981 1701.94 39.3066 1701.52 38.9219C1701.09 38.5372 1700.88 38.0282 1700.88 37.3949C1700.88 36.8711 1701.03 36.4139 1701.31 36.0233C1701.59 35.6326 1701.98 35.3293 1702.46 35.1133C1702.95 34.8943 1703.5 34.7848 1704.11 34.7848C1704.72 34.7848 1705.26 34.8928 1705.74 35.1088C1706.21 35.3249 1706.58 35.6223 1706.85 36.0011C1707.13 36.3769 1707.27 36.8089 1707.28 37.2972H1705.96ZM1709.04 44V34.9091H1712.28C1712.99 34.9091 1713.58 35.0378 1714.04 35.2953C1714.51 35.5527 1714.85 35.9049 1715.08 36.3517C1715.32 36.7956 1715.43 37.2958 1715.43 37.8521C1715.43 38.4114 1715.31 38.9145 1715.08 39.3613C1714.85 39.8052 1714.5 40.1574 1714.03 40.4178C1713.57 40.6752 1712.98 40.804 1712.28 40.804H1710.05V39.641H1712.15C1712.6 39.641 1712.96 39.564 1713.24 39.4102C1713.52 39.2533 1713.72 39.0402 1713.85 38.771C1713.99 38.5017 1714.05 38.1954 1714.05 37.8521C1714.05 37.5088 1713.99 37.204 1713.85 36.9377C1713.72 36.6713 1713.52 36.4627 1713.24 36.3118C1712.96 36.1609 1712.59 36.0854 1712.14 36.0854H1710.41V44H1709.04Z" fill="#191919"/>
<path d="M32.538 48V29.1H35.427L43.689 42.897H42.177L50.304 29.1H53.193L53.22 48H49.899L49.872 34.311H50.574L43.662 45.84H42.096L35.076 34.311H35.886V48H32.538ZM66.8841 48V45.084L66.6951 44.463V39.36C66.6951 38.37 66.3981 37.605 65.8041 37.065C65.2101 36.507 64.3101 36.228 63.1041 36.228C62.2941 36.228 61.4931 36.354 60.7011 36.606C59.9271 36.858 59.2701 37.209 58.7301 37.659L57.4071 35.202C58.1811 34.608 59.0991 34.167 60.1611 33.879C61.2411 33.573 62.3571 33.42 63.5091 33.42C65.5971 33.42 67.2081 33.924 68.3421 34.932C69.4941 35.922 70.0701 37.461 70.0701 39.549V48H66.8841ZM62.3481 48.189C61.2681 48.189 60.3231 48.009 59.5131 47.649C58.7031 47.271 58.0731 46.758 57.6231 46.11C57.1911 45.444 56.9751 44.697 56.9751 43.869C56.9751 43.059 57.1641 42.33 57.5421 41.682C57.9381 41.034 58.5771 40.521 59.4591 40.143C60.3411 39.765 61.5111 39.576 62.9691 39.576H67.1541V41.817H63.2121C62.0601 41.817 61.2861 42.006 60.8901 42.384C60.4941 42.744 60.2961 43.194 60.2961 43.734C60.2961 44.346 60.5391 44.832 61.0251 45.192C61.5111 45.552 62.1861 45.732 63.0501 45.732C63.8781 45.732 64.6161 45.543 65.2641 45.165C65.9301 44.787 66.4071 44.229 66.6951 43.491L67.2621 45.516C66.9381 46.362 66.3531 47.019 65.5071 47.487C64.6791 47.955 63.6261 48.189 62.3481 48.189ZM82.5825 33.42C83.7345 33.42 84.7605 33.645 85.6605 34.095C86.5785 34.545 87.2985 35.238 87.8205 36.174C88.3425 37.092 88.6035 38.28 88.6035 39.738V48H85.2285V40.17C85.2285 38.892 84.9225 37.938 84.3105 37.308C83.7165 36.678 82.8795 36.363 81.7995 36.363C81.0075 36.363 80.3055 36.525 79.6935 36.849C79.0815 37.173 78.6045 37.659 78.2625 38.307C77.9385 38.937 77.7765 39.738 77.7765 40.71V48H74.4015V33.582H77.6145V37.47L77.0475 36.282C77.5515 35.364 78.2805 34.662 79.2345 34.176C80.2065 33.672 81.3225 33.42 82.5825 33.42ZM98.9869 48.189C97.7629 48.189 96.6829 47.964 95.7469 47.514C94.8109 47.046 94.0819 46.344 93.5599 45.408C93.0379 44.454 92.7769 43.257 92.7769 41.817V33.582H96.1519V41.358C96.1519 42.654 96.4399 43.626 97.0159 44.274C97.6099 44.904 98.4469 45.219 99.5269 45.219C100.319 45.219 101.003 45.057 101.579 44.733C102.173 44.409 102.632 43.923 102.956 43.275C103.298 42.627 103.469 41.826 103.469 40.872V33.582H106.844V48H103.631V44.112L104.198 45.3C103.712 46.236 103.001 46.956 102.065 47.46C101.129 47.946 100.103 48.189 98.9869 48.189ZM111.722 48V32.772C111.722 31.26 112.163 30.054 113.045 29.154C113.945 28.236 115.223 27.777 116.879 27.777C117.473 27.777 118.031 27.84 118.553 27.966C119.093 28.092 119.543 28.29 119.903 28.56L118.985 31.098C118.733 30.9 118.445 30.756 118.121 30.666C117.797 30.558 117.464 30.504 117.122 30.504C116.42 30.504 115.889 30.702 115.529 31.098C115.169 31.476 114.989 32.052 114.989 32.826V34.446L115.097 35.958V48H111.722ZM109.346 36.39V33.69H118.958V36.39H109.346ZM129.849 48V45.084L129.66 44.463V39.36C129.66 38.37 129.363 37.605 128.769 37.065C128.175 36.507 127.275 36.228 126.069 36.228C125.259 36.228 124.458 36.354 123.666 36.606C122.892 36.858 122.235 37.209 121.695 37.659L120.372 35.202C121.146 34.608 122.064 34.167 123.126 33.879C124.206 33.573 125.322 33.42 126.474 33.42C128.562 33.42 130.173 33.924 131.307 34.932C132.459 35.922 133.035 37.461 133.035 39.549V48H129.849ZM125.313 48.189C124.233 48.189 123.288 48.009 122.478 47.649C121.668 47.271 121.038 46.758 120.588 46.11C120.156 45.444 119.94 44.697 119.94 43.869C119.94 43.059 120.129 42.33 120.507 41.682C120.903 41.034 121.542 40.521 122.424 40.143C123.306 39.765 124.476 39.576 125.934 39.576H130.119V41.817H126.177C125.025 41.817 124.251 42.006 123.855 42.384C123.459 42.744 123.261 43.194 123.261 43.734C123.261 44.346 123.504 44.832 123.99 45.192C124.476 45.552 125.151 45.732 126.015 45.732C126.843 45.732 127.581 45.543 128.229 45.165C128.895 44.787 129.372 44.229 129.66 43.491L130.227 45.516C129.903 46.362 129.318 47.019 128.472 47.487C127.644 47.955 126.591 48.189 125.313 48.189ZM144.008 48.189C142.496 48.189 141.146 47.874 139.958 47.244C138.788 46.596 137.87 45.714 137.204 44.598C136.538 43.482 136.205 42.213 136.205 40.791C136.205 39.351 136.538 38.082 137.204 36.984C137.87 35.868 138.788 34.995 139.958 34.365C141.146 33.735 142.496 33.42 144.008 33.42C145.412 33.42 146.645 33.708 147.707 34.284C148.787 34.842 149.606 35.67 150.164 36.768L147.572 38.28C147.14 37.596 146.609 37.092 145.979 36.768C145.367 36.444 144.701 36.282 143.981 36.282C143.153 36.282 142.406 36.462 141.74 36.822C141.074 37.182 140.552 37.704 140.174 38.388C139.796 39.054 139.607 39.855 139.607 40.791C139.607 41.727 139.796 42.537 140.174 43.221C140.552 43.887 141.074 44.4 141.74 44.76C142.406 45.12 143.153 45.3 143.981 45.3C144.701 45.3 145.367 45.138 145.979 44.814C146.609 44.49 147.14 43.986 147.572 43.302L150.164 44.814C149.606 45.894 148.787 46.731 147.707 47.325C146.645 47.901 145.412 48.189 144.008 48.189ZM158.693 48.189C157.109 48.189 155.885 47.784 155.021 46.974C154.157 46.146 153.725 44.931 153.725 43.329V30.396H157.1V43.248C157.1 43.932 157.271 44.463 157.613 44.841C157.973 45.219 158.468 45.408 159.098 45.408C159.854 45.408 160.484 45.21 160.988 44.814L161.933 47.217C161.537 47.541 161.051 47.784 160.475 47.946C159.899 48.108 159.305 48.189 158.693 48.189ZM151.349 36.39V33.69H160.961V36.39H151.349ZM170.811 48.189C169.587 48.189 168.507 47.964 167.571 47.514C166.635 47.046 165.906 46.344 165.384 45.408C164.862 44.454 164.601 43.257 164.601 41.817V33.582H167.976V41.358C167.976 42.654 168.264 43.626 168.84 44.274C169.434 44.904 170.271 45.219 171.351 45.219C172.143 45.219 172.827 45.057 173.403 44.733C173.997 44.409 174.456 43.923 174.78 43.275C175.122 42.627 175.293 41.826 175.293 40.872V33.582H178.668V48H175.455V44.112L176.022 45.3C175.536 46.236 174.825 46.956 173.889 47.46C172.953 47.946 171.927 48.189 170.811 48.189ZM183.087 48V33.582H186.3V37.551L185.922 36.39C186.354 35.418 187.029 34.68 187.947 34.176C188.883 33.672 190.044 33.42 191.43 33.42V36.633C191.286 36.597 191.151 36.579 191.025 36.579C190.899 36.561 190.773 36.552 190.647 36.552C189.369 36.552 188.352 36.93 187.596 37.686C186.84 38.424 186.462 39.531 186.462 41.007V48H183.087ZM194.293 48V33.582H197.668V48H194.293ZM195.994 31.206C195.364 31.206 194.842 31.008 194.428 30.612C194.032 30.216 193.834 29.739 193.834 29.181C193.834 28.605 194.032 28.128 194.428 27.75C194.842 27.354 195.364 27.156 195.994 27.156C196.624 27.156 197.137 27.345 197.533 27.723C197.947 28.083 198.154 28.542 198.154 29.1C198.154 29.694 197.956 30.198 197.56 30.612C197.164 31.008 196.642 31.206 195.994 31.206ZM210.279 33.42C211.431 33.42 212.457 33.645 213.357 34.095C214.275 34.545 214.995 35.238 215.517 36.174C216.039 37.092 216.3 38.28 216.3 39.738V48H212.925V40.17C212.925 38.892 212.619 37.938 212.007 37.308C211.413 36.678 210.576 36.363 209.496 36.363C208.704 36.363 208.002 36.525 207.39 36.849C206.778 37.173 206.301 37.659 205.959 38.307C205.635 38.937 205.473 39.738 205.473 40.71V48H202.098V33.582H205.311V37.47L204.744 36.282C205.248 35.364 205.977 34.662 206.931 34.176C207.903 33.672 209.019 33.42 210.279 33.42ZM227.142 53.427C225.81 53.427 224.505 53.247 223.227 52.887C221.967 52.545 220.932 52.041 220.122 51.375L221.634 48.837C222.264 49.359 223.056 49.773 224.01 50.079C224.982 50.403 225.963 50.565 226.953 50.565C228.537 50.565 229.698 50.196 230.436 49.458C231.174 48.738 231.543 47.649 231.543 46.191V43.626L231.813 40.359L231.705 37.092V33.582H234.918V45.813C234.918 48.423 234.252 50.34 232.92 51.564C231.588 52.806 229.662 53.427 227.142 53.427ZM226.71 47.352C225.342 47.352 224.1 47.064 222.984 46.488C221.886 45.894 221.013 45.075 220.365 44.031C219.735 42.987 219.42 41.763 219.42 40.359C219.42 38.973 219.735 37.758 220.365 36.714C221.013 35.67 221.886 34.86 222.984 34.284C224.1 33.708 225.342 33.42 226.71 33.42C227.934 33.42 229.032 33.663 230.004 34.149C230.976 34.635 231.75 35.391 232.326 36.417C232.92 37.443 233.217 38.757 233.217 40.359C233.217 41.961 232.92 43.284 232.326 44.328C231.75 45.354 230.976 46.119 230.004 46.623C229.032 47.109 227.934 47.352 226.71 47.352ZM227.223 44.49C228.069 44.49 228.825 44.319 229.491 43.977C230.157 43.617 230.67 43.131 231.03 42.519C231.408 41.889 231.597 41.169 231.597 40.359C231.597 39.549 231.408 38.838 231.03 38.226C230.67 37.596 230.157 37.119 229.491 36.795C228.825 36.453 228.069 36.282 227.223 36.282C226.377 36.282 225.612 36.453 224.928 36.795C224.262 37.119 223.74 37.596 223.362 38.226C223.002 38.838 222.822 39.549 222.822 40.359C222.822 41.169 223.002 41.889 223.362 42.519C223.74 43.131 224.262 43.617 224.928 43.977C225.612 44.319 226.377 44.49 227.223 44.49ZM255.889 48.27C254.449 48.27 253.108 48.036 251.866 47.568C250.642 47.082 249.571 46.407 248.653 45.543C247.753 44.661 247.051 43.626 246.547 42.438C246.043 41.25 245.791 39.954 245.791 38.55C245.791 37.146 246.043 35.85 246.547 34.662C247.051 33.474 247.762 32.448 248.68 31.584C249.598 30.702 250.669 30.027 251.893 29.559C253.117 29.073 254.458 28.83 255.916 28.83C257.464 28.83 258.877 29.1 260.155 29.64C261.433 30.162 262.513 30.945 263.395 31.989L261.127 34.122C260.443 33.384 259.678 32.835 258.832 32.475C257.986 32.097 257.068 31.908 256.078 31.908C255.088 31.908 254.179 32.07 253.351 32.394C252.541 32.718 251.83 33.177 251.218 33.771C250.624 34.365 250.156 35.067 249.814 35.877C249.49 36.687 249.328 37.578 249.328 38.55C249.328 39.522 249.49 40.413 249.814 41.223C250.156 42.033 250.624 42.735 251.218 43.329C251.83 43.923 252.541 44.382 253.351 44.706C254.179 45.03 255.088 45.192 256.078 45.192C257.068 45.192 257.986 45.012 258.832 44.652C259.678 44.274 260.443 43.707 261.127 42.951L263.395 45.111C262.513 46.137 261.433 46.92 260.155 47.46C258.877 48 257.455 48.27 255.889 48.27ZM272.36 48.189C270.884 48.189 269.57 47.874 268.418 47.244C267.266 46.596 266.357 45.714 265.691 44.598C265.025 43.482 264.692 42.213 264.692 40.791C264.692 39.351 265.025 38.082 265.691 36.984C266.357 35.868 267.266 34.995 268.418 34.365C269.57 33.735 270.884 33.42 272.36 33.42C273.854 33.42 275.177 33.735 276.329 34.365C277.499 34.995 278.408 35.859 279.056 36.957C279.722 38.055 280.055 39.333 280.055 40.791C280.055 42.213 279.722 43.482 279.056 44.598C278.408 45.714 277.499 46.596 276.329 47.244C275.177 47.874 273.854 48.189 272.36 48.189ZM272.36 45.3C273.188 45.3 273.926 45.12 274.574 44.76C275.222 44.4 275.726 43.878 276.086 43.194C276.464 42.51 276.653 41.709 276.653 40.791C276.653 39.855 276.464 39.054 276.086 38.388C275.726 37.704 275.222 37.182 274.574 36.822C273.926 36.462 273.197 36.282 272.387 36.282C271.559 36.282 270.821 36.462 270.173 36.822C269.543 37.182 269.039 37.704 268.661 38.388C268.283 39.054 268.094 39.855 268.094 40.791C268.094 41.709 268.283 42.51 268.661 43.194C269.039 43.878 269.543 44.4 270.173 44.76C270.821 45.12 271.55 45.3 272.36 45.3ZM287.737 48.189C286.531 48.189 285.37 48.036 284.254 47.73C283.156 47.406 282.283 47.019 281.635 46.569L282.931 44.004C283.579 44.418 284.353 44.76 285.253 45.03C286.153 45.3 287.053 45.435 287.953 45.435C289.015 45.435 289.78 45.291 290.248 45.003C290.734 44.715 290.977 44.328 290.977 43.842C290.977 43.446 290.815 43.149 290.491 42.951C290.167 42.735 289.744 42.573 289.222 42.465C288.7 42.357 288.115 42.258 287.467 42.168C286.837 42.078 286.198 41.961 285.55 41.817C284.92 41.655 284.344 41.43 283.822 41.142C283.3 40.836 282.877 40.431 282.553 39.927C282.229 39.423 282.067 38.757 282.067 37.929C282.067 37.011 282.328 36.219 282.85 35.553C283.372 34.869 284.101 34.347 285.037 33.987C285.991 33.609 287.116 33.42 288.412 33.42C289.384 33.42 290.365 33.528 291.355 33.744C292.345 33.96 293.164 34.266 293.812 34.662L292.516 37.227C291.832 36.813 291.139 36.534 290.437 36.39C289.753 36.228 289.069 36.147 288.385 36.147C287.359 36.147 286.594 36.3 286.09 36.606C285.604 36.912 285.361 37.299 285.361 37.767C285.361 38.199 285.523 38.523 285.847 38.739C286.171 38.955 286.594 39.126 287.116 39.252C287.638 39.378 288.214 39.486 288.844 39.576C289.492 39.648 290.131 39.765 290.761 39.927C291.391 40.089 291.967 40.314 292.489 40.602C293.029 40.872 293.461 41.259 293.785 41.763C294.109 42.267 294.271 42.924 294.271 43.734C294.271 44.634 294.001 45.417 293.461 46.083C292.939 46.749 292.192 47.271 291.22 47.649C290.248 48.009 289.087 48.189 287.737 48.189ZM302.605 48.189C301.021 48.189 299.797 47.784 298.933 46.974C298.069 46.146 297.637 44.931 297.637 43.329V30.396H301.012V43.248C301.012 43.932 301.183 44.463 301.525 44.841C301.885 45.219 302.38 45.408 303.01 45.408C303.766 45.408 304.396 45.21 304.9 44.814L305.845 47.217C305.449 47.541 304.963 47.784 304.387 47.946C303.811 48.108 303.217 48.189 302.605 48.189ZM295.261 36.39V33.69H304.873V36.39H295.261ZM321.861 48.27C320.547 48.27 319.368 48.054 318.324 47.622C317.28 47.19 316.461 46.596 315.867 45.84C315.273 45.084 314.976 44.211 314.976 43.221C314.976 42.321 315.174 41.511 315.57 40.791C315.966 40.071 316.596 39.387 317.46 38.739C318.324 38.073 319.431 37.407 320.781 36.741C321.843 36.219 322.671 35.76 323.265 35.364C323.877 34.968 324.3 34.59 324.534 34.23C324.786 33.87 324.912 33.492 324.912 33.096C324.912 32.556 324.723 32.124 324.345 31.8C323.967 31.458 323.427 31.287 322.725 31.287C321.969 31.287 321.375 31.476 320.943 31.854C320.529 32.214 320.322 32.691 320.322 33.285C320.322 33.591 320.376 33.888 320.484 34.176C320.61 34.464 320.826 34.788 321.132 35.148C321.438 35.508 321.879 35.967 322.455 36.525L332.445 46.11L330.582 48.297L319.782 37.929C319.17 37.335 318.675 36.786 318.297 36.282C317.919 35.778 317.649 35.292 317.487 34.824C317.325 34.338 317.244 33.843 317.244 33.339C317.244 32.457 317.469 31.683 317.919 31.017C318.369 30.333 319.008 29.811 319.836 29.451C320.664 29.073 321.627 28.884 322.725 28.884C323.751 28.884 324.633 29.055 325.371 29.397C326.127 29.721 326.712 30.198 327.126 30.828C327.558 31.44 327.774 32.178 327.774 33.042C327.774 33.798 327.585 34.5 327.207 35.148C326.829 35.778 326.235 36.381 325.425 36.957C324.633 37.533 323.571 38.136 322.239 38.766C321.249 39.252 320.466 39.711 319.89 40.143C319.314 40.575 318.9 41.007 318.648 41.439C318.396 41.871 318.27 42.348 318.27 42.87C318.27 43.392 318.423 43.851 318.729 44.247C319.053 44.643 319.503 44.958 320.079 45.192C320.655 45.408 321.33 45.516 322.104 45.516C323.256 45.516 324.3 45.264 325.236 44.76C326.19 44.238 326.991 43.464 327.639 42.438C328.287 41.412 328.755 40.143 329.043 38.631L331.77 39.522C331.392 41.34 330.735 42.906 329.799 44.22C328.881 45.516 327.747 46.515 326.397 47.217C325.047 47.919 323.535 48.27 321.861 48.27ZM342.933 48V29.1H350.709C352.383 29.1 353.814 29.37 355.002 29.91C356.208 30.45 357.135 31.224 357.783 32.232C358.431 33.24 358.755 34.437 358.755 35.823C358.755 37.209 358.431 38.406 357.783 39.414C357.135 40.422 356.208 41.196 355.002 41.736C353.814 42.276 352.383 42.546 350.709 42.546H344.877L346.443 40.899V48H342.933ZM346.443 41.277L344.877 39.576H350.547C352.095 39.576 353.256 39.252 354.03 38.604C354.822 37.938 355.218 37.011 355.218 35.823C355.218 34.617 354.822 33.69 354.03 33.042C353.256 32.394 352.095 32.07 350.547 32.07H344.877L346.443 30.342V41.277ZM361.804 48V33.582H365.017V37.551L364.639 36.39C365.071 35.418 365.746 34.68 366.664 34.176C367.6 33.672 368.761 33.42 370.147 33.42V36.633C370.003 36.597 369.868 36.579 369.742 36.579C369.616 36.561 369.49 36.552 369.364 36.552C368.086 36.552 367.069 36.93 366.313 37.686C365.557 38.424 365.179 39.531 365.179 41.007V48H361.804ZM379.358 48.189C377.882 48.189 376.568 47.874 375.416 47.244C374.264 46.596 373.355 45.714 372.689 44.598C372.023 43.482 371.69 42.213 371.69 40.791C371.69 39.351 372.023 38.082 372.689 36.984C373.355 35.868 374.264 34.995 375.416 34.365C376.568 33.735 377.882 33.42 379.358 33.42C380.852 33.42 382.175 33.735 383.327 34.365C384.497 34.995 385.406 35.859 386.054 36.957C386.72 38.055 387.053 39.333 387.053 40.791C387.053 42.213 386.72 43.482 386.054 44.598C385.406 45.714 384.497 46.596 383.327 47.244C382.175 47.874 380.852 48.189 379.358 48.189ZM379.358 45.3C380.186 45.3 380.924 45.12 381.572 44.76C382.22 44.4 382.724 43.878 383.084 43.194C383.462 42.51 383.651 41.709 383.651 40.791C383.651 39.855 383.462 39.054 383.084 38.388C382.724 37.704 382.22 37.182 381.572 36.822C380.924 36.462 380.195 36.282 379.385 36.282C378.557 36.282 377.819 36.462 377.171 36.822C376.541 37.182 376.037 37.704 375.659 38.388C375.281 39.054 375.092 39.855 375.092 40.791C375.092 41.709 375.281 42.51 375.659 43.194C376.037 43.878 376.541 44.4 377.171 44.76C377.819 45.12 378.548 45.3 379.358 45.3ZM396.382 48.189C394.996 48.189 393.745 47.883 392.629 47.271C391.531 46.641 390.667 45.777 390.037 44.679C389.407 43.581 389.092 42.285 389.092 40.791C389.092 39.297 389.407 38.001 390.037 36.903C390.667 35.805 391.531 34.95 392.629 34.338C393.745 33.726 394.996 33.42 396.382 33.42C397.588 33.42 398.668 33.69 399.622 34.23C400.576 34.752 401.332 35.553 401.89 36.633C402.448 37.713 402.727 39.099 402.727 40.791C402.727 42.465 402.457 43.851 401.917 44.949C401.377 46.029 400.63 46.839 399.676 47.379C398.722 47.919 397.624 48.189 396.382 48.189ZM396.787 45.3C397.597 45.3 398.317 45.12 398.947 44.76C399.595 44.4 400.108 43.878 400.486 43.194C400.882 42.51 401.08 41.709 401.08 40.791C401.08 39.855 400.882 39.054 400.486 38.388C400.108 37.704 399.595 37.182 398.947 36.822C398.317 36.462 397.597 36.282 396.787 36.282C395.977 36.282 395.248 36.462 394.6 36.822C393.97 37.182 393.457 37.704 393.061 38.388C392.683 39.054 392.494 39.855 392.494 40.791C392.494 41.709 392.683 42.51 393.061 43.194C393.457 43.878 393.97 44.4 394.6 44.76C395.248 45.12 395.977 45.3 396.787 45.3ZM401.161 48V44.598L401.296 40.764L401.026 36.93V27.966H404.374V48H401.161ZM414.919 48.189C413.695 48.189 412.615 47.964 411.679 47.514C410.743 47.046 410.014 46.344 409.492 45.408C408.97 44.454 408.709 43.257 408.709 41.817V33.582H412.084V41.358C412.084 42.654 412.372 43.626 412.948 44.274C413.542 44.904 414.379 45.219 415.459 45.219C416.251 45.219 416.935 45.057 417.511 44.733C418.105 44.409 418.564 43.923 418.888 43.275C419.23 42.627 419.401 41.826 419.401 40.872V33.582H422.776V48H419.563V44.112L420.13 45.3C419.644 46.236 418.933 46.956 417.997 47.46C417.061 47.946 416.035 48.189 414.919 48.189ZM433.809 48.189C432.297 48.189 430.947 47.874 429.759 47.244C428.589 46.596 427.671 45.714 427.005 44.598C426.339 43.482 426.006 42.213 426.006 40.791C426.006 39.351 426.339 38.082 427.005 36.984C427.671 35.868 428.589 34.995 429.759 34.365C430.947 33.735 432.297 33.42 433.809 33.42C435.213 33.42 436.446 33.708 437.508 34.284C438.588 34.842 439.407 35.67 439.965 36.768L437.373 38.28C436.941 37.596 436.41 37.092 435.78 36.768C435.168 36.444 434.502 36.282 433.782 36.282C432.954 36.282 432.207 36.462 431.541 36.822C430.875 37.182 430.353 37.704 429.975 38.388C429.597 39.054 429.408 39.855 429.408 40.791C429.408 41.727 429.597 42.537 429.975 43.221C430.353 43.887 430.875 44.4 431.541 44.76C432.207 45.12 432.954 45.3 433.782 45.3C434.502 45.3 435.168 45.138 435.78 44.814C436.41 44.49 436.941 43.986 437.373 43.302L439.965 44.814C439.407 45.894 438.588 46.731 437.508 47.325C436.446 47.901 435.213 48.189 433.809 48.189ZM448.495 48.189C446.911 48.189 445.687 47.784 444.823 46.974C443.959 46.146 443.527 44.931 443.527 43.329V30.396H446.902V43.248C446.902 43.932 447.073 44.463 447.415 44.841C447.775 45.219 448.27 45.408 448.9 45.408C449.656 45.408 450.286 45.21 450.79 44.814L451.735 47.217C451.339 47.541 450.853 47.784 450.277 47.946C449.701 48.108 449.107 48.189 448.495 48.189ZM441.151 36.39V33.69H450.763V36.39H441.151ZM454.511 48V33.582H457.886V48H454.511ZM456.212 31.206C455.582 31.206 455.06 31.008 454.646 30.612C454.25 30.216 454.052 29.739 454.052 29.181C454.052 28.605 454.25 28.128 454.646 27.75C455.06 27.354 455.582 27.156 456.212 27.156C456.842 27.156 457.355 27.345 457.751 27.723C458.165 28.083 458.372 28.542 458.372 29.1C458.372 29.694 458.174 30.198 457.778 30.612C457.382 31.008 456.86 31.206 456.212 31.206ZM468.796 48.189C467.32 48.189 466.006 47.874 464.854 47.244C463.702 46.596 462.793 45.714 462.127 44.598C461.461 43.482 461.128 42.213 461.128 40.791C461.128 39.351 461.461 38.082 462.127 36.984C462.793 35.868 463.702 34.995 464.854 34.365C466.006 33.735 467.32 33.42 468.796 33.42C470.29 33.42 471.613 33.735 472.765 34.365C473.935 34.995 474.844 35.859 475.492 36.957C476.158 38.055 476.491 39.333 476.491 40.791C476.491 42.213 476.158 43.482 475.492 44.598C474.844 45.714 473.935 46.596 472.765 47.244C471.613 47.874 470.29 48.189 468.796 48.189ZM468.796 45.3C469.624 45.3 470.362 45.12 471.01 44.76C471.658 44.4 472.162 43.878 472.522 43.194C472.9 42.51 473.089 41.709 473.089 40.791C473.089 39.855 472.9 39.054 472.522 38.388C472.162 37.704 471.658 37.182 471.01 36.822C470.362 36.462 469.633 36.282 468.823 36.282C467.995 36.282 467.257 36.462 466.609 36.822C465.979 37.182 465.475 37.704 465.097 38.388C464.719 39.054 464.53 39.855 464.53 40.791C464.53 41.709 464.719 42.51 465.097 43.194C465.475 43.878 465.979 44.4 466.609 44.76C467.257 45.12 467.986 45.3 468.796 45.3ZM487.899 33.42C489.051 33.42 490.077 33.645 490.977 34.095C491.895 34.545 492.615 35.238 493.137 36.174C493.659 37.092 493.92 38.28 493.92 39.738V48H490.545V40.17C490.545 38.892 490.239 37.938 489.627 37.308C489.033 36.678 488.196 36.363 487.116 36.363C486.324 36.363 485.622 36.525 485.01 36.849C484.398 37.173 483.921 37.659 483.579 38.307C483.255 38.937 483.093 39.738 483.093 40.71V48H479.718V33.582H482.931V37.47L482.364 36.282C482.868 35.364 483.597 34.662 484.551 34.176C485.523 33.672 486.639 33.42 487.899 33.42ZM503.314 48L511.819 29.1H515.275L523.807 48H520.135L512.818 30.963H514.222L506.932 48H503.314ZM507.229 43.626L508.174 40.872H518.38L519.325 43.626H507.229ZM534.068 33.42C535.22 33.42 536.246 33.645 537.146 34.095C538.064 34.545 538.784 35.238 539.306 36.174C539.828 37.092 540.089 38.28 540.089 39.738V48H536.714V40.17C536.714 38.892 536.408 37.938 535.796 37.308C535.202 36.678 534.365 36.363 533.285 36.363C532.493 36.363 531.791 36.525 531.179 36.849C530.567 37.173 530.09 37.659 529.748 38.307C529.424 38.937 529.262 39.738 529.262 40.71V48H525.887V33.582H529.1V37.47L528.533 36.282C529.037 35.364 529.766 34.662 530.72 34.176C531.692 33.672 532.808 33.42 534.068 33.42ZM553.253 48V45.084L553.064 44.463V39.36C553.064 38.37 552.767 37.605 552.173 37.065C551.579 36.507 550.679 36.228 549.473 36.228C548.663 36.228 547.862 36.354 547.07 36.606C546.296 36.858 545.639 37.209 545.099 37.659L543.776 35.202C544.55 34.608 545.468 34.167 546.53 33.879C547.61 33.573 548.726 33.42 549.878 33.42C551.966 33.42 553.577 33.924 554.711 34.932C555.863 35.922 556.439 37.461 556.439 39.549V48H553.253ZM548.717 48.189C547.637 48.189 546.692 48.009 545.882 47.649C545.072 47.271 544.442 46.758 543.992 46.11C543.56 45.444 543.344 44.697 543.344 43.869C543.344 43.059 543.533 42.33 543.911 41.682C544.307 41.034 544.946 40.521 545.828 40.143C546.71 39.765 547.88 39.576 549.338 39.576H553.523V41.817H549.581C548.429 41.817 547.655 42.006 547.259 42.384C546.863 42.744 546.665 43.194 546.665 43.734C546.665 44.346 546.908 44.832 547.394 45.192C547.88 45.552 548.555 45.732 549.419 45.732C550.247 45.732 550.985 45.543 551.633 45.165C552.299 44.787 552.776 44.229 553.064 43.491L553.631 45.516C553.307 46.362 552.722 47.019 551.876 47.487C551.048 47.955 549.995 48.189 548.717 48.189ZM560.771 48V27.966H564.146V48H560.771ZM569.763 53.427C569.061 53.427 568.359 53.31 567.657 53.076C566.955 52.842 566.37 52.518 565.902 52.104L567.252 49.62C567.594 49.926 567.981 50.169 568.413 50.349C568.845 50.529 569.286 50.619 569.736 50.619C570.348 50.619 570.843 50.466 571.221 50.16C571.599 49.854 571.95 49.341 572.274 48.621L573.111 46.731L573.381 46.326L578.835 33.582H582.075L575.325 49.161C574.875 50.241 574.371 51.096 573.813 51.726C573.273 52.356 572.661 52.797 571.977 53.049C571.311 53.301 570.573 53.427 569.763 53.427ZM572.733 48.513L566.226 33.582H569.736L575.028 46.029L572.733 48.513ZM588.455 48.189C587.249 48.189 586.088 48.036 584.972 47.73C583.874 47.406 583.001 47.019 582.353 46.569L583.649 44.004C584.297 44.418 585.071 44.76 585.971 45.03C586.871 45.3 587.771 45.435 588.671 45.435C589.733 45.435 590.498 45.291 590.966 45.003C591.452 44.715 591.695 44.328 591.695 43.842C591.695 43.446 591.533 43.149 591.209 42.951C590.885 42.735 590.462 42.573 589.94 42.465C589.418 42.357 588.833 42.258 588.185 42.168C587.555 42.078 586.916 41.961 586.268 41.817C585.638 41.655 585.062 41.43 584.54 41.142C584.018 40.836 583.595 40.431 583.271 39.927C582.947 39.423 582.785 38.757 582.785 37.929C582.785 37.011 583.046 36.219 583.568 35.553C584.09 34.869 584.819 34.347 585.755 33.987C586.709 33.609 587.834 33.42 589.13 33.42C590.102 33.42 591.083 33.528 592.073 33.744C593.063 33.96 593.882 34.266 594.53 34.662L593.234 37.227C592.55 36.813 591.857 36.534 591.155 36.39C590.471 36.228 589.787 36.147 589.103 36.147C588.077 36.147 587.312 36.3 586.808 36.606C586.322 36.912 586.079 37.299 586.079 37.767C586.079 38.199 586.241 38.523 586.565 38.739C586.889 38.955 587.312 39.126 587.834 39.252C588.356 39.378 588.932 39.486 589.562 39.576C590.21 39.648 590.849 39.765 591.479 39.927C592.109 40.089 592.685 40.314 593.207 40.602C593.747 40.872 594.179 41.259 594.503 41.763C594.827 42.267 594.989 42.924 594.989 43.734C594.989 44.634 594.719 45.417 594.179 46.083C593.657 46.749 592.91 47.271 591.938 47.649C590.966 48.009 589.805 48.189 588.455 48.189ZM597.896 48V33.582H601.271V48H597.896ZM599.597 31.206C598.967 31.206 598.445 31.008 598.031 30.612C597.635 30.216 597.437 29.739 597.437 29.181C597.437 28.605 597.635 28.128 598.031 27.75C598.445 27.354 598.967 27.156 599.597 27.156C600.227 27.156 600.74 27.345 601.136 27.723C601.55 28.083 601.757 28.542 601.757 29.1C601.757 29.694 601.559 30.198 601.163 30.612C600.767 31.008 600.245 31.206 599.597 31.206ZM610.155 48.189C608.949 48.189 607.788 48.036 606.672 47.73C605.574 47.406 604.701 47.019 604.053 46.569L605.349 44.004C605.997 44.418 606.771 44.76 607.671 45.03C608.571 45.3 609.471 45.435 610.371 45.435C611.433 45.435 612.198 45.291 612.666 45.003C613.152 44.715 613.395 44.328 613.395 43.842C613.395 43.446 613.233 43.149 612.909 42.951C612.585 42.735 612.162 42.573 611.64 42.465C611.118 42.357 610.533 42.258 609.885 42.168C609.255 42.078 608.616 41.961 607.968 41.817C607.338 41.655 606.762 41.43 606.24 41.142C605.718 40.836 605.295 40.431 604.971 39.927C604.647 39.423 604.485 38.757 604.485 37.929C604.485 37.011 604.746 36.219 605.268 35.553C605.79 34.869 606.519 34.347 607.455 33.987C608.409 33.609 609.534 33.42 610.83 33.42C611.802 33.42 612.783 33.528 613.773 33.744C614.763 33.96 615.582 34.266 616.23 34.662L614.934 37.227C614.25 36.813 613.557 36.534 612.855 36.39C612.171 36.228 611.487 36.147 610.803 36.147C609.777 36.147 609.012 36.3 608.508 36.606C608.022 36.912 607.779 37.299 607.779 37.767C607.779 38.199 607.941 38.523 608.265 38.739C608.589 38.955 609.012 39.126 609.534 39.252C610.056 39.378 610.632 39.486 611.262 39.576C611.91 39.648 612.549 39.765 613.179 39.927C613.809 40.089 614.385 40.314 614.907 40.602C615.447 40.872 615.879 41.259 616.203 41.763C616.527 42.267 616.689 42.924 616.689 43.734C616.689 44.634 616.419 45.417 615.879 46.083C615.357 46.749 614.61 47.271 613.638 47.649C612.666 48.009 611.505 48.189 610.155 48.189ZM31.88 72V58H37.64C38.88 58 39.94 58.2 40.82 58.6C41.7133 59 42.4 59.5733 42.88 60.32C43.36 61.0667 43.6 61.9533 43.6 62.98C43.6 64.0067 43.36 64.8933 42.88 65.64C42.4 66.3867 41.7133 66.96 40.82 67.36C39.94 67.76 38.88 67.96 37.64 67.96H33.32L34.48 66.74V72H31.88ZM34.48 67.02L33.32 65.76H37.52C38.6667 65.76 39.5267 65.52 40.1 65.04C40.6867 64.5467 40.98 63.86 40.98 62.98C40.98 62.0867 40.6867 61.4 40.1 60.92C39.5267 60.44 38.6667 60.2 37.52 60.2H33.32L34.48 58.92V67.02ZM45.8588 72V61.32H48.2388V64.26L47.9588 63.4C48.2788 62.68 48.7788 62.1333 49.4588 61.76C50.1521 61.3867 51.0121 61.2 52.0388 61.2V63.58C51.9321 63.5533 51.8321 63.54 51.7388 63.54C51.6454 63.5267 51.5521 63.52 51.4588 63.52C50.5121 63.52 49.7588 63.8 49.1988 64.36C48.6388 64.9067 48.3588 65.7267 48.3588 66.82V72H45.8588ZM58.8619 72.14C57.7685 72.14 56.7952 71.9067 55.9419 71.44C55.0885 70.96 54.4152 70.3067 53.9219 69.48C53.4285 68.6533 53.1819 67.7133 53.1819 66.66C53.1819 65.5933 53.4285 64.6533 53.9219 63.84C54.4152 63.0133 55.0885 62.3667 55.9419 61.9C56.7952 61.4333 57.7685 61.2 58.8619 61.2C59.9685 61.2 60.9485 61.4333 61.8019 61.9C62.6685 62.3667 63.3419 63.0067 63.8219 63.82C64.3152 64.6333 64.5619 65.58 64.5619 66.66C64.5619 67.7133 64.3152 68.6533 63.8219 69.48C63.3419 70.3067 62.6685 70.96 61.8019 71.44C60.9485 71.9067 59.9685 72.14 58.8619 72.14ZM58.8619 70C59.4752 70 60.0219 69.8667 60.5019 69.6C60.9819 69.3333 61.3552 68.9467 61.6219 68.44C61.9019 67.9333 62.0419 67.34 62.0419 66.66C62.0419 65.9667 61.9019 65.3733 61.6219 64.88C61.3552 64.3733 60.9819 63.9867 60.5019 63.72C60.0219 63.4533 59.4819 63.32 58.8819 63.32C58.2685 63.32 57.7219 63.4533 57.2419 63.72C56.7752 63.9867 56.4019 64.3733 56.1219 64.88C55.8419 65.3733 55.7019 65.9667 55.7019 66.66C55.7019 67.34 55.8419 67.9333 56.1219 68.44C56.4019 68.9467 56.7752 69.3333 57.2419 69.6C57.7219 69.8667 58.2619 70 58.8619 70ZM71.4725 72.14C70.4458 72.14 69.5192 71.9133 68.6925 71.46C67.8792 70.9933 67.2392 70.3533 66.7725 69.54C66.3058 68.7267 66.0725 67.7667 66.0725 66.66C66.0725 65.5533 66.3058 64.5933 66.7725 63.78C67.2392 62.9667 67.8792 62.3333 68.6925 61.88C69.5192 61.4267 70.4458 61.2 71.4725 61.2C72.3658 61.2 73.1658 61.4 73.8725 61.8C74.5792 62.1867 75.1392 62.78 75.5525 63.58C75.9658 64.38 76.1725 65.4067 76.1725 66.66C76.1725 67.9 75.9725 68.9267 75.5725 69.74C75.1725 70.54 74.6192 71.14 73.9125 71.54C73.2058 71.94 72.3925 72.14 71.4725 72.14ZM71.7725 70C72.3725 70 72.9058 69.8667 73.3725 69.6C73.8525 69.3333 74.2325 68.9467 74.5125 68.44C74.8058 67.9333 74.9525 67.34 74.9525 66.66C74.9525 65.9667 74.8058 65.3733 74.5125 64.88C74.2325 64.3733 73.8525 63.9867 73.3725 63.72C72.9058 63.4533 72.3725 63.32 71.7725 63.32C71.1725 63.32 70.6325 63.4533 70.1525 63.72C69.6858 63.9867 69.3058 64.3733 69.0125 64.88C68.7325 65.3733 68.5925 65.9667 68.5925 66.66C68.5925 67.34 68.7325 67.9333 69.0125 68.44C69.3058 68.9467 69.6858 69.3333 70.1525 69.6C70.6325 69.8667 71.1725 70 71.7725 70ZM75.0125 72V69.48L75.1125 66.64L74.9125 63.8V57.16H77.3925V72H75.0125ZM85.203 72.14C84.2963 72.14 83.4963 71.9733 82.803 71.64C82.1096 71.2933 81.5696 70.7733 81.183 70.08C80.7963 69.3733 80.603 68.4867 80.603 67.42V61.32H83.103V67.08C83.103 68.04 83.3163 68.76 83.743 69.24C84.183 69.7067 84.803 69.94 85.603 69.94C86.1896 69.94 86.6963 69.82 87.123 69.58C87.563 69.34 87.903 68.98 88.143 68.5C88.3963 68.02 88.523 67.4267 88.523 66.72V61.32H91.023V72H88.643V69.12L89.063 70C88.703 70.6933 88.1763 71.2267 87.483 71.6C86.7896 71.96 86.0296 72.14 85.203 72.14ZM99.1963 72.14C98.0763 72.14 97.0763 71.9067 96.1963 71.44C95.3296 70.96 94.6496 70.3067 94.1563 69.48C93.6629 68.6533 93.4163 67.7133 93.4163 66.66C93.4163 65.5933 93.6629 64.6533 94.1563 63.84C94.6496 63.0133 95.3296 62.3667 96.1963 61.9C97.0763 61.4333 98.0763 61.2 99.1963 61.2C100.236 61.2 101.15 61.4133 101.936 61.84C102.736 62.2533 103.343 62.8667 103.756 63.68L101.836 64.8C101.516 64.2933 101.123 63.92 100.656 63.68C100.203 63.44 99.7096 63.32 99.1763 63.32C98.5629 63.32 98.0096 63.4533 97.5163 63.72C97.0229 63.9867 96.6363 64.3733 96.3563 64.88C96.0763 65.3733 95.9363 65.9667 95.9363 66.66C95.9363 67.3533 96.0763 67.9533 96.3563 68.46C96.6363 68.9533 97.0229 69.3333 97.5163 69.6C98.0096 69.8667 98.5629 70 99.1763 70C99.7096 70 100.203 69.88 100.656 69.64C101.123 69.4 101.516 69.0267 101.836 68.52L103.756 69.64C103.343 70.44 102.736 71.06 101.936 71.5C101.15 71.9267 100.236 72.14 99.1963 72.14ZM110.074 72.14C108.901 72.14 107.994 71.84 107.354 71.24C106.714 70.6267 106.394 69.7267 106.394 68.54V58.96H108.894V68.48C108.894 68.9867 109.021 69.38 109.274 69.66C109.541 69.94 109.907 70.08 110.374 70.08C110.934 70.08 111.401 69.9333 111.774 69.64L112.474 71.42C112.181 71.66 111.821 71.84 111.394 71.96C110.967 72.08 110.527 72.14 110.074 72.14ZM104.634 63.4V61.4H111.754V63.4H104.634ZM114.531 72V61.32H117.031V72H114.531ZM115.791 59.56C115.324 59.56 114.937 59.4133 114.631 59.12C114.337 58.8267 114.191 58.4733 114.191 58.06C114.191 57.6333 114.337 57.28 114.631 57C114.937 56.7067 115.324 56.56 115.791 56.56C116.257 56.56 116.637 56.7 116.931 56.98C117.237 57.2467 117.391 57.5867 117.391 58C117.391 58.44 117.244 58.8133 116.951 59.12C116.657 59.4133 116.271 59.56 115.791 59.56ZM125.112 72.14C124.019 72.14 123.045 71.9067 122.192 71.44C121.339 70.96 120.665 70.3067 120.172 69.48C119.679 68.6533 119.432 67.7133 119.432 66.66C119.432 65.5933 119.679 64.6533 120.172 63.84C120.665 63.0133 121.339 62.3667 122.192 61.9C123.045 61.4333 124.019 61.2 125.112 61.2C126.219 61.2 127.199 61.4333 128.052 61.9C128.919 62.3667 129.592 63.0067 130.072 63.82C130.565 64.6333 130.812 65.58 130.812 66.66C130.812 67.7133 130.565 68.6533 130.072 69.48C129.592 70.3067 128.919 70.96 128.052 71.44C127.199 71.9067 126.219 72.14 125.112 72.14ZM125.112 70C125.725 70 126.272 69.8667 126.752 69.6C127.232 69.3333 127.605 68.9467 127.872 68.44C128.152 67.9333 128.292 67.34 128.292 66.66C128.292 65.9667 128.152 65.3733 127.872 64.88C127.605 64.3733 127.232 63.9867 126.752 63.72C126.272 63.4533 125.732 63.32 125.132 63.32C124.519 63.32 123.972 63.4533 123.492 63.72C123.025 63.9867 122.652 64.3733 122.372 64.88C122.092 65.3733 121.952 65.9667 121.952 66.66C121.952 67.34 122.092 67.9333 122.372 68.44C122.652 68.9467 123.025 69.3333 123.492 69.6C123.972 69.8667 124.512 70 125.112 70ZM139.263 61.2C140.116 61.2 140.876 61.3667 141.543 61.7C142.223 62.0333 142.756 62.5467 143.143 63.24C143.529 63.92 143.723 64.8 143.723 65.88V72H141.223V66.2C141.223 65.2533 140.996 64.5467 140.543 64.08C140.103 63.6133 139.483 63.38 138.683 63.38C138.096 63.38 137.576 63.5 137.123 63.74C136.669 63.98 136.316 64.34 136.063 64.82C135.823 65.2867 135.703 65.88 135.703 66.6V72H133.203V61.32H135.583V64.2L135.163 63.32C135.536 62.64 136.076 62.12 136.783 61.76C137.503 61.3867 138.329 61.2 139.263 61.2ZM156.801 72L150.681 58H153.501L158.961 70.66H157.341L162.861 58H165.461L159.361 72H156.801ZM172.478 72V69.84L172.338 69.38V65.6C172.338 64.8667 172.118 64.3 171.678 63.9C171.238 63.4867 170.571 63.28 169.678 63.28C169.078 63.28 168.484 63.3733 167.898 63.56C167.324 63.7467 166.838 64.0067 166.438 64.34L165.458 62.52C166.031 62.08 166.711 61.7533 167.498 61.54C168.298 61.3133 169.124 61.2 169.978 61.2C171.524 61.2 172.718 61.5733 173.558 62.32C174.411 63.0533 174.838 64.1933 174.838 65.74V72H172.478ZM169.118 72.14C168.318 72.14 167.618 72.0067 167.018 71.74C166.418 71.46 165.951 71.08 165.618 70.6C165.298 70.1067 165.138 69.5533 165.138 68.94C165.138 68.34 165.278 67.8 165.558 67.32C165.851 66.84 166.324 66.46 166.978 66.18C167.631 65.9 168.498 65.76 169.578 65.76H172.678V67.42H169.758C168.904 67.42 168.331 67.56 168.038 67.84C167.744 68.1067 167.598 68.44 167.598 68.84C167.598 69.2933 167.778 69.6533 168.138 69.92C168.498 70.1867 168.998 70.32 169.638 70.32C170.251 70.32 170.798 70.18 171.278 69.9C171.771 69.62 172.124 69.2067 172.338 68.66L172.758 70.16C172.518 70.7867 172.084 71.2733 171.458 71.62C170.844 71.9667 170.064 72.14 169.118 72.14ZM178.046 72V61.32H180.426V64.26L180.146 63.4C180.466 62.68 180.966 62.1333 181.646 61.76C182.34 61.3867 183.2 61.2 184.226 61.2V63.58C184.12 63.5533 184.02 63.54 183.926 63.54C183.833 63.5267 183.74 63.52 183.646 63.52C182.7 63.52 181.946 63.8 181.386 64.36C180.826 64.9067 180.546 65.7267 180.546 66.82V72H178.046ZM186.347 72V61.32H188.847V72H186.347ZM187.607 59.56C187.14 59.56 186.754 59.4133 186.447 59.12C186.154 58.8267 186.007 58.4733 186.007 58.06C186.007 57.6333 186.154 57.28 186.447 57C186.754 56.7067 187.14 56.56 187.607 56.56C188.074 56.56 188.454 56.7 188.747 56.98C189.054 57.2467 189.207 57.5867 189.207 58C189.207 58.44 189.06 58.8133 188.767 59.12C188.474 59.4133 188.087 59.56 187.607 59.56ZM198.708 72V69.84L198.568 69.38V65.6C198.568 64.8667 198.348 64.3 197.908 63.9C197.468 63.4867 196.802 63.28 195.908 63.28C195.308 63.28 194.715 63.3733 194.128 63.56C193.555 63.7467 193.068 64.0067 192.668 64.34L191.688 62.52C192.262 62.08 192.942 61.7533 193.728 61.54C194.528 61.3133 195.355 61.2 196.208 61.2C197.755 61.2 198.948 61.5733 199.788 62.32C200.642 63.0533 201.068 64.1933 201.068 65.74V72H198.708ZM195.348 72.14C194.548 72.14 193.848 72.0067 193.248 71.74C192.648 71.46 192.182 71.08 191.848 70.6C191.528 70.1067 191.368 69.5533 191.368 68.94C191.368 68.34 191.508 67.8 191.788 67.32C192.082 66.84 192.555 66.46 193.208 66.18C193.862 65.9 194.728 65.76 195.808 65.76H198.908V67.42H195.988C195.135 67.42 194.562 67.56 194.268 67.84C193.975 68.1067 193.828 68.44 193.828 68.84C193.828 69.2933 194.008 69.6533 194.368 69.92C194.728 70.1867 195.228 70.32 195.868 70.32C196.482 70.32 197.028 70.18 197.508 69.9C198.002 69.62 198.355 69.2067 198.568 68.66L198.988 70.16C198.748 70.7867 198.315 71.2733 197.688 71.62C197.075 71.9667 196.295 72.14 195.348 72.14ZM210.337 61.2C211.19 61.2 211.95 61.3667 212.617 61.7C213.297 62.0333 213.83 62.5467 214.217 63.24C214.603 63.92 214.797 64.8 214.797 65.88V72H212.297V66.2C212.297 65.2533 212.07 64.5467 211.617 64.08C211.177 63.6133 210.557 63.38 209.757 63.38C209.17 63.38 208.65 63.5 208.197 63.74C207.743 63.98 207.39 64.34 207.137 64.82C206.897 65.2867 206.777 65.88 206.777 66.6V72H204.277V61.32H206.657V64.2L206.237 63.32C206.61 62.64 207.15 62.12 207.857 61.76C208.577 61.3867 209.403 61.2 210.337 61.2ZM222.888 72.14C221.768 72.14 220.768 71.9067 219.888 71.44C219.021 70.96 218.341 70.3067 217.848 69.48C217.354 68.6533 217.108 67.7133 217.108 66.66C217.108 65.5933 217.354 64.6533 217.848 63.84C218.341 63.0133 219.021 62.3667 219.888 61.9C220.768 61.4333 221.768 61.2 222.888 61.2C223.928 61.2 224.841 61.4133 225.628 61.84C226.428 62.2533 227.034 62.8667 227.448 63.68L225.528 64.8C225.208 64.2933 224.814 63.92 224.348 63.68C223.894 63.44 223.401 63.32 222.868 63.32C222.254 63.32 221.701 63.4533 221.208 63.72C220.714 63.9867 220.328 64.3733 220.048 64.88C219.768 65.3733 219.628 65.9667 219.628 66.66C219.628 67.3533 219.768 67.9533 220.048 68.46C220.328 68.9533 220.714 69.3333 221.208 69.6C221.701 69.8667 222.254 70 222.868 70C223.401 70 223.894 69.88 224.348 69.64C224.814 69.4 225.208 69.0267 225.528 68.52L227.448 69.64C227.034 70.44 226.428 71.06 225.628 71.5C224.841 71.9267 223.928 72.14 222.888 72.14ZM234.473 72.14C233.286 72.14 232.246 71.9067 231.353 71.44C230.473 70.96 229.786 70.3067 229.293 69.48C228.813 68.6533 228.573 67.7133 228.573 66.66C228.573 65.5933 228.806 64.6533 229.273 63.84C229.753 63.0133 230.406 62.3667 231.233 61.9C232.073 61.4333 233.026 61.2 234.093 61.2C235.133 61.2 236.059 61.4267 236.873 61.88C237.686 62.3333 238.326 62.9733 238.793 63.8C239.259 64.6267 239.493 65.6 239.493 66.72C239.493 66.8267 239.486 66.9467 239.473 67.08C239.473 67.2133 239.466 67.34 239.453 67.46H230.553V65.8H238.133L237.153 66.32C237.166 65.7067 237.039 65.1667 236.773 64.7C236.506 64.2333 236.139 63.8667 235.673 63.6C235.219 63.3333 234.693 63.2 234.093 63.2C233.479 63.2 232.939 63.3333 232.473 63.6C232.019 63.8667 231.659 64.24 231.393 64.72C231.139 65.1867 231.013 65.74 231.013 66.38V66.78C231.013 67.42 231.159 67.9867 231.453 68.48C231.746 68.9733 232.159 69.3533 232.693 69.62C233.226 69.8867 233.839 70.02 234.533 70.02C235.133 70.02 235.673 69.9267 236.153 69.74C236.633 69.5533 237.059 69.26 237.433 68.86L238.773 70.4C238.293 70.96 237.686 71.3933 236.953 71.7C236.233 71.9933 235.406 72.14 234.473 72.14ZM251.701 72.2C250.728 72.2 249.855 72.04 249.081 71.72C248.308 71.4 247.701 70.96 247.261 70.4C246.821 69.84 246.601 69.1933 246.601 68.46C246.601 67.7933 246.748 67.1933 247.041 66.66C247.335 66.1267 247.801 65.62 248.441 65.14C249.081 64.6467 249.901 64.1533 250.901 63.66C251.688 63.2733 252.301 62.9333 252.741 62.64C253.195 62.3467 253.508 62.0667 253.681 61.8C253.868 61.5333 253.961 61.2533 253.961 60.96C253.961 60.56 253.821 60.24 253.541 60C253.261 59.7467 252.861 59.62 252.341 59.62C251.781 59.62 251.341 59.76 251.021 60.04C250.715 60.3067 250.561 60.66 250.561 61.1C250.561 61.3267 250.601 61.5467 250.681 61.76C250.775 61.9733 250.935 62.2133 251.161 62.48C251.388 62.7467 251.715 63.0867 252.141 63.5L259.541 70.6L258.161 72.22L250.161 64.54C249.708 64.1 249.341 63.6933 249.061 63.32C248.781 62.9467 248.581 62.5867 248.461 62.24C248.341 61.88 248.281 61.5133 248.281 61.14C248.281 60.4867 248.448 59.9133 248.781 59.42C249.115 58.9133 249.588 58.5267 250.201 58.26C250.815 57.98 251.528 57.84 252.341 57.84C253.101 57.84 253.755 57.9667 254.301 58.22C254.861 58.46 255.295 58.8133 255.601 59.28C255.921 59.7333 256.081 60.28 256.081 60.92C256.081 61.48 255.941 62 255.661 62.48C255.381 62.9467 254.941 63.3933 254.341 63.82C253.755 64.2467 252.968 64.6933 251.981 65.16C251.248 65.52 250.668 65.86 250.241 66.18C249.815 66.5 249.508 66.82 249.321 67.14C249.135 67.46 249.041 67.8133 249.041 68.2C249.041 68.5867 249.155 68.9267 249.381 69.22C249.621 69.5133 249.955 69.7467 250.381 69.92C250.808 70.08 251.308 70.16 251.881 70.16C252.735 70.16 253.508 69.9733 254.201 69.6C254.908 69.2133 255.501 68.64 255.981 67.88C256.461 67.12 256.808 66.18 257.021 65.06L259.041 65.72C258.761 67.0667 258.275 68.2267 257.581 69.2C256.901 70.16 256.061 70.9 255.061 71.42C254.061 71.94 252.941 72.2 251.701 72.2ZM267.31 72V58H273.07C274.31 58 275.37 58.2 276.25 58.6C277.143 59 277.83 59.5733 278.31 60.32C278.79 61.0667 279.03 61.9533 279.03 62.98C279.03 64.0067 278.79 64.8933 278.31 65.64C277.83 66.3867 277.143 66.96 276.25 67.36C275.37 67.76 274.31 67.96 273.07 67.96H268.75L269.91 66.74V72H267.31ZM269.91 67.02L268.75 65.76H272.95C274.096 65.76 274.956 65.52 275.53 65.04C276.116 64.5467 276.41 63.86 276.41 62.98C276.41 62.0867 276.116 61.4 275.53 60.92C274.956 60.44 274.096 60.2 272.95 60.2H268.75L269.91 58.92V67.02ZM286.367 72.14C285.18 72.14 284.14 71.9067 283.247 71.44C282.367 70.96 281.68 70.3067 281.187 69.48C280.707 68.6533 280.467 67.7133 280.467 66.66C280.467 65.5933 280.7 64.6533 281.167 63.84C281.647 63.0133 282.3 62.3667 283.127 61.9C283.967 61.4333 284.92 61.2 285.987 61.2C287.027 61.2 287.954 61.4267 288.767 61.88C289.58 62.3333 290.22 62.9733 290.687 63.8C291.154 64.6267 291.387 65.6 291.387 66.72C291.387 66.8267 291.38 66.9467 291.367 67.08C291.367 67.2133 291.36 67.34 291.347 67.46H282.447V65.8H290.027L289.047 66.32C289.06 65.7067 288.934 65.1667 288.667 64.7C288.4 64.2333 288.034 63.8667 287.567 63.6C287.114 63.3333 286.587 63.2 285.987 63.2C285.374 63.2 284.834 63.3333 284.367 63.6C283.914 63.8667 283.554 64.24 283.287 64.72C283.034 65.1867 282.907 65.74 282.907 66.38V66.78C282.907 67.42 283.054 67.9867 283.347 68.48C283.64 68.9733 284.054 69.3533 284.587 69.62C285.12 69.8867 285.734 70.02 286.427 70.02C287.027 70.02 287.567 69.9267 288.047 69.74C288.527 69.5533 288.954 69.26 289.327 68.86L290.667 70.4C290.187 70.96 289.58 71.3933 288.847 71.7C288.127 71.9933 287.3 72.14 286.367 72.14ZM293.788 72V61.32H296.168V64.26L295.888 63.4C296.208 62.68 296.708 62.1333 297.388 61.76C298.082 61.3867 298.942 61.2 299.968 61.2V63.58C299.862 63.5533 299.762 63.54 299.668 63.54C299.575 63.5267 299.482 63.52 299.388 63.52C298.442 63.52 297.688 63.8 297.128 64.36C296.568 64.9067 296.288 65.7267 296.288 66.82V72H293.788ZM302.527 72V60.72C302.527 59.6 302.854 58.7067 303.507 58.04C304.174 57.36 305.12 57.02 306.347 57.02C306.787 57.02 307.2 57.0667 307.587 57.16C307.987 57.2533 308.32 57.4 308.587 57.6L307.907 59.48C307.72 59.3333 307.507 59.2267 307.267 59.16C307.027 59.08 306.78 59.04 306.527 59.04C306.007 59.04 305.614 59.1867 305.347 59.48C305.08 59.76 304.947 60.1867 304.947 60.76V61.96L305.027 63.08V72H302.527ZM300.767 63.4V61.4H307.887V63.4H300.767ZM314.213 72.14C313.12 72.14 312.147 71.9067 311.293 71.44C310.44 70.96 309.767 70.3067 309.273 69.48C308.78 68.6533 308.533 67.7133 308.533 66.66C308.533 65.5933 308.78 64.6533 309.273 63.84C309.767 63.0133 310.44 62.3667 311.293 61.9C312.147 61.4333 313.12 61.2 314.213 61.2C315.32 61.2 316.3 61.4333 317.153 61.9C318.02 62.3667 318.693 63.0067 319.173 63.82C319.667 64.6333 319.913 65.58 319.913 66.66C319.913 67.7133 319.667 68.6533 319.173 69.48C318.693 70.3067 318.02 70.96 317.153 71.44C316.3 71.9067 315.32 72.14 314.213 72.14ZM314.213 70C314.827 70 315.373 69.8667 315.853 69.6C316.333 69.3333 316.707 68.9467 316.973 68.44C317.253 67.9333 317.393 67.34 317.393 66.66C317.393 65.9667 317.253 65.3733 316.973 64.88C316.707 64.3733 316.333 63.9867 315.853 63.72C315.373 63.4533 314.833 63.32 314.233 63.32C313.62 63.32 313.073 63.4533 312.593 63.72C312.127 63.9867 311.753 64.3733 311.473 64.88C311.193 65.3733 311.053 65.9667 311.053 66.66C311.053 67.34 311.193 67.9333 311.473 68.44C311.753 68.9467 312.127 69.3333 312.593 69.6C313.073 69.8667 313.613 70 314.213 70ZM322.304 72V61.32H324.684V64.26L324.404 63.4C324.724 62.68 325.224 62.1333 325.904 61.76C326.597 61.3867 327.457 61.2 328.484 61.2V63.58C328.377 63.5533 328.277 63.54 328.184 63.54C328.091 63.5267 327.997 63.52 327.904 63.52C326.957 63.52 326.204 63.8 325.644 64.36C325.084 64.9067 324.804 65.7267 324.804 66.82V72H322.304ZM344.085 61.2C344.938 61.2 345.692 61.3667 346.345 61.7C347.012 62.0333 347.532 62.5467 347.905 63.24C348.278 63.92 348.465 64.8 348.465 65.88V72H345.965V66.2C345.965 65.2533 345.758 64.5467 345.345 64.08C344.932 63.6133 344.338 63.38 343.565 63.38C343.018 63.38 342.532 63.5 342.105 63.74C341.692 63.98 341.365 64.3333 341.125 64.8C340.898 65.2667 340.785 65.86 340.785 66.58V72H338.285V66.2C338.285 65.2533 338.078 64.5467 337.665 64.08C337.252 63.6133 336.658 63.38 335.885 63.38C335.338 63.38 334.852 63.5 334.425 63.74C334.012 63.98 333.685 64.3333 333.445 64.8C333.218 65.2667 333.105 65.86 333.105 66.58V72H330.605V61.32H332.985V64.16L332.565 63.32C332.925 62.6267 333.445 62.1 334.125 61.74C334.818 61.38 335.605 61.2 336.485 61.2C337.485 61.2 338.352 61.4467 339.085 61.94C339.832 62.4333 340.325 63.18 340.565 64.18L339.585 63.84C339.932 63.04 340.505 62.4 341.305 61.92C342.105 61.44 343.032 61.2 344.085 61.2ZM358.24 72V69.84L358.1 69.38V65.6C358.1 64.8667 357.88 64.3 357.44 63.9C357 63.4867 356.333 63.28 355.44 63.28C354.84 63.28 354.246 63.3733 353.66 63.56C353.086 63.7467 352.6 64.0067 352.2 64.34L351.22 62.52C351.793 62.08 352.473 61.7533 353.26 61.54C354.06 61.3133 354.886 61.2 355.74 61.2C357.286 61.2 358.48 61.5733 359.32 62.32C360.173 63.0533 360.6 64.1933 360.6 65.74V72H358.24ZM354.88 72.14C354.08 72.14 353.38 72.0067 352.78 71.74C352.18 71.46 351.713 71.08 351.38 70.6C351.06 70.1067 350.9 69.5533 350.9 68.94C350.9 68.34 351.04 67.8 351.32 67.32C351.613 66.84 352.086 66.46 352.74 66.18C353.393 65.9 354.26 65.76 355.34 65.76H358.44V67.42H355.52C354.666 67.42 354.093 67.56 353.8 67.84C353.506 68.1067 353.36 68.44 353.36 68.84C353.36 69.2933 353.54 69.6533 353.9 69.92C354.26 70.1867 354.76 70.32 355.4 70.32C356.013 70.32 356.56 70.18 357.04 69.9C357.533 69.62 357.886 69.2067 358.1 68.66L358.52 70.16C358.28 70.7867 357.846 71.2733 357.22 71.62C356.606 71.9667 355.826 72.14 354.88 72.14ZM369.868 61.2C370.721 61.2 371.481 61.3667 372.148 61.7C372.828 62.0333 373.361 62.5467 373.748 63.24C374.135 63.92 374.328 64.8 374.328 65.88V72H371.828V66.2C371.828 65.2533 371.601 64.5467 371.148 64.08C370.708 63.6133 370.088 63.38 369.288 63.38C368.701 63.38 368.181 63.5 367.728 63.74C367.275 63.98 366.921 64.34 366.668 64.82C366.428 65.2867 366.308 65.88 366.308 66.6V72H363.808V61.32H366.188V64.2L365.768 63.32C366.141 62.64 366.681 62.12 367.388 61.76C368.108 61.3867 368.935 61.2 369.868 61.2ZM382.419 72.14C381.299 72.14 380.299 71.9067 379.419 71.44C378.552 70.96 377.872 70.3067 377.379 69.48C376.886 68.6533 376.639 67.7133 376.639 66.66C376.639 65.5933 376.886 64.6533 377.379 63.84C377.872 63.0133 378.552 62.3667 379.419 61.9C380.299 61.4333 381.299 61.2 382.419 61.2C383.459 61.2 384.372 61.4133 385.159 61.84C385.959 62.2533 386.566 62.8667 386.979 63.68L385.059 64.8C384.739 64.2933 384.346 63.92 383.879 63.68C383.426 63.44 382.932 63.32 382.399 63.32C381.786 63.32 381.232 63.4533 380.739 63.72C380.246 63.9867 379.859 64.3733 379.579 64.88C379.299 65.3733 379.159 65.9667 379.159 66.66C379.159 67.3533 379.299 67.9533 379.579 68.46C379.859 68.9533 380.246 69.3333 380.739 69.6C381.232 69.8667 381.786 70 382.399 70C382.932 70 383.426 69.88 383.879 69.64C384.346 69.4 384.739 69.0267 385.059 68.52L386.979 69.64C386.566 70.44 385.959 71.06 385.159 71.5C384.372 71.9267 383.459 72.14 382.419 72.14ZM394.004 72.14C392.817 72.14 391.777 71.9067 390.884 71.44C390.004 70.96 389.317 70.3067 388.824 69.48C388.344 68.6533 388.104 67.7133 388.104 66.66C388.104 65.5933 388.337 64.6533 388.804 63.84C389.284 63.0133 389.937 62.3667 390.764 61.9C391.604 61.4333 392.557 61.2 393.624 61.2C394.664 61.2 395.59 61.4267 396.404 61.88C397.217 62.3333 397.857 62.9733 398.324 63.8C398.79 64.6267 399.024 65.6 399.024 66.72C399.024 66.8267 399.017 66.9467 399.004 67.08C399.004 67.2133 398.997 67.34 398.984 67.46H390.084V65.8H397.664L396.684 66.32C396.697 65.7067 396.57 65.1667 396.304 64.7C396.037 64.2333 395.67 63.8667 395.204 63.6C394.75 63.3333 394.224 63.2 393.624 63.2C393.01 63.2 392.47 63.3333 392.004 63.6C391.55 63.8667 391.19 64.24 390.924 64.72C390.67 65.1867 390.544 65.74 390.544 66.38V66.78C390.544 67.42 390.69 67.9867 390.984 68.48C391.277 68.9733 391.69 69.3533 392.224 69.62C392.757 69.8867 393.37 70.02 394.064 70.02C394.664 70.02 395.204 69.9267 395.684 69.74C396.164 69.5533 396.59 69.26 396.964 68.86L398.304 70.4C397.824 70.96 397.217 71.3933 396.484 71.7C395.764 71.9933 394.937 72.14 394.004 72.14Z" fill="white"/>
<rect x="1" y="534" width="225" height="68" fill="#1D1F21"/>
</g>
<defs>
<linearGradient id="paint0_linear_56_41" x1="112.5" y1="124" x2="112.5" y2="1054" gradientUnits="userSpaceOnUse">
<stop stop-color="#444648"/>
<stop offset="1" stop-color="#FF943A"/>
</linearGradient>
<clipPath id="clip0_56_41">
<rect width="1920" height="1080" fill="white"/>
</clipPath>
</defs>
</svg>
